<svg fill="none" xmlns="http://www.w3.org/2000/svg" viewBox="0 0 264 185"><path d="M130.595 180.333a4.375 4.375 0 0 0 4.375 4.375h73.011v-.045c30.728-1.204 55.271-26.496 55.271-57.52 0-30.183-23.231-54.941-52.788-57.37-2.098-.171-3.868-1.69-4.306-3.75C198.174 28.583 164.91.5 125.087.5c-45.78 0-82.893 37.112-82.893 82.893 0 .483-.345.898-.818.994C18.204 89.04.75 109.508.75 134.05c0 27.977 22.679 50.656 50.655 50.657h58.282a4.374 4.374 0 0 0 4.375-4.375V166.61c0-2.205-1.646-4.047-3.811-4.462-9.111-1.748-16.91-5.508-22.248-10.888-4.776-4.813-7.627-10.775-8.513-17.777-.307-2.423 1.703-4.422 4.146-4.41l9.744.045c2.34.011 4.202 1.881 4.735 4.158 2.239 9.564 10.894 15.863 23.718 15.923 4.996.023 23.627-2.311 23.687-15.188.048-10.298-13.492-14.204-26.302-17.366a331.539 331.539 0 0 1-6.633-1.685c-14.489-3.848-29.816-8.252-29.729-26.79.084-18.007 15.24-27.294 31.206-29.186V41.716a4.375 4.375 0 0 1 4.375-4.375h7.766a4.375 4.375 0 0 1 4.375 4.375v17.738c11.515 1.859 27.021 7.687 29.65 25.436.361 2.437-1.66 4.48-4.125 4.468l-9.792-.046c-2.246-.01-4.057-1.749-4.729-3.892-2.539-8.108-10.5-13.023-22.157-13.078-7.755-.036-18.994 4.079-19.038 13.477-.04 8.518 6.479 11.42 30.805 17.705l3.22.822c.407.1.841.205 1.299.315 9.267 2.235 28.282 6.821 28.187 27.206-.075 16.092-11.069 27.099-29.439 30.375-2.19.391-3.864 2.242-3.864 4.467v13.624Z" fill="url(#a)"/><defs><linearGradient id="a" x1="42.938" y1="-13.562" x2="160.625" y2="240.858" gradientUnits="userSpaceOnUse"><stop stop-color="#00CFDE"/><stop offset="1" stop-color="#05A660"/></linearGradient></defs></svg>