<svg fill="none" xmlns="http://www.w3.org/2000/svg" viewBox="0 0 228 247"><path fill-rule="evenodd" clip-rule="evenodd" d="M205.233 44.783a44.39 44.39 0 0 1 22.515 39.009l-.674 78.178a44.385 44.385 0 0 1-22.196 38.061l-70.018 40.414a44.386 44.386 0 0 1-44.06.182l-68.033-38.521A44.387 44.387 0 0 1 .252 163.098l.674-78.179a44.388 44.388 0 0 1 22.196-38.06L93.14 6.443a44.388 44.388 0 0 1 44.06-.182l68.033 38.521Zm-24.754 60.7c-3.68 13.874-17.756 22.203-31.516 18.733L83.437 106.49c-10.792-2.922-22.025-1.425-31.677 4.2-9.651 5.624-16.552 14.696-19.441 25.59-2.892 10.897-1.412 22.272 4.19 32.065 5.6 9.793 14.621 16.775 25.417 19.695 10.791 2.922 22.024 1.425 31.675-4.199 9.652-5.625 16.553-14.696 19.442-25.591l2.285-9.155a2.189 2.189 0 0 0-1.551-2.642l-11.008-2.979a2.188 2.188 0 0 0-2.694 1.583l-2.234 8.958c-3.726 14.023-18.064 22.373-31.95 18.618-13.845-3.749-22.076-18.14-18.37-32.117 3.68-13.874 17.758-22.21 31.518-18.74l65.525 17.734c10.791 2.921 22.024 1.425 31.677-4.2 9.65-5.624 16.551-14.696 19.44-25.591 2.892-10.896 1.412-22.272-4.189-32.064-5.602-9.793-14.622-16.775-25.418-19.695-10.791-2.922-22.024-1.426-31.675 4.198-9.652 5.626-16.553 14.697-19.442 25.591l-2.162 7.239a2.187 2.187 0 0 0 1.525 2.737l11.008 2.979a2.186 2.186 0 0 0 2.667-1.484l2.164-7.236c3.726-14.022 18.064-22.372 31.95-18.618 13.845 3.75 22.076 18.14 18.37 32.117Z" fill="url(#a)"/><defs><linearGradient id="a" x1="33.27" y1=".5" x2="162.125" y2="245.5" gradientUnits="userSpaceOnUse"><stop stop-color="#62F91F"/><stop offset="1" stop-color="#45BD35"/></linearGradient></defs></svg>