<svg fill="none" xmlns="http://www.w3.org/2000/svg" viewBox="0 0 193 219"><path fill-rule="evenodd" clip-rule="evenodd" d="M143.697 89.18a8.382 8.382 0 0 0 11.936 0c3.296-3.329 3.296-8.725 0-12.053l-43.48-43.907 52.645-30.694C177.11-4.652 192.5 4.321 192.5 18.677v93.802l-63.639 15.375c-4.533 1.095-7.329 5.694-6.244 10.271 1.084 4.578 5.638 7.401 10.171 6.306l59.712-14.426v70.068c0 14.356-15.39 23.329-27.702 16.151L91.554 173.52l10.249-74.746c.639-4.662-2.585-8.965-7.202-9.61-4.617-.646-8.878 2.61-9.518 7.272l-9.308 67.885-66.541-38.795c-12.312-7.178-12.312-25.124 0-32.302l87.785-51.18 46.678 47.136Z" fill="url(#a)"/><defs><linearGradient id="a" x1="75.112" y1="34.09" x2="194.051" y2="217.117" gradientUnits="userSpaceOnUse"><stop stop-color="#FF61A2"/><stop offset="1" stop-color="#D8005A"/></linearGradient></defs></svg>