<svg fill="none" xmlns="http://www.w3.org/2000/svg" viewBox="0 0 228 228"><path fill-rule="evenodd" clip-rule="evenodd" d="M227.75 114c0 14.033-2.722 27.677-7.476 40.243-.873 2.307-3.819 2.887-5.574 1.153l-34.904-34.484c-1.457-1.438-1.7-3.685-.751-5.499 3.785-7.234 5.678-15.51 5.678-24.163.494-28.19-22.75-51.435-51.435-51.435-9.107 0-17.454 2.282-24.706 6.178-1.785.96-4.008.73-5.45-.693L72.061 14.632c-2.19-2.161-1.52-5.843 1.352-6.946C86.047 2.836 99.469.25 114 .25 176.81.25 227.75 51.19 227.75 114ZM48.161 21.43c2.028-1.429 4.779-1.131 6.533.623L90.003 57.36c1.56 1.56 1.696 4.028.472 5.863-5.519 8.273-8.622 18.01-8.622 28.52 0 28.685 23.245 51.93 51.93 51.93 10.511 0 20.247-3.103 28.52-8.622 1.835-1.224 4.303-1.088 5.863.472l38.219 38.219c1.78 1.78 2.056 4.581.569 6.612-20.988 28.671-54.459 47.395-92.954 47.395C51.19 227.75.25 176.81.25 114c0-38.529 18.757-72.025 47.911-92.57Zm85.622 102.461c19.288 0 34.619-15.331 34.619-34.62 0-19.287-15.331-34.619-34.619-34.619s-34.62 15.332-34.62 34.62c0 19.288 15.332 34.619 34.62 34.619Z" fill="url(#a)"/><defs><linearGradient id="a" x1="-73.234" y1="73.734" x2="73.734" y2="301.235" gradientUnits="userSpaceOnUse"><stop stop-color="#73DFE7"/><stop offset="1" stop-color="#0095F7"/></linearGradient></defs></svg>