<svg fill="none" xmlns="http://www.w3.org/2000/svg" viewBox="0 0 464 82"><g clip-path="url(#a)" fill="#fff"><path d="M8.055 7.371C3.661 7.371 0 9.208 0 14.751c0 4.392 2.462 7.157 8.168 7.157 6.717 0 7.148-4.36 7.148-4.36H12.06s-.697 2.347-4.091 2.347c-2.764 0-4.752-1.84-4.752-4.42h12.438v-1.618c0-2.552-1.643-6.486-7.6-6.486ZM7.941 9.44c2.631 0 4.425 1.588 4.425 3.97H3.29c0-2.528 2.341-3.97 4.651-3.97Z"/><path d="M15.654 2.004v17.121c0 .972-.07 2.336-.07 2.336h3.104s.112-.98.112-1.875c0 0 1.533 2.365 5.703 2.365 4.392 0 7.375-3.006 7.375-7.31 0-4.006-2.74-7.228-7.367-7.228-4.334 0-5.68 2.307-5.68 2.307V2.004h-3.177ZM23.71 9.53c2.983 0 4.879 2.182 4.879 5.11 0 3.138-2.19 5.192-4.857 5.192-3.183 0-4.9-2.45-4.9-5.165 0-2.53 1.54-5.137 4.878-5.137Z"/><path d="M39.592 7.371c-6.61 0-7.034 3.567-7.034 4.138h3.29s.173-2.083 3.517-2.083c2.173 0 3.857.98 3.857 2.865v.671h-3.857c-5.12 0-7.828 1.477-7.828 4.473 0 2.95 2.501 4.554 5.882 4.554 4.607 0 6.09-2.51 6.09-2.51 0 .999.079 1.982.079 1.982h2.925s-.114-1.219-.114-1.999v-6.74c0-4.42-3.617-5.35-6.807-5.35Zm3.63 7.604v.895c0 1.167-.73 4.067-5.03 4.067-2.355 0-3.365-1.158-3.365-2.502 0-2.444 3.4-2.46 8.395-2.46Z"/><path d="M44.628 7.93h3.701l5.312 10.49 5.3-10.49h3.353L52.64 26.607h-3.518L51.91 21.4 44.628 7.93Z"/></g><path fill-rule="evenodd" clip-rule="evenodd" d="M319.292 13.761c-.872.108-1.417.36-1.78.718a1.408 1.408 0 0 0-.436 1.005c0 .647.472 1.113 1.054 1.113.363 0 .726-.143.908-.359a.549.549 0 0 0 .145-.359l.109-2.118Zm1.489 3.841c-.726 0-1.38-.466-1.562-1.184-.363.646-1.053 1.184-1.961 1.184-1.017 0-1.889-.79-1.889-1.795 0-1.4 1.344-2.405 3.887-2.44v-.36c.036-1.005-.545-1.615-1.562-1.615-.727 0-1.489.467-1.998 1.077-.036.036-.254-.18-.254-.216.654-1.292 1.852-2.01 3.087-2.01 1.417 0 2.434 1.005 2.397 2.692l-.108 2.8c0 .647.29.934.617.934.363 0 .617-.287.763-.682 0-.036.217.072.217.108 0 .969-.726 1.507-1.634 1.507Zm9.044-.25H327.9c-.036 0-.036-.36 0-.36.799-.108.908-.18.908-1.723v-2.154c0-.97-.581-1.651-1.416-1.651-.581 0-1.126.287-1.381.646-.181.215-.29.61-.29 1.113v2.046c0 1.544.181 1.615.981 1.723 0 0 .036.36 0 .36h-3.705c-.037 0-.037-.36-.037-.36.872-.144.981-.18.981-1.723v-2.62c0-1.58-.182-1.652-1.126-1.796-.073 0-.036-.359 0-.359h2.76v1.58h.037c.617-1.149 1.562-1.831 2.724-1.831 1.308 0 2.325 1.005 2.325 2.657v2.333c0 1.544.145 1.616 1.017 1.723.072 0 .036.36 0 .36-.545.035-1.344.035-1.853.035Zm5.848.25c-2.179 0-3.596-1.687-3.596-3.625 0-2.083 1.417-3.734 3.742-3.734 1.089 0 1.634.359 1.961.359.145 0 .29-.108.363-.287 0-.036.436-.036.436 0V12.9c0 .035-.436.035-.436 0-.581-1.185-1.38-2.19-2.324-2.19-1.163 0-1.853 1.22-1.853 2.908 0 1.794.944 2.98 2.252 2.98.872 0 1.853-.611 2.252-1.293.036-.072.327.072.327.144-.472 1.22-1.707 2.153-3.124 2.153Zm8.826-4.559v-.502c0-1.113-.544-1.76-1.235-1.76-.871 0-1.525.934-1.67 2.262h2.905Zm-2.905.826c0 1.543.871 2.728 2.36 2.728.872 0 1.744-.574 2.216-1.292 0-.036.291.072.291.143-.4 1.221-1.707 2.154-3.16 2.154-2.289 0-3.632-1.651-3.632-3.626 0-1.974 1.416-3.733 3.813-3.733 1.816 0 3.015 1.185 3.124 2.8v.503h-4.94c-.072.072-.072.251-.072.323Zm8.644 3.733c-1.126 0-2.106-.287-2.433-.502-.037-.036-.146-.97-.146-1.903 0-.036.436-.072.436 0 .581 1.257 1.417 1.975 2.325 1.975.763 0 1.307-.395 1.307-1.006 0-.717-.871-1.04-1.743-1.436-1.053-.394-2.252-.933-2.252-2.261 0-1.041.908-2.118 2.615-2.118.727 0 1.199.287 1.526.287.145 0 .29-.108.399-.287 0-.036.436-.036.436 0v2.37c0 .035-.436.035-.436 0-.581-1.078-1.271-1.832-2.106-1.832-.763 0-1.127.503-1.127.898 0 .718.836 1.005 1.708 1.364 1.053.43 2.288.97 2.288 2.333 0 1.15-1.09 2.118-2.797 2.118Zm3.596-6.354c-.109 0-.145-.287-.036-.359.763-.682 2.034-1.83 2.724-2.549.036-.036.291 0 .291.072v2.118h2.469c.073 0 .073.682 0 .682h-2.469v3.985c0 .898.544 1.292 1.126 1.292.435 0 .908-.358 1.126-.79 0-.035.29.108.29.144-.29.97-1.235 1.723-2.288 1.723-1.126 0-2.034-.718-2.034-2.118v-4.2h-1.199Zm11.478 1.15c-.218 0-.763-.647-1.162-.647-.182 0-.4.108-.581.287-.291.287-.545.97-.545 1.544v1.723c0 1.58.254 1.615 1.089 1.723 0 0 .037.359 0 .359h-3.85c-.036 0-.036-.359 0-.359.872-.143.981-.18.981-1.723v-2.62c0-1.545-.181-1.652-1.126-1.796-.073 0-.036-.359 0-.359h2.797v1.795h.072c.073-.215.218-.467.327-.718.509-.826 1.127-1.328 1.78-1.328.618 0 1.126.466 1.126.97.036.573-.726 1.148-.908 1.148Zm7.518.932-2.36 5.996c-.836 2.118-1.599 2.549-2.616 2.549-.581 0-1.235-.288-1.235-.467-.036-.287.364-1.328.582-1.328.072 0 .944.394 1.38.394.617 0 1.017-.394 1.344-1.256l.436-1.149c-.146-.574-1.889-4.344-2.107-4.846-.436-1.006-.727-1.795-1.017-2.083-.182-.18-.363-.25-.872-.323-.036 0-.036-.359 0-.359.472 0 1.453.036 1.998.036.545 0 1.489-.036 1.961-.036.037 0 .037.36 0 .36-1.089.143-.98.502-.399 1.938l1.271 3.051 1.017-2.62c.363-.898.545-1.436.545-1.76 0-.394-.255-.538-1.017-.574-.037 0-.037-.395 0-.395.508 0 1.162.036 1.598.036.327 0 .654-.036 1.271-.036.037 0 .073.395 0 .395-.399.036-.581.143-.799.359-.29.287-.508.861-.981 2.118Z" fill="#F8F8F8"/><path fill-rule="evenodd" clip-rule="evenodd" d="M307.303 10.261c-1.261-1.374-2.522-1.157-2.739-1.12.108.035.217 2.421 1.55 3.687.901.831 2.739.542 2.739.542s-.324-1.771-1.55-3.109Zm1.514 4.664c-.396 0-2.018.144-3.099 1.482-1.118 1.41-1.082 2.53-1.334 2.783.216.073 2.487.29 3.46-1.193a5.829 5.829 0 0 0 .973-3.073Zm-9.875-.977c.252.037 1.117 1.157 2.667 1.302 1.694.18 2.271-.687 2.307-.687 0-.109-1.37-1.59-2.884-1.59-1.045.035-2.09.975-2.09.975Zm6.163.76c-.036.036-1.442 1.915-4.757 1.41-2.667-.434-3.64-1.917-3.821-1.953.217-.289 2.235-1.916 4.577-1.88 2.307.073 4.001 1.374 4.001 1.374h1.477c-1.189-.361-2.63-1.012-3.279-2.458-.577-1.338-.469-2.133-.721-3.254 0 0 2.667-.217 4.721 1.121 1.874 1.23 2.919 4.483 2.956 4.591h1.153l-.252-5.784 1.441.036c-.252 1.519.072 12.364 0 12.364-.144.036-1.369.108-1.477-.181 0 0 .288-5.314.324-5.423h-1.117c0 .073-.109 3.073-2.379 4.664-2.271 1.59-5.55 1.12-5.55 1.12.396-.614 0-1.265 1.153-3.036 1.334-2.025 3.1-2.748 3.064-2.748-.109.037-1.478.037-1.514.037" fill="#fff"/><g clip-path="url(#b)" fill="#fff"><path d="M120.587 6a.962.962 0 0 0-.399.097c.529.083 1.149.138 1.482.513.168.139.115.351-.052.473-.316.293-.859.386-1.324.292-1.574-.29-3.064-.853-4.682-1-.867-.088-1.714.236-2.312.706a1.718 1.718 0 0 0-.643 1.678 1.42 1.42 0 0 0 1.211 1.023c-.381-.323-.454-.883-.059-1.219.224-.216.621-.246.952-.206 1.254.182 2.476.476 3.726.674.701.148 1.393.325 2.109.427.013.666.013 1.332 0 1.998-.462.269-.904.558-1.357.835.441.258.896.498 1.352.74.03.942-.004 1.884.018 2.827-.747.448-1.746.521-2.655.438-.964-.041-1.821-.49-2.452-1.032a92.365 92.365 0 0 1 3.222-1.26c.038-1.486.006-2.972.017-4.459-1.354.442-2.694.908-4.043 1.357.39-.777 1.183-1.406 2.13-1.78-.248.011-.507-.003-.737.08-1.772.545-3.232 1.716-3.781 3.145-.367.907-.249 1.9.15 2.787.494.986 1.408 1.86 2.619 2.359.681.274 1.413.53 2.193.538 1.615.105 3.313-.37 4.403-1.316.475-.398.715-.916.951-1.418.218-.494.317-1.02.295-1.542-.523.807-1.218 1.565-2.167 2.1.006-.938-.002-1.877.002-2.816.413-.245.827-.49 1.226-.748l-1.226-.849c.002-.66-.002-1.322 0-1.981.923-.038 1.985-.417 2.234-1.171.173-.493.264-1.076-.124-1.521-.356-.316-.818-.59-1.36-.667-.301-.02-.618-.112-.919-.101Zm-4.318 4.53c-.004 1.43.01 2.862-.007 4.293-.307.094-.608.197-.91.3a4.641 4.641 0 0 1-1.062-2.114c-.043-.633.108-1.274.39-1.867.534-.198 1.056-.412 1.589-.613ZM222.13 6a.816.816 0 0 0-.431.097c.312.056.642.08.934.194.26.097.432.299.522.507.048.224-.163.432-.416.516-.454.163-.97.088-1.432-.01-1.11-.265-2.19-.607-3.322-.814-.581-.096-1.191-.187-1.779-.067-.637.14-1.283.377-1.659.82-.486.488-.547 1.16-.31 1.733.195.383.59.76 1.148.809-.182-.182-.495-.366-.405-.626.05-.258.187-.52.453-.687.265-.156.628-.154.936-.085 1.128.164 2.23.41 3.345.617.756.124 1.482.344 2.243.454.013.663.003 1.327.006 1.991-.409.282-.818.563-1.222.849.408.245.808.496 1.22.736.006.944-.002 1.89.007 2.835-.716.418-1.658.521-2.527.427-.959-.044-1.798-.494-2.435-1.026.261-.142.559-.233.84-.348.793-.303 1.575-.621 2.373-.914.025-1.487.003-2.975.011-4.463-1.345.447-2.68.914-4.03 1.35a3.53 3.53 0 0 1 1.464-1.44c.199-.142.4-.29.672-.338-.272.014-.554.007-.802.106-1.902.6-3.524 1.907-3.882 3.514a4.094 4.094 0 0 0 .327 2.435c.469.908 1.294 1.714 2.368 2.228.514.244 1.066.44 1.642.576 1.38.179 2.86.024 4.067-.547.797-.433 1.537-.994 1.87-1.722.358-.617.502-1.292.52-1.966-.166.17-.264.371-.405.552a6.002 6.002 0 0 1-1.775 1.558c.009-.942-.01-1.884.011-2.826.409-.23.793-.486 1.205-.715-.38-.307-.81-.571-1.214-.858-.007-.66.01-1.32-.008-1.981.793-.04 1.595-.317 2.021-.86a1.509 1.509 0 0 0 .013-1.876c-.337-.347-.867-.57-1.414-.635-.246-.015-.502-.093-.75-.1Zm-4.353 4.528c.01 1.428 0 2.856.004 4.285-.312.102-.621.21-.933.312-.453-.495-.805-1.053-.986-1.646-.201-.776-.148-1.617.316-2.334.537-.2 1.067-.409 1.599-.617Zm-64.456-4.051c.516.705.193 1.66-.584 2.168-.478.242-1.027.376-1.566.511.012 2.883.002 5.766.004 8.65.038.13-.117.234-.277.182-.314-.012-.397-.27-.531-.445-1.936-2.773-3.851-5.556-5.803-8.323-.038 2.035-.001 4.073-.018 6.109.922.136 1.82.482 2.423 1.053.28-.169.461-.466.82-.534-.091.13-.224.235-.35.343-.698.602-1.394 1.206-2.091 1.809-.323-.318-.754-.619-1.293-.662-.355-.01-.764.003-1.023.221-.297.207-.496.555-.284.85.249.424.874.539 1.401.64-.658.101-1.396.042-1.927-.302-.423-.282-.807-.639-.917-1.075-.148-.6.082-1.268.659-1.694.63-.486 1.554-.667 2.419-.628.023-.887.013-1.774.005-2.662-.42-.052-.993-.005-1.189.337-.114.278.153.511.418.663-.328-.044-.692-.093-.929-.29-.279-.269-.495-.585-.576-.927-.081-.44.068-.94.537-1.223.492-.296 1.146-.337 1.746-.326V9.046c-.218-.254-.427-.546-.8-.678-.244-.079-.563-.107-.774.042-.291.192-.362.498-.477.766-.111-.654-.027-1.396.561-1.91.711-.716 2.214-.743 2.992-.08.336.27.567.602.796.93 1.438 1.995 2.848 4.003 4.302 5.992.008-1.649.013-3.3-.002-4.949-.25-.076-.528-.074-.782-.142-.473-.098-.867-.335-1.217-.592-.219.2-.439.399-.643.607l-.189-.08c.745-.732 1.544-1.43 2.32-2.144.406.334.937.607 1.542.637.631-.057 1.253-.45 1.297-.968Zm48.38 1.597c1.04-.528 2.078-1.061 3.122-1.585.008 3.115-.008 6.23.008 9.346.226.239.533.435.807.645.171-.143.35-.28.527-.419.041.033.124.098.167.13-.833.562-1.64 1.146-2.478 1.702-.528-.422-1.074-.829-1.597-1.253-.235.163-.45.341-.671.514l-.18-.108c.399-.298.827-.57 1.231-.866-.003-2.36.003-4.721-.003-7.082-.01-.441-.299-.97-.933-1.024Zm-77.658.091c.895-.52 1.773-1.058 2.67-1.576.004 1.716-.001 3.433.002 5.15.759-.488 1.523-.97 2.273-1.463.603.486 1.165 1.004 1.786 1.475.262-.147.53-.286.805-.417-.049.272-.467.366-.684.555.003.939 0 1.876.001 2.815.017.701-.113 1.398-.139 2.099a2.587 2.587 0 0 1-1.181 2.036c-.619.43-1.465.586-2.271.638l-.059.06.022-.055c-.278 0-.555-.008-.833-.024.349-.14.743-.23 1.018-.462.315-.275.683-.536.838-.894.254-.547.262-1.137.287-1.71-.007-1.287.007-2.573-.008-3.859-.368-.373-.808-.702-1.198-1.063-.213.178-.469.327-.652.524-.014 1.327-.001 2.655-.006 3.982.221.172.441.345.664.515l.536-.42.158.12c-.866.529-1.724 1.065-2.591 1.592-.549-.38-1.084-.77-1.624-1.157l-.544.317-.155-.127c.416-.208.825-.426 1.236-.64v-7.08c-.008-.18.003-.374-.119-.534-.081-.123-.263-.162-.399-.237-.03-.078.113-.111.167-.16Zm59.693-1.253c-.815.514-1.611 1.044-2.418 1.565-.009-.492.011-.982-.011-1.474-.125-.004-.18.04-.163.132-.004 3.474.002 6.948-.002 10.422a49.88 49.88 0 0 1-1.317-.21c-.007-2.93 0-5.86-.002-8.79a1.426 1.426 0 0 0-.477-1.027c-.39-.36-1-.527-1.588-.559-.698-.015-1.337.27-1.824.638-.448.332-.689.844-.562 1.32.055-.295.179-.627.527-.791.382-.127.891-.025 1.12.255.196.225.216.507.223.77.002.793-.001 1.585 0 2.377-.671.008-1.463.093-1.85.578-.39.379-.511.917-.243 1.363.176.442.765.67 1.313.74-.307-.155-.619-.427-.438-.73.244-.303.798-.348 1.209-.26.017 1.406.009 2.81.005 4.217-.616.167-1.214.457-1.543.91-.239.321-.245.706-.225 1.067.073.634.61 1.212 1.33 1.501.544.199 1.157.205 1.746.189 1.673-.078 3.262-.595 4.938-.638.5-.029.792.4.661.738-.099.304-.427.51-.736.688.588-.097 1.174-.27 1.633-.58.519-.343.757-.895.724-1.413-.039-.513-.57-.895-1.122-1.116-.727-.332-1.605-.258-2.405-.19-1.503.135-2.968.506-4.485.538-.515.027-.996-.257-1.099-.65-.116-.378.279-.71.678-.872.865-.318 1.861-.2 2.763-.053 1.046.085 2.027.418 3.074.502.595.052 1.226-.037 1.714-.318.503-.241.73-.712.743-1.156.006-2.765-.006-5.53.007-8.295.324-.22.681-.416.964-.67-.395.076-.643.365-.966.542-.639-.414-1.264-.84-1.896-1.26Zm-1.773 1.398c.364.243.723.49 1.086.736.001.87-.003 1.742 0 2.612-.173.133-.361.273-.613.297-.411.068-.811-.09-1.12-.288v-3.05c.216-.101.433-.203.647-.307Zm-.647 3.598c.532.21 1.216.275 1.733.002-.002.395-.002.791 0 1.186a1.3 1.3 0 0 0-.78-.285c-.354-.006-.679.124-.953.285v-1.188Zm.949 1.028c.343.007.606.206.784.417-.003 1.102.001 2.206 0 3.308.028.338-.271.627-.598.822-.315.195-.744.202-1.127.186-.021-1.44-.001-2.883-.008-4.323.247-.21.561-.414.949-.41Zm42.667-4.227c.562-.383 1.091-.795 1.664-1.167.486.399.997.778 1.49 1.17-.592.432-1.187.86-1.787 1.285-.453-.431-.919-.853-1.367-1.288Zm-64.819.411c.351-.188.795-.176 1.2-.217-.306.189-.645.407-.687.732-.068.29.167.552.442.726.5.312 1.142.486 1.55.886.196.193.314.437.306.685-.003 1.31.001 2.619-.003 3.928.447.281.896.56 1.343.84l.39-.196c-.006-1.429.01-2.859-.007-4.287-.23-.212-.548-.363-.811-.551.645-.463 1.277-.937 1.935-1.388.572.437 1.173.851 1.76 1.276-.223.184-.452.363-.687.537-.005 1.256 0 2.512-.003 3.769.586.353 1.172.708 1.764 1.056.083-.038.167-.075.253-.112-.009-1.534.001-3.068-.005-4.603-.272-.18-.552-.352-.82-.536.632-.466 1.273-.923 1.909-1.386.634.386 1.268.773 1.898 1.162.218-.188.442-.374.692-.538l.13.144a61.63 61.63 0 0 0-1.598 1.14c-.045 1.224-.001 2.451-.021 3.675-1.372.702-2.805 1.343-4.197 2.026-.734-.41-1.447-.842-2.172-1.26-.65.406-1.301.814-1.955 1.217-.094.081-.19-.037-.267-.07-.612-.384-1.22-.77-1.84-1.144-.26.177-.533.343-.794.52a29.133 29.133 0 0 0-.164-.123c.318-.172.629-.352.947-.524.002-1.186.002-2.371 0-3.558a1.152 1.152 0 0 0-.422-.873c-.306-.259-.718-.44-.961-.744-.27-.352-.294-.789-.191-1.182.151-.445.604-.784 1.086-1.027Zm96.457.847c.062.124.082.263.004.387-.191.34-.713.472-1.157.466-.464-.033-.827-.293-1.139-.539-.526.274-1.053.546-1.578.82-.605.318-1.273.552-1.943.77-.003.671 0 1.34-.002 2.012.489.318.993.622 1.473.948-.368.304-.732.612-1.079.93-.357.335-.694.722-.715 1.172-.021.51.26 1.064.841 1.335.256.117.568.222.866.131-.371-.103-.827-.312-.795-.665.103-.333.612-.556 1.034-.46.437.097.799.34 1.079.614a30.883 30.883 0 0 1 3.54-1.693c-.009-.851.015-1.705-.011-2.555-.543-.297-1.061-.621-1.599-.923.569-.562 1.141-1.155 1.378-1.857.089-.296.118-.67-.197-.893Zm-3.623 1.276c.365.409.848.806 1.51.89.66.12 1.299-.158 1.732-.529-.592.853-1.511 1.538-2.46 2.15-.256-.211-.532-.409-.786-.622.01-.63.002-1.26.004-1.889Zm.93 2.545c.284.187.565.376.849.564.13.06.066.188.085.284-.008.73.011 1.464-.011 2.195a2.303 2.303 0 0 0-.98-.943c-.65-.332-1.545-.35-2.207-.029-.304.131-.547.327-.776.525.328-.5.859-.894 1.358-1.29a41.35 41.35 0 0 0 1.682-1.306ZM136.844 10.28c-.749.337-1.473.705-2.206 1.061-.621.253-1.253.49-1.879.736.003 1.367-.002 2.734.005 4.101-.267.162-.579.278-.821.463l.186.088c.21-.142.417-.285.648-.405.775.502 1.507 1.046 2.281 1.55l.154-.062c1.311-.791 2.634-1.57 3.946-2.361l-.163-.112c-.73.443-1.439.91-2.162 1.36-.597-.42-1.175-.855-1.77-1.275-.203-.116-.09-.335-.104-.498 1.222-.697 2.446-1.395 3.65-2.111-.601-.84-1.183-1.688-1.765-2.535Zm-1.89 1.007c.619.792 1.241 1.581 1.853 2.377-.622.34-1.239.685-1.855 1.032-.006-1.136-.009-2.273.002-3.409Zm22.157-1.01c-.528.272-1.059.539-1.599.794-.789.385-1.645.675-2.472 1.006.003 1.366-.005 2.733.002 4.1-.255.147-.536.265-.784.42l.106.143c.275-.143.546-.291.828-.427.709.529 1.43 1.05 2.145 1.573 1.337-.773 2.649-1.575 3.973-2.362.17-.027.031-.242-.078-.16-.717.434-1.413.89-2.121 1.334-.554-.429-1.105-.86-1.657-1.29-.179-.122-.073-.325-.083-.486 1.177-.68 2.318-1.4 3.497-2.077-.543-.871-1.179-1.71-1.757-2.567Zm-1.755 1.037c.607.77 1.163 1.565 1.723 2.356-.578.33-1.137.68-1.71 1.016-.027-1.123 0-2.248-.013-3.372Zm35.942-1.033c-.579.263-1.15.534-1.712.817-.66.313-1.38.536-2.082.781.016 1.434.005 2.869.006 4.303-.235.182-.472.364-.7.55l.191-.01c.167-.139.34-.274.511-.409.788.503 1.564 1.016 2.347 1.523.129.097.275-.048.401-.083 1.258-.536 2.447-1.168 3.744-1.649.02-1.336.006-2.672.009-4.008.234-.183.471-.364.699-.55l-.184.004c-.218.14-.439.276-.658.414-.858-.56-1.713-1.125-2.572-1.683Zm-1.467.99c.619.454 1.249.9 1.868 1.354-.007 1.423-.005 2.845-.005 4.267-.634-.433-1.237-.893-1.863-1.333v-4.287Z"/><path d="M204.931 13.467a239.033 239.033 0 0 1 2.72-3.181c.396.262.885.424 1.403.466.506 0 .938-.234 1.319-.468-.096.576-.342 1.174-.91 1.574-.495.354-1.245.439-1.869.266a3.78 3.78 0 0 1-1.011-.437c-.054.099-.098.2-.13.305 1.267 1.486 2.512 2.986 3.756 4.485.286-.144.537-.327.789-.504l.197.097c-.896.622-1.82 1.219-2.737 1.82-1.18-1.472-2.334-2.957-3.527-4.423Zm42.866-3.188c-.551.262-1.105.523-1.649.792-.753.408-1.617.662-2.416 1.006.009 1.366 0 2.734.005 4.1-.276.141-.548.286-.824.425l.143.136c.238-.137.452-.3.709-.418.715.518 1.463 1.008 2.188 1.517.069.087.17-.002.241-.037 1.307-.784 2.617-1.564 3.926-2.346-.154-.21-.328-.006-.481.08-.615.389-1.228.778-1.844 1.166-.63-.448-1.239-.912-1.881-1.349a3.3 3.3 0 0 1-.002-.422c1.226-.692 2.438-1.4 3.655-2.103a282.505 282.505 0 0 0-1.77-2.547Zm-1.892 1.031c.663.764 1.246 1.57 1.868 2.357-.631.337-1.244.693-1.872 1.033.01-1.13.001-2.26.004-3.39Zm-48.686-.918c.496.351.913.766 1.373 1.146.501-.374.991-.759 1.474-1.147.352.176.719.422 1.17.351.319-.017.484-.26.754-.36.001.517-.151 1.06-.59 1.461-.503.469-1.453.606-2.126.284-.258-.098-.43-.285-.671-.4.006 1.412.004 2.823.002 4.236a36.5 36.5 0 0 0 1.083.631c.267-.136.472-.388.809-.411-.792.587-1.622 1.146-2.448 1.706-.621-.456-1.255-.9-1.869-1.361-.239.167-.46.35-.688.526a19.24 19.24 0 0 0-.146-.132c.301-.26.637-.495.944-.751-.011-1.209.006-2.417-.008-3.625-.164-.305-.45-.57-.657-.861-.284.13-.49.401-.843.41.802-.577 1.64-1.123 2.437-1.703Zm32.16 1.51c.738-.502 1.46-1.018 2.202-1.517.532.457 1.082.901 1.605 1.365.783-.44 1.536-.915 2.311-1.365.544.454 1.077.915 1.625 1.365.769-.454 1.528-.917 2.302-1.364.529.459 1.074.906 1.609 1.361.328-.162.628-.357.962-.513.025.15-.152.22-.275.303-.178.112-.352.23-.53.341-.015 1.257.003 2.514-.01 3.771.308.25.622.493.942.732.169-.137.342-.271.507-.412l.198.097c-.809.62-1.642 1.222-2.472 1.825-.585-.538-1.199-1.059-1.77-1.606.138-.1.274-.203.407-.307.002-1.084 0-2.168 0-3.252-.442-.384-.882-.77-1.338-1.143-.132.104-.264.208-.394.313-.001 1.356.007 2.712-.004 4.067.219.192.466.364.689.555-.599.413-1.176.847-1.771 1.265a72.525 72.525 0 0 1-1.643-1.386c.154-.147.461-.254.413-.478-.007-1.057.007-2.115-.007-3.172a14.255 14.255 0 0 0-1.217-1.159 28.44 28.44 0 0 1-.381.308c.003 1.313-.01 2.627.006 3.94.182.241.453.44.679.657-.581.476-1.182.939-1.788 1.396-.579-.538-1.178-1.06-1.762-1.595.182-.11.366-.218.549-.329-.005-1.109-.01-2.219.003-3.328-.342-.33-.716-.637-1.075-.955-.255.147-.479.332-.771.436-.014-.103.117-.153.199-.215Z"/><path d="M224.25 11.99c.763-.544 1.552-1.067 2.323-1.605.548.486 1.081.983 1.627 1.47.284-.172.538-.377.851-.52-.023.078-.05.158-.143.202-.235.152-.468.305-.704.452.003 1.26-.007 2.518.005 3.777.309.272.628.537.915.824.24-.114.441-.27.669-.397l.195.08a63.4 63.4 0 0 1-2.346 1.616c-.528-.494-1.069-.98-1.609-1.467-.235.166-.431.368-.688.512l-.146-.107c.229-.17.445-.349.677-.516.018-1.144.001-2.289.009-3.432-.014-.16.052-.348-.108-.475-.282-.274-.542-.561-.843-.822-.224.14-.436.294-.684.408Z"/></g><g clip-path="url(#c)" fill="#fff"><path d="M433.347 24.34h-1.8v-7.115h1.8v7.114ZM447.86 19.264c-.074-.038-.653-.38-1.514-.38-1.164 0-1.971.808-1.971 1.898 0 1.057.772 1.9 1.971 1.9.846 0 1.435-.336 1.514-.378v1.91c-.226.062-.841.252-1.64.252-2.025 0-3.802-1.392-3.802-3.685 0-2.124 1.608-3.682 3.802-3.682.843 0 1.469.205 1.64.255v1.91Zm-18.787 0c-.072-.038-.651-.38-1.512-.38-1.166 0-1.972.808-1.972 1.898 0 1.057.773 1.9 1.972 1.9.846 0 1.435-.336 1.512-.378v1.91c-.223.062-.838.252-1.642.252-2.022 0-3.797-1.392-3.797-3.685 0-2.124 1.607-3.682 3.798-3.682.847 0 1.472.205 1.641.255v1.91Zm24.449-.353c-1.068 0-1.861.838-1.861 1.87 0 1.036.793 1.873 1.861 1.873 1.066 0 1.862-.837 1.862-1.872 0-1.033-.796-1.871-1.862-1.871Zm3.769 1.87c0 2.036-1.576 3.685-3.769 3.685-2.194 0-3.767-1.649-3.767-3.685 0-2.031 1.573-3.682 3.767-3.682 2.193 0 3.769 1.65 3.769 3.683Zm-17.118-1.938c-.027-.009-.785-.218-1.407-.218-.722 0-1.114.241-1.114.583 0 .434.529.585.825.678l.497.158c1.168.37 1.7 1.168 1.7 2.035 0 1.787-1.576 2.388-2.953 2.388-.957 0-1.854-.176-1.942-.195v-1.637c.158.04.913.264 1.699.264.896 0 1.307-.261 1.307-.664 0-.36-.356-.568-.802-.708-.109-.037-.273-.088-.384-.124-1.003-.316-1.838-.904-1.838-2.082 0-1.33.998-2.224 2.657-2.224.877 0 1.701.212 1.755.226v1.519ZM421.725 9.58a.892.892 0 0 0-.894-.888.891.891 0 0 0-.893.887v1.868a.895.895 0 0 0 1.787 0V9.58Zm4.908-2.451a.889.889 0 0 0-.894-.892.892.892 0 0 0-.893.891v4.32a.892.892 0 0 0 1.525.63.889.889 0 0 0 .262-.63v-4.32Zm4.908-3.355a.892.892 0 0 0-.893-.888.893.893 0 0 0-.894.888v9.448a.891.891 0 0 0 .894.87.895.895 0 0 0 .893-.87V3.774Zm4.908 3.355a.892.892 0 0 0-1.525-.63.889.889 0 0 0-.262.63v4.318a.889.889 0 0 0 .894.892.892.892 0 0 0 .893-.891v-4.32Zm4.903 2.45a.888.888 0 0 0-1.518-.628.888.888 0 0 0-.263.628v1.868a.888.888 0 0 0 .891.889.89.89 0 0 0 .89-.889V9.58Zm4.911-2.45a.89.89 0 0 0-1.782 0v4.318a.888.888 0 0 0 .891.889.893.893 0 0 0 .891-.889V7.128Zm4.911-3.355a.888.888 0 0 0-.891-.888.887.887 0 0 0-.89.889v9.447a.885.885 0 0 0 .89.928.896.896 0 0 0 .835-.576.899.899 0 0 0 .056-.352V3.774Zm4.91 3.355c0-.491-.398-.89-.901-.89a.892.892 0 0 0-.891.889v4.32c0 .492.399.89.891.89a.892.892 0 0 0 .901-.89v-4.32Zm4.902 2.45a.89.89 0 0 0-.892-.889.892.892 0 0 0-.892.89v1.867a.891.891 0 0 0 1.783 0V9.58h.001ZM459.955 23.403v.112h-.318v.825h-.131v-.825h-.319v-.112h.768Zm.067 0h.204l.281.769h.005l.272-.768h.201v.936h-.134v-.768h-.005l-.285.768h-.124l-.278-.768h-.006v.768h-.131v-.937Z"/></g><path d="m55.131 71.4-3.8-10.329c-.048-.142-.12-.331-.12-.496 0-.448.387-.873.942-.873.485 0 .8.307.945.755l3.148 8.9 3.171-8.925c.145-.424.435-.73.917-.73h.098c.51 0 .824.306.969.73l3.145 8.925 3.198-8.947c.12-.38.385-.709.895-.709.532 0 .92.4.92.85 0 .165-.074.353-.121.497L65.614 71.4c-.195.54-.58.825-1.017.825h-.073c-.484 0-.848-.284-1.019-.825l-3.12-8.778-3.148 8.778c-.169.54-.533.825-1.016.825h-.051c-.459 0-.844-.284-1.039-.825ZM82.825 60.602a.93.93 0 0 1 .92-.924c.536 0 .947.403.947.925v2.096c.92-2.036 2.962-2.997 4.315-2.997.56 0 .923.402.923.922 0 .498-.337.852-.826.923-2.426.284-4.412 2.06-4.412 5.589v4.15a.913.913 0 0 1-.92.923c-.534 0-.946-.404-.946-.922V60.602ZM95.921 72.324c-3.374 0-6.13-2.555-6.13-6.303v-.049c0-3.49 2.496-6.302 5.893-6.302 3.633 0 5.701 2.926 5.701 6.138a.85.85 0 0 1-.856.846h-8.882c.259 2.622 2.135 4.098 4.323 4.098 1.521 0 2.634-.586 3.539-1.406.142-.116.308-.21.523-.21.45 0 .808.352.808.776 0 .21-.095.421-.287.583-1.163 1.1-2.543 1.83-4.632 1.83Zm3.635-7.006c-.19-2.204-1.474-4.124-3.922-4.124-2.138 0-3.753 1.756-3.988 4.124h7.91ZM69.592 68.53v-.047c0-2.572 2.176-3.942 5.342-3.942 1.596 0 2.732.212 3.846.52v-.426c0-2.193-1.382-3.328-3.724-3.328-1.258 0-1.99.157-2.91.557a.955.955 0 0 1-.336.072c-.435 0-.824-.356-.824-.78 0-.376.169-.61.51-.757 1.23-.521 2.158-.694 3.753-.694 1.763 0 3.117.447 4.034 1.344.848.826 1.283 2.006 1.283 3.565v6.733a.874.874 0 0 1-.897.897c-.53 0-.889-.379-.889-.85V70.23c-.872 1.111-2.323 2.101-4.519 2.101-2.322-.002-4.67-1.298-4.67-3.8Zm9.211-.944v-1.18c-.92-.26-2.154-.52-3.676-.52-2.342 0-3.65.993-3.65 2.526v.046c0 1.534 1.45 2.431 3.144 2.431 2.295 0 4.182-1.37 4.182-3.303ZM21.267 60.468c-.41-.876-1.421-1.273-2.366-.863-.946.41-1.294 1.435-.867 2.311l3.967 8.419c.624 1.32 1.281 2.01 2.515 2.01 1.318 0 1.893-.752 2.516-2.01l3.495-7.432a.5.5 0 0 1 .498-.314.544.544 0 0 1 .548.546v7.193c0 1.108.63 2.018 1.842 2.018 1.21 0 1.865-.91 1.865-2.018V64.44c0-1.135.833-1.872 1.969-1.872 1.136 0 1.891.764 1.891 1.872v5.887c0 1.108.632 2.018 1.842 2.018s1.868-.91 1.868-2.018V64.44c0-1.135.83-1.872 1.966-1.872 1.134 0 1.893.764 1.893 1.872v5.887c0 1.108.631 2.018 1.842 2.018 1.21 0 1.867-.91 1.867-2.018v-6.7c0-2.461-2.028-4.186-4.468-4.186-2.437 0-3.963 1.646-3.963 1.646-.812-1.027-1.93-1.644-3.822-1.644-1.997 0-3.745 1.644-3.745 1.644-.812-1.027-2.194-1.644-3.338-1.644-1.77 0-3.175.76-4.033 2.674l-2.533 5.83-3.25-7.48ZM101.536 61.198v-.01c0-.824.685-1.518 1.545-1.518.873 0 1.548.687 1.548 1.512v.006c0 .826-.683 1.52-1.548 1.52-.872 0-1.545-.684-1.545-1.51Zm2.796-.01v-.004a1.23 1.23 0 0 0-1.251-1.233c-.708 0-1.252.565-1.252 1.237v.008a1.23 1.23 0 0 0 1.252 1.23c.706 0 1.251-.563 1.251-1.238Z" fill="#E0E0E0"/><path d="M102.489 60.59c0-.09.074-.161.167-.161h.516c.194 0 .344.053.437.15.085.08.131.197.131.332v.005c0 .23-.119.37-.299.445l.228.27c.032.041.053.075.053.124 0 .09-.078.148-.156.148a.204.204 0 0 1-.162-.083l-.321-.396h-.263v.318a.16.16 0 0 1-.164.16.162.162 0 0 1-.166-.16V60.59h-.001Zm.664.549c.161 0 .249-.082.249-.207v-.005c0-.136-.095-.21-.255-.21h-.329v.421h.335v.001Z" fill="#E0E0E0"/><path d="M149.216 72.382v5.333h-1.958v-5.333h-1.973v-1.707h5.904v1.707h-1.973Zm6.538 3.221h-3.12a.841.841 0 0 0 .555.803.828.828 0 0 0 .341.045 2.757 2.757 0 0 0 1.371-.373l.709 1.173a4.091 4.091 0 0 1-2.133.608c-1.6 0-2.469-1.13-2.469-2.752 0-1.824 1.029-2.762 2.416-2.762 1.386 0 2.357.96 2.357 2.922-.021.128-.021.24-.027.331v.005Zm-2.4-1.936c-.416 0-.64.283-.704.811h1.51c-.091-.533-.267-.81-.8-.81h-.006Zm5.771 4.176c-1.547 0-2.475-.986-2.475-2.773 0-1.6.822-2.741 2.518-2.741a2.202 2.202 0 0 1 2.032 1.194l-1.248.96c-.251-.458-.427-.682-.816-.682-.39 0-.694.464-.694 1.301s.251 1.27.747 1.27c.341 0 .587-.193.917-.694l1.147.896c-.619.907-1.189 1.264-2.133 1.264l.005.005Zm6.187-.106v-3.003c0-.693-.23-.87-.603-.87s-.619.182-.619.854v3.024h-1.813v-6.613l1.813-.726v2.4a2.05 2.05 0 0 1 1.334-.464c1.157 0 1.706.779 1.706 2.166v3.237l-1.818-.005ZM171.477 77.843c-2.096 0-3.2-1.546-3.2-3.637 0-2.267 1.334-3.637 3.2-3.637 1.734 0 2.416.746 2.902 2.08l-1.771.693c-.256-.656-.496-1.067-1.141-1.067-.816 0-1.174.816-1.174 1.936s.342 1.93 1.19 1.93c.613 0 .874-.33 1.258-.996l1.654.88a3.036 3.036 0 0 1-2.923 1.824l.005-.006Zm7.392-3.413a1.138 1.138 0 0 0-.842-.443c-.443 0-.715.214-.715.854v2.88h-1.813v-5.28h1.813v.384a1.598 1.598 0 0 1 1.984-.272l-.427 1.877Zm4.32 3.296v-.352c-.37.309-.84.473-1.322.464-1.158 0-1.707-.779-1.707-2.17V72.45h1.813v2.987c0 .683.235.864.608.864.374 0 .603-.181.603-.843v-3.008h1.824v5.29l-1.819-.015Zm6.166 0v-3.003c0-.693-.235-.87-.603-.87s-.619.182-.619.854v3.024h-1.813v-5.28h1.813v.352a2.05 2.05 0 0 1 1.334-.464c1.157 0 1.706.779 1.706 2.166v3.237l-1.818-.016Zm5.36.107c-1.547 0-2.48-.987-2.48-2.774 0-1.6.826-2.741 2.517-2.741a2.22 2.22 0 0 1 2.037 1.195l-1.248.944c-.256-.46-.426-.683-.816-.683-.389 0-.693.464-.693 1.301 0 .838.251 1.27.747 1.27.341 0 .586-.192.917-.694l1.147.896c-.614.928-1.19 1.28-2.123 1.28l-.005.006Zm6.186-.107v-3.003c0-.693-.229-.87-.602-.87-.374 0-.614.182-.614.854v3.024h-1.813v-6.613l1.813-.725v2.4a2.022 2.022 0 0 1 1.328-.464c1.163 0 1.707.778 1.707 2.165v3.237l-1.819-.005ZM160.413 54.135v4.232h4.227v8.459h4.232v-8.459h4.227v-4.232h-12.686Zm16.918 8.458v-4.226h-4.233v8.458h12.692v-4.232h-8.459Zm0-8.458h8.459v4.232h-8.459v-4.232ZM327.212 63.024c1.612 0 2.638 1.01 2.638 2.466 0 1.396-1.005 2.463-2.655 2.463-1.506 0-2.62-1.101-2.62-2.43 0-1.488 1.073-2.5 2.637-2.5v.001Zm2.638-1.68v1.258h-.036c-.652-1.015-1.825-1.47-3.07-1.47-2.747 0-4.4 1.924-4.4 4.408 0 2.376 1.766 4.3 4.439 4.3 1.117 0 2.266-.4 2.921-1.221h.03v.613c0 1.66-.664 2.814-2.821 2.814-1.245 0-2.172-.439-3.064-1.212l-1.336 1.717c1.259 1.053 2.767 1.382 4.421 1.382 3.476 0 5.031-1.925 5.031-4.949v-7.64h-2.115Zm-13.329 0h2.231v1.328h.039c.483-.96 1.464-1.54 2.634-1.54.282 0 .539.054.8.125v2.028c-.37-.087-.726-.157-1.078-.157-2.098 0-2.395 1.662-2.395 2.118v4.49h-2.231v-8.393Zm-8.249 3.357c.168-1.208.986-1.994 2.302-1.994 1.393 0 2.249.77 2.267 1.994h-4.569Zm6.8 1.573v-.576c0-2.921-1.692-4.564-4.178-4.564-2.7 0-4.851 1.766-4.851 4.406 0 2.64 2.151 4.405 4.851 4.405 1.407 0 2.729-.472 3.766-1.676l-1.597-1.135c-.557.644-1.283 1.135-2.394 1.135-1.245 0-2.249-.754-2.397-1.995h6.8Zm-12.265-.733c0 1.312-.983 2.517-2.619 2.517-1.636 0-2.622-1.205-2.622-2.518 0-1.31.986-2.52 2.622-2.52s2.619 1.208 2.619 2.52Zm-7.393 4.195h2.119v-1.258h.033c.654 1.01 1.822 1.466 3.069 1.466 2.744 0 4.401-1.923 4.401-4.404 0-2.483-1.766-4.407-4.312-4.407-1.668 0-2.563.732-3.025 1.278h-.056v-5.346h-2.229v12.672-.001Zm-15.625-8.393h2.119v1.313h.033c.391-.788 1.244-1.524 2.732-1.524 1.375 0 2.326.506 2.788 1.556.649-1.064 1.597-1.556 2.931-1.556 2.379 0 3.215 1.593 3.215 3.604v5h-2.229v-4.755c0-1.048-.332-1.957-1.653-1.957-1.393 0-1.914 1.083-1.914 2.165v4.547h-2.226v-5c0-1.034-.447-1.712-1.523-1.712-1.467 0-2.044 1.01-2.044 2.131v4.582h-2.229v-8.394Zm-8.827 4.197c0-1.31.984-2.517 2.619-2.517 1.636 0 2.617 1.206 2.617 2.517s-.981 2.517-2.617 2.517c-1.635 0-2.619-1.205-2.619-2.517Zm-2.228 0c0 2.64 2.154 4.405 4.847 4.405 2.694 0 4.851-1.764 4.851-4.405 0-2.64-2.157-4.407-4.851-4.407-2.696 0-4.847 1.767-4.847 4.407Zm-8.475 0c0-1.31.985-2.517 2.62-2.517 1.635 0 2.616 1.206 2.616 2.517s-.981 2.517-2.616 2.517c-1.635 0-2.62-1.205-2.62-2.517Zm-2.229 0c0 2.64 2.153 4.405 4.849 4.405 2.692 0 4.85-1.764 4.85-4.405 0-2.64-2.157-4.407-4.85-4.407-2.696 0-4.849 1.767-4.849 4.407Zm-3.714-8.475v12.672h2.223V57.065h-2.223Zm-8.907 2.18h1.932c1.766 0 2.544.525 2.544 1.592 0 .928-.778 1.557-2.34 1.557h-2.136v-3.15Zm-2.34 10.492h4.736c2.488 0 4.977-.837 4.977-3.531 0-1.593-1.186-2.815-2.839-2.992v-.037c1.352-.38 2.284-1.308 2.284-2.707 0-2.256-2.045-3.112-4.033-3.112h-5.125v12.379Zm2.34-5.456h2.247c1.894 0 2.788.456 2.788 1.75 0 1.624-1.675 1.818-2.882 1.818h-2.153v-3.568ZM423.402 61.271c.165-.198.297-.364.462-.513 1.237-1.076 2.655-1.242 4.156-.712 1.023.364 1.534 1.192 1.699 2.252.149 1.06-.016 2.086-.247 3.13-.231 1.026-.446 2.053-.693 3.08a1.207 1.207 0 0 0 1.501 1.473c.281-.083.561-.199.825-.315.05-.016.099-.099.099-.149-.066-.612.132-1.175.264-1.755.643-3.03 1.303-6.044 1.963-9.057.264-1.259.527-2.517.825-3.776.115-.496.049-.96-.198-1.424a.47.47 0 0 1-.034-.264c.067-.365.215-.696.479-.96.412-.415.841-.365 1.138.115.544.878.726 1.822.511 2.848-.758 3.51-1.517 7.037-2.276 10.548-.247 1.11-.478 2.218-.709 3.328-.066.314.016.497.313.613.396.182.808.182 1.221.099a6.457 6.457 0 0 0 1.814-.745c.05-.033.099-.133.083-.182-.363-1.259-.264-2.5.016-3.743.413-1.854.825-3.709 1.237-5.596.577-.033 1.155-.1 1.732.016.165.033.215.116.182.298-.446 2.02-.908 4.04-1.337 6.06-.164.779-.214 1.557 0 2.335.165.58.446 1.06 1.089 1.193.677.149 1.27-.034 1.749-.547.478-.513.742-1.159 1.006-1.805.429-1.093.66-2.235.907-3.377.297-1.358.578-2.733.874-4.09 0-.017.017-.05.017-.067.511-.082 1.633-.033 1.93.1l-.198 1.093c-.264 1.308-.511 2.6-.808 3.907-.545 2.45-1.072 4.885-1.65 7.319-.577 2.45-1.979 4.338-4.008 5.779-1.749 1.258-3.728 1.97-5.823 2.384-1.468.282-2.936.381-4.42.298-1.831-.1-3.613-.43-5.279-1.209-.99-.463-1.88-1.076-2.557-1.937-.742-.96-1.055-2.036-.907-3.245.017-.182.099-.265.281-.249.132.017.247.017.362.05.38.133.776.265 1.139.397-.017.265-.05.53-.033.779.066.811.495 1.407 1.105 1.887.792.63 1.732.977 2.689 1.242 1.814.497 3.661.58 5.525.398 1.897-.183 3.728-.646 5.427-1.524 1.583-.811 2.903-1.92 3.81-3.477.446-.762.726-1.573.908-2.418v-.066c-1.65.63-3.135.48-4.322-.927-.495.282-.99.563-1.485.811-.461.232-.956.381-1.468.431-.808.083-1.534-.1-2.177-.58-.115-.082-.198-.082-.313-.016-.594.298-1.205.53-1.864.612-1.254.133-2.689-.563-3.002-2.036-.099-.514-.033-1.01.082-1.507.264-1.176.544-2.351.776-3.543a8.057 8.057 0 0 0 .131-1.54c.017-.696-.363-1.044-1.039-1.126-.841-.083-1.501.232-2.029.877-.577.712-.924 1.54-1.138 2.418-.28 1.142-.511 2.301-.758 3.444l-.644 3.13c-.017.115-.066.165-.198.165h-1.171c-.412 0-.594-.232-.511-.646.099-.53.214-1.043.33-1.573.494-2.417.989-4.818 1.484-7.236.116-.58-.264-1.076-.858-1.159-.363-.05-.709 0-.989.232-.429.348-.858.729-1.27 1.093-.034.033-.05.1-.034.165.413 2.732-.313 5.117-2.177 7.137-.874.944-1.963 1.556-3.266 1.706-1.699.215-3.134-.68-3.761-2.352-.379-1.01-.428-2.07-.263-3.13.296-1.92 1.138-3.592 2.523-4.967.198-.198.429-.38.66-.563.231-.182.479-.165.643.083.132.215.215.464.314.695.033.067.033.133.066.216.396-.894 1.006-1.557 1.963-1.755 1.006-.2 1.764.265 2.424.993.116-.083.231-.182.33-.265.528-.414 1.072-.762 1.716-.96 1.088-.315 2.771.347 3.15 1.656-.066.082-.049.099-.016.198Zm-9.732.911c-.066.05-.099.083-.149.116-1.253 1.225-1.979 2.699-2.128 4.438-.066.678.017 1.357.347 1.986.33.63.907.911 1.616.812.858-.116 1.534-.563 2.128-1.176.973-1.026 1.501-2.268 1.683-3.66.032-.297.032-.595.066-.91-1.881.778-3.415-.149-3.563-1.606Zm2.26.464c.214 0 .758-.348.808-.53.016-.033-.017-.1-.05-.133a4.15 4.15 0 0 0-.478-.463.501.501 0 0 0-.479-.116.588.588 0 0 0-.445.629c.05.348.314.613.644.613ZM375.237 72.017c.132-.546.28-1.06.379-1.606l1.237-6.524c.264-1.407.545-2.831.808-4.239.017-.05.017-.083.017-.149-.346-.116-.676-.215-1.006-.314-.809-.249-1.551-.663-2.26-1.126-.017-.017-.05-.033-.066-.05-.33-.447-.577-.944-.676-1.507-.017-.066.033-.199.099-.215.082-.033.198 0 .264.033.841.53 1.699.977 2.655 1.242.413.116.858.149 1.287.232.165.033.231-.033.297-.182.313-.845.709-1.673 1.204-2.434.594-.895 1.303-1.69 2.243-2.236 1.006-.58 2.112-.496 2.936.199.479.397.743.91.792 1.523.083.96 0 1.904-.511 2.765-.561.944-1.369 1.573-2.376 1.97-.907.349-1.831.53-2.804.448-.148-.017-.198.05-.214.166a1398.069 1398.069 0 0 0-2.095 11.077c-.082.397-.181.778-.28 1.176-.017.066-.033.132-.05.182.726.248 1.419.497 2.128.728 1.484.497 2.969 1.043 4.47 1.49a27.37 27.37 0 0 0 5.872 1.077c1.122.083 2.244.149 3.349.132 2.276-.016 4.486-.447 6.631-1.225.379-.133.429-.116.594.265.065.149.115.315.164.464.116.33-.016.596-.346.712-.792.265-1.583.53-2.392.745a24.717 24.717 0 0 1-7.389.828c-2.194-.083-4.339-.448-6.45-.994-1.996-.53-3.926-1.225-5.872-1.92-.446-.166-.907-.299-1.369-.448-.182.398-.33.762-.528 1.126-.495.977-1.138 1.822-2.128 2.335-1.122.58-2.276.613-3.431.05-1.237-.613-1.666-1.722-1.286-3.047.329-1.126 1.105-1.855 2.144-2.335 1.006-.48 2.095-.563 3.183-.496.281.033.512.05.776.082Zm-.627 1.855c-.38 0-.726-.017-1.056 0-.66.033-1.303.182-1.864.58a1.781 1.781 0 0 0-.693.86c-.131.381-.049.613.33.779.644.281 1.287.248 1.864-.166.71-.497 1.056-1.242 1.419-2.053Zm5.658-16.029c.973-.066 1.781-.364 2.523-.927.644-.48.825-1.159.792-1.904-.016-.414-.363-.63-.759-.464a1.956 1.956 0 0 0-.495.315 6.398 6.398 0 0 0-1.6 2.037c-.148.298-.296.596-.461.943Z" fill="#fff"/><path d="M390.758 69.865c-.561.348-1.088.746-1.666 1.044-1.319.712-2.688.86-4.091.264a3.704 3.704 0 0 1-1.385-1.026c-.116-.133-.182-.133-.33-.05-.841.497-1.699.977-2.606 1.325a.925.925 0 0 1-.198.066c-.495.15-.858-.083-.957-.58-.016-.099-.033-.198-.033-.297-.016-.448.066-.547.479-.696.956-.315 1.83-.828 2.639-1.341-.116-.546-.248-1.043-.297-1.557-.132-1.308.214-2.5.858-3.626.874-1.507 2.078-2.699 3.694-3.394.644-.265 1.304-.398 1.996-.249.924.2 1.683 1.06 1.831 2.054.116.811-.099 1.556-.478 2.268-.544 1.01-1.303 1.855-2.161 2.583-.858.729-1.748 1.408-2.639 2.087-.083.066-.165.115-.264.198.082.083.148.15.231.215.61.464 1.303.514 2.012.381 1.303-.248 2.392-.944 3.365-1.821.264-.232.495-.497.726-.745.148-.166.313-.216.511-.083.396.248.71.596.842 1.06.049.182.066.347-.083.496-.049.05-.066.116-.099.166-.231.447-.115.762.363.927 1.105.365 2.21.298 3.283-.182.131-.066.263-.149.379-.248.412-.364.478-.911.132-1.325-.248-.281-.544-.513-.841-.728-.479-.348-1.007-.63-1.485-.977a6.915 6.915 0 0 1-1.056-.894c-.923-.978-1.006-2.103-.511-3.296.561-1.357 1.617-2.102 3.019-2.367.94-.166 1.88-.15 2.754.314 1.089.58 1.749 1.69 1.633 2.848-.082.762-.495 1.374-1.039 1.888-.033.033-.132.033-.165.016-.379-.182-.775-.364-1.138-.58-.313-.181-.33-.529-.099-.794.083-.083.165-.166.264-.248.363-.348.346-.878-.033-1.21a1.425 1.425 0 0 0-.858-.363c-.594-.067-1.187 0-1.732.298-.561.298-.857.794-.956 1.407a.848.848 0 0 0 .296.795c.33.281.66.546 1.023.778.676.447 1.402.845 2.013 1.408 1.105 1.01 1.385 2.417.742 3.659a2.952 2.952 0 0 1-1.402 1.325c-1.551.745-3.151.827-4.767.314-.825-.265-1.435-.745-1.716-1.507Zm-6.466-2.5c.033-.016.05-.033.066-.033 1.006-.778 2.029-1.556 2.887-2.484.495-.53.973-1.093 1.286-1.771.116-.249.198-.53.231-.795.05-.48-.264-.729-.709-.613-.247.05-.495.133-.709.248-1.468.779-2.474 1.938-3.002 3.527a3.308 3.308 0 0 0-.05 1.921ZM408.161 64.434c-.413-.265-.825-.514-1.221-.779-.214-.132-.264-.347-.132-.563.05-.082.099-.149.165-.231.462-.547.149-1.077-.247-1.308a1.402 1.402 0 0 0-.627-.2c-.478-.049-.94.017-1.402.183-.676.265-1.056.778-1.204 1.49-.066.315.049.58.28.778.281.249.561.48.874.68.611.397 1.237.761 1.831 1.175.545.38 1.023.844 1.32 1.457.594 1.225.198 2.749-.924 3.61-.726.546-1.567.794-2.458.894-.808.083-1.6.05-2.375-.232-.544-.199-1.039-.48-1.418-.944-.495-.596-.66-1.258-.462-2.003.165-.63.462-1.192.924-1.656.131-.116.263-.166.412-.083.511.249.891.646 1.171 1.143.049.099.033.149-.066.215a1.173 1.173 0 0 0-.495.596c-.115.331-.033.563.248.745.297.182.61.265.956.282.66.05 1.303-.017 1.93-.249.149-.05.297-.132.413-.215.577-.414.659-1.11.148-1.59-.313-.298-.676-.53-1.023-.778-.643-.43-1.319-.828-1.946-1.291-.594-.43-1.039-.994-1.204-1.739-.215-.944.049-1.805.544-2.616.627-1.01 1.584-1.54 2.738-1.739.743-.132 1.485-.132 2.211.116 1.303.447 2.111 1.672 1.979 3.014-.066.728-.429 1.308-.94 1.838Z" fill="#fff"/><defs><clipPath id="a"><path fill="#fff" transform="translate(0 2)" d="M0 0h62.294v24.609H0z"/></clipPath><clipPath id="b"><path fill="#fff" transform="translate(112.045 6)" d="M0 0h145v15.903H0z"/></clipPath><clipPath id="c"><path fill="#fff" transform="translate(419.045 2)" d="M0 0h44v25H0z"/></clipPath></defs></svg>