<svg fill="none" xmlns="http://www.w3.org/2000/svg" viewBox="0 0 119 27"><path d="m23.98 8.539-6.53-6.58A7.433 7.433 0 0 0 14.747.318C12.515-.43 10.294.153 8.497 1.96L1.95 8.539a7.496 7.496 0 0 0-1.633 2.718C-.429 13.5.151 15.736 1.95 17.541l6.539 6.579a7.409 7.409 0 0 0 2.699 1.642c.61.208 1.248.315 1.892.318 1.569 0 3.07-.667 4.359-1.96l6.536-6.579a7.496 7.496 0 0 0 1.635-2.718c.743-2.245.163-4.476-1.635-6.285h.005Zm-10.513-4.67c.494.159.95.421 1.337.769l1.932 1.946-3.768 3.788L9.2 6.582l1.943-1.958c.52-.521 1.255-1.075 2.33-.758l-.006.003ZM3.852 12.53c.16-.498.42-.956.767-1.344l1.932-1.944 3.768 3.79-3.77 3.791-1.943-1.957c-.521-.521-1.069-1.26-.756-2.342l.002.006Zm8.61 9.673a3.646 3.646 0 0 1-1.335-.769L9.2 19.513l3.768-3.794 3.768 3.791-1.943 1.957c-.521.522-1.253 1.076-2.33.758v-.021Zm9.621-8.644c-.159.497-.42.955-.764 1.345l-1.932 1.92-3.768-3.791 3.768-3.791 1.942 1.954c.521.522 1.07 1.261.757 2.342" fill="#00ABE4"/><path d="M38.083 22.303h3.375V12.88c0-2.906-1.756-5.051-4.752-5.051-1.459 0-3.022.65-3.835 1.847v-6.99H29.5v19.61h3.372v-7.434c0-1.737.866-3.91 2.89-3.91 1.782 0 2.322 1.003 2.322 2.635v8.716ZM51.71 16.73c0 2.073-1.472 3.205-3.56 3.205-1.044 0-1.982-.672-1.982-1.75 0-1.132.991-1.75 2.01-1.831l3.532-.27v.646Zm2.812 5.791a3.364 3.364 0 0 0 1.66-.376v-2.48c-.141.034-.284.052-.428.055-.562 0-.775-.242-.775-.89v-5.197a7.74 7.74 0 0 0-.404-2.828c-.802-2.103-2.838-2.855-5.219-2.855-3.108 0-5.599 1.4-5.785 4.551h3.241c.08-1.293.989-1.992 2.544-1.992 1.9 0 2.354.887 2.354 2.207v.863l-4.099.288c-2.65.188-4.711 1.723-4.711 4.39 0 2.29 1.713 4.39 5.034 4.39 1.98 0 3.587-.967 4.23-2.1.108 1.052.91 1.966 2.355 1.966l.003.008Zm10.515-11.24c.179 0 .357.012.535.034V8.143c-.145 0-.289-.032-.43-.032-1.636 0-3.296.672-3.937 2.288l-.297-2.1h-2.84v14.007h3.375v-7.057c0-2.264 1.232-3.96 3.586-3.96l.008-.008ZM75.6 22.31h3.349v-9.353c0-2.909-1.743-5.008-4.714-5.008-1.604 0-3.266.672-4.097 2.15l-.24-1.804h-2.804v14.007h3.346v-5.707c0-1.186-.027-2.64.457-3.745.454-1.025 1.232-1.778 2.405-1.778 1.766 0 2.3.998 2.3 2.64l-.002 8.598Zm14.337-8.404h-6.018c-.015-.79.241-1.56.724-2.183a2.859 2.859 0 0 1 2.33-1.075 2.784 2.784 0 0 1 2.115.806c.534.594.83 1.401.857 2.452h-.008Zm3.354 1.508c.053-1.75-.187-3.339-1.205-4.876-1.15-1.75-3.025-2.584-5.078-2.584a6.008 6.008 0 0 0-4.446 1.777c-1.337 1.374-2.007 3.366-2.007 5.603 0 2.29.748 4.255 2.138 5.602a6.07 6.07 0 0 0 4.393 1.724c1.766 0 3.506-.565 4.684-1.966.535-.647 1.099-1.75 1.179-2.586h-3.207c-.112.45-.344.86-.67 1.186-.482.484-1.07.672-2.034.672a2.93 2.93 0 0 1-2.063-.86 3.708 3.708 0 0 1-1.018-2.748h9.307c0-.298.027-.944.027-.944Zm4.495-3.204a1.618 1.618 0 0 1 1.069-1.482 3.457 3.457 0 0 1 1.446-.215 2.678 2.678 0 0 1 1.819.646c.35.35.552.823.562 1.32h3.188a4.366 4.366 0 0 0-1.232-2.882c-1.016-1.108-2.702-1.646-4.362-1.646-1.742 0-3.206.511-4.23 1.4a3.976 3.976 0 0 0-1.419 3.152c0 1.777 1.286 3.339 3.186 3.745 1.231.269 2.624.35 3.856.538.855.134 1.392.672 1.392 1.48 0 1.536-1.713 1.778-2.838 1.778-.965 0-1.58-.188-2.116-.619a2.24 2.24 0 0 1-.706-1.274h-3.153a4.734 4.734 0 0 0 1.448 2.89c1.152 1.105 2.731 1.613 4.5 1.613 1.9 0 3.64-.483 4.765-1.613a4.173 4.173 0 0 0 1.211-3.073c0-2.21-1.604-3.61-3.803-3.96-1.366-.215-1.713-.242-2.972-.403-.748-.107-1.603-.406-1.603-1.4l-.008.005Zm17.741.263h3.178a4.361 4.361 0 0 0-1.232-2.882c-1.018-1.102-2.705-1.64-4.353-1.64-1.74 0-3.207.511-4.231 1.4a4.002 4.002 0 0 0-1.419 3.15c0 1.779 1.286 3.34 3.186 3.747 1.232.269 2.624.35 3.856.538.855.134 1.392.672 1.392 1.48 0 1.536-1.715 1.778-2.838 1.778-.965 0-1.579-.188-2.116-.619a2.241 2.241 0 0 1-.706-1.274h-3.164a4.72 4.72 0 0 0 1.451 2.89c1.149 1.105 2.729 1.613 4.498 1.613 1.9 0 3.639-.483 4.765-1.613a4.169 4.169 0 0 0 1.205-3.073c0-2.21-1.604-3.61-3.803-3.96-1.366-.215-1.713-.242-2.972-.403-.748-.107-1.603-.406-1.603-1.4a1.608 1.608 0 0 1 1.069-1.481 3.456 3.456 0 0 1 1.446-.216 2.683 2.683 0 0 1 1.82.645c.35.35.552.823.563 1.32" fill="#FAFCFF"/></svg>