<svg fill="none" xmlns="http://www.w3.org/2000/svg" viewBox="0 0 26 27"><path d="m23.98 8.539-6.53-6.58A7.433 7.433 0 0 0 14.747.318C12.515-.43 10.294.153 8.497 1.96L1.95 8.539a7.496 7.496 0 0 0-1.633 2.718C-.429 13.5.151 15.736 1.95 17.541l6.539 6.579a7.409 7.409 0 0 0 2.699 1.642c.61.208 1.248.315 1.892.318 1.569 0 3.07-.667 4.359-1.96l6.536-6.579a7.496 7.496 0 0 0 1.635-2.718c.743-2.245.163-4.476-1.635-6.285h.005Zm-10.513-4.67c.494.159.95.421 1.337.769l1.932 1.946-3.768 3.788L9.2 6.582l1.943-1.958c.52-.521 1.255-1.075 2.33-.758l-.006.003ZM3.852 12.53c.16-.498.42-.956.767-1.344l1.932-1.944 3.768 3.79-3.77 3.791-1.943-1.957c-.521-.521-1.069-1.26-.756-2.342l.002.006Zm8.61 9.673a3.646 3.646 0 0 1-1.335-.769L9.2 19.513l3.768-3.794 3.768 3.791-1.943 1.957c-.521.522-1.253 1.076-2.33.758v-.021Zm9.621-8.644c-.159.497-.42.955-.764 1.345l-1.932 1.92-3.768-3.791 3.768-3.791 1.942 1.954c.521.522 1.07 1.261.757 2.342" fill="#00ABE4"/></svg>