<svg fill="none" xmlns="http://www.w3.org/2000/svg" viewBox="0 0 769 292"><g opacity=".6"><path fill-rule="evenodd" clip-rule="evenodd" d="M734.023 105.356c-44.615 26.866-85.145 51.272-94.77 56.172-25.707 13.087-48.263 8.315-61.97 5.415-1.431-.303-2.766-.586-3.998-.825-13.458-2.617-44.091-8.888-66.907-14.509l-.623-.154c-13.322-3.283-20.599-5.076-26.879-5.248-5.964-.164-11.23 1.154-20.41 5.119-6.818 2.944-15.557 6.57-24.887 10.443-13.575 5.634-28.402 11.788-40.385 17.114-5.799 2.577-6.75 5.605-6.714 6.792.03 1.027.935 3.465 5.911 4.782 1.709.453 3.555.937 5.507 1.449 12.387 3.249 29.054 7.62 42.461 12.198 6.59 2.25 12.223 7.23 12.846 14.214.64 7.172-4.239 13.391-12.054 17.567-16.65 8.896-44.549 24.271-64.972 35.525-10.758 5.929-19.441 10.714-23.314 12.807-15.43 8.341-34.103 7.575-48.162 4.227-5.513-1.312-12.837-4.19-20.737-7.426-1.815-.743-3.671-1.511-5.564-2.293-6.525-2.697-13.477-5.57-20.581-8.234-9.157-3.433-18.342-6.43-26.812-8.154-8.549-1.74-15.882-2.078-21.55-.635-1.055.268-4.689 1.571-10.765 3.9-5.896 2.261-13.731 5.345-22.888 8.994-18.311 7.298-41.84 16.827-65.572 26.48a48442.039 48442.039 0 0 0-46.272 18.857c-28.986 11.824-52.4 21.375-58.283 23.628l-3.825-9.987c5.773-2.212 28.924-11.655 57.748-23.413a48000.666 48000.666 0 0 1 46.602-18.992c23.735-9.654 47.294-19.196 65.642-26.508 9.172-3.655 17.058-6.76 23.019-9.045 5.781-2.216 10.14-3.816 11.956-4.279 7.945-2.022 17.126-1.352 26.321.52 9.273 1.888 19.061 5.106 28.434 8.62 7.288 2.732 14.462 5.698 21.01 8.404 1.866.772 3.681 1.522 5.434 2.24 8.071 3.306 14.604 5.834 19.16 6.919 12.794 3.046 28.432 3.346 40.6-3.231 3.708-2.005 12.24-6.706 22.875-12.567 20.494-11.293 48.799-26.89 65.456-35.79 5.983-3.197 6.536-6.126 6.441-7.184-.111-1.249-1.377-3.584-5.649-5.043-13.002-4.439-29.226-8.696-41.653-11.956-1.97-.517-3.845-1.009-5.596-1.473-7.705-2.039-13.644-7.375-13.865-14.803-.216-7.269 5.173-13.378 13.061-16.884 11.977-5.323 27.225-11.654 40.99-17.369 9.29-3.858 17.906-7.435 24.386-10.233 9.774-4.221 16.715-6.217 24.943-5.991 7.457.205 15.785 2.259 27.981 5.267l1.787.441c22.562 5.559 52.995 11.791 66.389 14.396 1.324.257 2.712.547 4.159.849 13.666 2.853 32.716 6.829 54.916-4.472 9.261-4.715 49.652-29.036 94.736-56.184l11.341-6.828c49.235-29.64 101.174-60.822 121.462-71.717L867 26.69c-19.99 10.735-71.616 41.724-121.006 71.457l-11.971 7.209Z" fill="url(#a)"/><path fill-rule="evenodd" clip-rule="evenodd" d="M734.023 105.356c-44.615 26.866-85.145 51.272-94.77 56.172-25.707 13.087-48.263 8.315-61.97 5.415-1.431-.303-2.766-.586-3.998-.825-13.458-2.617-44.091-8.888-66.907-14.509l-.623-.154c-13.322-3.283-20.599-5.076-26.879-5.248-5.964-.164-11.23 1.154-20.41 5.119-6.818 2.944-15.557 6.57-24.887 10.443-13.575 5.634-28.402 11.788-40.385 17.114-5.799 2.577-6.75 5.605-6.714 6.792.03 1.027.935 3.465 5.911 4.782 1.709.453 3.555.937 5.507 1.449 12.387 3.249 29.054 7.62 42.461 12.198 6.59 2.25 12.223 7.23 12.846 14.214.64 7.172-4.239 13.391-12.054 17.567-16.65 8.896-44.549 24.271-64.972 35.525-10.758 5.929-19.441 10.714-23.314 12.807-15.43 8.341-34.103 7.575-48.162 4.227-5.513-1.312-12.837-4.19-20.737-7.426-1.815-.743-3.671-1.511-5.564-2.293-6.525-2.697-13.477-5.57-20.581-8.234-9.157-3.433-18.342-6.43-26.812-8.154-8.549-1.74-15.882-2.078-21.55-.635-1.055.268-4.689 1.571-10.765 3.9-5.896 2.261-13.731 5.345-22.888 8.994-18.311 7.298-41.84 16.827-65.572 26.48a48442.039 48442.039 0 0 0-46.272 18.857c-28.986 11.824-52.4 21.375-58.283 23.628l-3.825-9.987c5.773-2.212 28.924-11.655 57.748-23.413a48000.666 48000.666 0 0 1 46.602-18.992c23.735-9.654 47.294-19.196 65.642-26.508 9.172-3.655 17.058-6.76 23.019-9.045 5.781-2.216 10.14-3.816 11.956-4.279 7.945-2.022 17.126-1.352 26.321.52 9.273 1.888 19.061 5.106 28.434 8.62 7.288 2.732 14.462 5.698 21.01 8.404 1.866.772 3.681 1.522 5.434 2.24 8.071 3.306 14.604 5.834 19.16 6.919 12.794 3.046 28.432 3.346 40.6-3.231 3.708-2.005 12.24-6.706 22.875-12.567 20.494-11.293 48.799-26.89 65.456-35.79 5.983-3.197 6.536-6.126 6.441-7.184-.111-1.249-1.377-3.584-5.649-5.043-13.002-4.439-29.226-8.696-41.653-11.956-1.97-.517-3.845-1.009-5.596-1.473-7.705-2.039-13.644-7.375-13.865-14.803-.216-7.269 5.173-13.378 13.061-16.884 11.977-5.323 27.225-11.654 40.99-17.369 9.29-3.858 17.906-7.435 24.386-10.233 9.774-4.221 16.715-6.217 24.943-5.991 7.457.205 15.785 2.259 27.981 5.267l1.787.441c22.562 5.559 52.995 11.791 66.389 14.396 1.324.257 2.712.547 4.159.849 13.666 2.853 32.716 6.829 54.916-4.472 9.261-4.715 49.652-29.036 94.736-56.184l11.341-6.828c49.235-29.64 101.174-60.822 121.462-71.717L867 26.69c-19.99 10.735-71.616 41.724-121.006 71.457l-11.971 7.209Z" fill="url(#b)"/><path fill-rule="evenodd" clip-rule="evenodd" d="M732.169 88.088c-44.614 26.866-85.144 51.272-94.769 56.172-25.708 13.087-48.264 8.315-61.97 5.415a260.645 260.645 0 0 0-3.999-.825c-13.458-2.616-44.091-8.888-66.906-14.509l-.623-.154c-13.323-3.282-20.6-5.075-26.88-5.248-5.964-.163-11.229 1.155-20.41 5.119-6.817 2.944-15.556 6.571-24.886 10.443-13.575 5.634-28.403 11.788-40.385 17.114-5.8 2.577-6.75 5.606-6.715 6.792.031 1.027.936 3.466 5.911 4.783 7.83 2.072 18.354 5.118 28.826 8.148 6.53 1.89 13.039 3.773 18.862 5.411 6.92 1.947 12.609 7.007 13.194 14.11.591 7.168-4.233 13.544-12.122 17.759-16.649 8.896-44.548 24.27-64.971 35.525-10.758 5.928-19.442 10.713-23.314 12.807-15.431 8.34-34.104 7.574-48.162 4.227-5.513-1.313-12.837-4.19-20.738-7.427-1.814-.743-3.671-1.51-5.563-2.292-6.526-2.698-13.477-5.571-20.582-8.234-9.157-3.434-18.342-6.43-26.812-8.154-8.549-1.741-15.882-2.079-21.549-.636-1.055.269-4.689 1.571-10.766 3.901-5.895 2.26-13.731 5.344-22.888 8.994-18.31 7.297-41.84 16.826-65.572 26.479-15.82 6.435-31.745 12.932-46.271 18.857-28.987 11.824-52.4 21.375-58.284 23.629L0 316.306c5.774-2.211 28.924-11.655 57.748-23.413 14.587-5.95 30.627-12.493 46.603-18.991 23.735-9.655 47.294-19.196 65.642-26.508 9.172-3.655 17.058-6.76 23.019-9.046 5.781-2.216 10.139-3.816 11.956-4.278 7.944-2.023 17.126-1.352 26.32.519 9.274 1.888 19.061 5.106 28.434 8.62 7.288 2.733 14.462 5.698 21.01 8.405 1.866.771 3.682 1.521 5.434 2.239 8.072 3.307 14.605 5.835 19.161 6.92 12.794 3.046 28.431 3.345 40.599-3.232 3.708-2.005 12.24-6.706 22.875-12.566 20.494-11.293 48.799-26.89 65.456-35.79 5.91-3.158 6.604-6.233 6.503-7.447-.105-1.28-1.315-3.535-5.431-4.693-6.011-1.691-12.607-3.6-19.168-5.499-10.353-2.997-20.619-5.968-28.361-8.017-7.704-2.04-13.643-7.375-13.864-14.803-.217-7.269 5.173-13.378 13.061-16.884 11.977-5.323 27.224-11.654 40.99-17.37 9.29-3.857 17.905-7.434 24.385-10.233 9.775-4.22 16.716-6.216 24.944-5.991 7.456.205 15.784 2.259 27.98 5.268l1.787.44c22.562 5.559 52.995 11.792 66.39 14.396 1.324.257 2.711.547 4.159.849 13.666 2.853 32.716 6.83 54.915-4.472 9.261-4.714 49.652-29.036 94.736-56.183l11.342-6.829C787.859 42.077 839.799 10.895 860.087 0l5.06 9.422c-19.99 10.736-71.616 41.724-121.006 71.458l-11.972 7.208Z" fill="url(#c)"/><path d="m599.389 94.861-13.711 27.978c8.055 4.88 19.709 3.155 24.637 0l-10.926-27.978Z" fill="#fff"/><path fill-rule="evenodd" clip-rule="evenodd" d="M586.173 120.317a.266.266 0 0 1 .365.096c.689 1.181 2.103 2.137 3.998 2.823 1.888.684 4.216 1.088 6.677 1.192 4.931.209 10.326-.786 13.726-3.053a.267.267 0 1 1 .297.445c-3.53 2.354-9.055 3.354-14.046 3.142-2.5-.105-4.885-.516-6.836-1.223-1.944-.705-3.497-1.718-4.277-3.057a.266.266 0 0 1 .096-.365Z" fill="#000"/><path fill-rule="evenodd" clip-rule="evenodd" d="M600.511 92.806a.267.267 0 0 1 .098.365c-3.025 5.26-11.931 24.069-14.479 29.589a.267.267 0 1 1-.485-.224c2.544-5.512 11.46-24.345 14.501-29.631a.267.267 0 0 1 .365-.099Z" fill="#000"/><path fill-rule="evenodd" clip-rule="evenodd" d="M598.786 92.8a.266.266 0 0 1 .359.117c.92 1.809 3.396 8.265 5.843 14.699l.878 2.312c2.134 5.618 4.102 10.799 4.834 12.399a.266.266 0 0 1-.132.354.266.266 0 0 1-.354-.132c-.74-1.617-2.715-6.816-4.845-12.425l-.881-2.318c-2.455-6.456-4.917-12.871-5.819-14.647a.267.267 0 0 1 .117-.36ZM596.625 110.543a.268.268 0 0 1-.348.149l-4.048-1.619a.268.268 0 0 1 .199-.497l4.048 1.619a.268.268 0 0 1 .149.348ZM597.027 114.596a.266.266 0 0 1-.351.14l-5.667-2.428a.268.268 0 0 1 .21-.492l5.668 2.429a.268.268 0 0 1 .14.351ZM596.216 118.646a.268.268 0 0 1-.352.138l-6.477-2.834a.268.268 0 0 1 .214-.49l6.477 2.834a.268.268 0 0 1 .138.352Z" fill="#000"/><path fill-rule="evenodd" clip-rule="evenodd" d="M314.85 222.076h-3.664l-3.944-4.865 2.445-2.572v-6.476h-2.445l2.445-8.48h2.717l2.446-2.174v-4.347l5.977-3.261 3.261 2.191v3.787l2.173-3.787 4.515 2.157 1.191 5.434-2.717 2.445v4.347h2.717l-1.191 8.164-3.519-.966-3.169 3.538.958 4.865-5.307 2.211-4.889-.885v-1.326Zm2.837-15.312 3.356-2.238 2.238 1.119-1.492 4.476-2.611 1.864-1.491-.746v-4.475Z" fill="#fff"/><path fill-rule="evenodd" clip-rule="evenodd" d="M307.019 207.813a.268.268 0 0 1 .338-.171c.414.136.827.221 1.276.307 1.331.253 2.665.475 4.003.698a423.2 423.2 0 0 1 1.857.312.267.267 0 1 1-.09.527c-.614-.105-1.23-.208-1.847-.31-1.341-.224-2.686-.448-4.023-.702-.45-.086-.893-.176-1.343-.324a.267.267 0 0 1-.171-.337ZM308.335 199.473a.269.269 0 0 1 .307-.222c.47.076.908.16 1.38.307 1.487.464 2.963.976 4.433 1.485.67.232 1.339.464 2.008.691a.268.268 0 0 1-.172.507c-.676-.23-1.349-.463-2.021-.696-1.466-.508-2.929-1.015-4.407-1.476a8.956 8.956 0 0 0-1.306-.29.267.267 0 0 1-.222-.306ZM314.194 192.862a.267.267 0 0 1 .338-.171c1.553.511 3.145.906 4.744 1.302.664.164 1.329.329 1.992.502a.267.267 0 0 1-.135.518 148.1 148.1 0 0 0-1.964-.496c-1.607-.398-3.231-.8-4.804-1.318a.267.267 0 0 1-.171-.337ZM319.14 189.536a.267.267 0 0 1 .344-.158c1.564.581 3.141 1.13 4.721 1.679l1.061.369a.268.268 0 1 1-.176.505l-1.059-.368c-1.58-.55-3.163-1.1-4.734-1.684a.266.266 0 0 1-.157-.343ZM325.703 192.161a.267.267 0 0 1 .322-.199c1.231.294 2.447.706 3.643 1.112.463.157.924.314 1.381.462a.266.266 0 0 1 .172.336.266.266 0 0 1-.336.172 97.3 97.3 0 0 1-1.412-.471c-1.188-.403-2.367-.803-3.572-1.09a.267.267 0 0 1-.198-.322ZM329.261 206.505a.266.266 0 0 1 .323-.195l1.47.36 1.726.423a.268.268 0 0 1-.128.52c-.575-.143-1.149-.283-1.723-.423l-1.473-.361a.267.267 0 0 1-.195-.324ZM327.149 213.685a.269.269 0 0 1 .321-.201c.817.189 1.633.403 2.443.615.375.098.748.196 1.12.291a.267.267 0 1 1-.132.518c-.379-.096-.757-.195-1.133-.294-.806-.211-1.609-.422-2.418-.608a.269.269 0 0 1-.201-.321ZM324.835 216.675a.269.269 0 0 1 .307.222c.049.306.08.586.087.907.026 1.173.01 2.351-.006 3.522-.007.55-.015 1.098-.018 1.644a.268.268 0 0 1-.534-.003c.003-.555.01-1.108.018-1.66.015-1.166.031-2.327.005-3.491a5.814 5.814 0 0 0-.08-.834.268.268 0 0 1 .221-.307ZM319.732 219.629a.266.266 0 0 1 .287.245c.081 1.035.104 2.086.126 3.129.014.654.027 1.305.056 1.945a.269.269 0 0 1-.256.279.269.269 0 0 1-.279-.256c-.029-.667-.043-1.328-.057-1.985-.021-1.027-.042-2.045-.123-3.07a.268.268 0 0 1 .246-.287ZM317.763 219.515c.109.1.117.269.017.378-.269.294-.534.603-.804.918l-.065.076c-.248.29-.5.585-.759.873-.562.627-1.163 1.235-1.85 1.727a.267.267 0 1 1-.311-.435c.639-.458 1.211-1.033 1.763-1.649.254-.283.503-.573.752-.864l.064-.075c.269-.315.54-.63.816-.932a.267.267 0 0 1 .377-.017ZM315.608 214.226a.266.266 0 0 1-.015.378c-.378.348-.764.686-1.149 1.023-.976.855-1.944 1.702-2.744 2.687a.268.268 0 0 1-.415-.338c.831-1.022 1.852-1.916 2.84-2.781.378-.331.75-.657 1.106-.985a.266.266 0 0 1 .377.016Z" fill="#000"/><path fill-rule="evenodd" clip-rule="evenodd" d="M314.616 208.237a.267.267 0 0 1 .215.311c-.443 2.435-.057 4.876.18 6.37l.045.29a.267.267 0 1 1-.528.082l-.047-.296c-.236-1.489-.636-4.013-.176-6.542a.267.267 0 0 1 .311-.215ZM320.348 198.723a.267.267 0 0 1-.104.363c-2.123 1.179-2.934 2.288-3.517 3.278a.267.267 0 1 1-.461-.271c.624-1.06 1.5-2.242 3.718-3.474a.267.267 0 0 1 .364.104Z" fill="#000"/><path fill-rule="evenodd" clip-rule="evenodd" d="M319.759 193.702a.268.268 0 0 1 .262.273l-.02.9c-.041 1.87-.083 3.739-.101 5.608a.267.267 0 1 1-.535-.005c.019-1.873.06-3.745.101-5.615l.02-.899a.267.267 0 0 1 .273-.262ZM324.274 191.472c.148 0 .268.119.268.267v5.366a.267.267 0 0 1-.535 0v-5.366c0-.148.12-.267.267-.267Z" fill="#000"/><path fill-rule="evenodd" clip-rule="evenodd" d="M323.404 196.623c0-.148.12-.268.268-.268.536 0 1.183.079 1.796.286.611.206 1.208.548 1.613 1.088a.268.268 0 0 1-.428.32c-.318-.424-.807-.716-1.356-.902a5.224 5.224 0 0 0-1.625-.257.267.267 0 0 1-.268-.267Z" fill="#000"/><path fill-rule="evenodd" clip-rule="evenodd" d="M331.82 192.275a.267.267 0 0 1-.003.378l-1.324 1.311c-1.029 1.019-2.059 2.04-3.099 3.048a9.03 9.03 0 0 1-.91.789.267.267 0 1 1-.32-.428c.307-.23.573-.468.858-.745a385.22 385.22 0 0 0 3.092-3.042l1.328-1.314a.268.268 0 0 1 .378.003ZM333.144 198.182a.267.267 0 0 1 .002.378c-.356.359-.714.712-1.071 1.065-.778.768-1.552 1.531-2.284 2.336a1.542 1.542 0 0 0-.268.438.267.267 0 0 1-.489-.216c.089-.203.194-.398.361-.581.742-.816 1.533-1.597 2.317-2.371.355-.349.708-.698 1.054-1.047a.267.267 0 0 1 .378-.002Z" fill="#000"/><path fill-rule="evenodd" clip-rule="evenodd" d="M329.993 193.194a.266.266 0 0 1 .363.103c.304.545.439 1.086.58 1.652l.022.088c.121.484.229.964.335 1.44.183.817.363 1.623.606 2.419.02.065.042.111.064.143.021.028.038.038.053.043a.268.268 0 0 1-.169.508c-.287-.096-.405-.359-.459-.538-.248-.812-.437-1.658-.624-2.49-.106-.472-.21-.94-.324-1.395l-.018-.069c-.145-.581-.264-1.059-.533-1.54a.268.268 0 0 1 .104-.364ZM329.22 201.485a.268.268 0 0 1 .319.203c.486 2.184.648 3.768-.01 5.575a.266.266 0 0 1-.342.16.266.266 0 0 1-.16-.342c.604-1.661.469-3.12-.01-5.277a.268.268 0 0 1 .203-.319ZM331.709 206.728a.266.266 0 0 1 .305.223c.22 1.412-.048 3.039-.45 4.534-.361 1.34-.836 2.6-1.19 3.537l-.122.324a.267.267 0 0 1-.501-.188l.123-.325c.354-.939.82-2.174 1.173-3.487.397-1.473.641-3.012.439-4.313a.267.267 0 0 1 .223-.305ZM327.566 212.652a.267.267 0 0 1 .154.345c-.417 1.082-.806 1.902-1.325 2.638-.521.738-1.163 1.379-2.073 2.116a.267.267 0 1 1-.336-.415c.886-.719 1.489-1.325 1.972-2.009.483-.684.853-1.458 1.263-2.522a.266.266 0 0 1 .345-.153ZM326.063 221.694a.267.267 0 0 1-.141.351c-1.019.437-1.785.756-2.431 1.025-1.224.51-2.018.84-3.294 1.456a3.471 3.471 0 0 1-1.063.335.267.267 0 1 1-.088-.528c.353-.058.58-.124.919-.288 1.289-.623 2.101-.961 3.335-1.475.645-.268 1.406-.585 2.412-1.016a.268.268 0 0 1 .351.14Z" fill="#000"/><path fill-rule="evenodd" clip-rule="evenodd" d="M315.147 223.536a.268.268 0 0 1 .3-.23c.826.109 1.641.301 2.441.488l.265.062c.89.208 1.763.4 2.647.474a.267.267 0 1 1-.044.533c-.927-.078-1.835-.279-2.725-.486l-.263-.062c-.804-.188-1.593-.373-2.391-.479a.266.266 0 0 1-.23-.3Z" fill="#000"/><path fill-rule="evenodd" clip-rule="evenodd" d="M315.193 221.44a.268.268 0 0 1 .303.227l.099.709c.064.468.127.932.202 1.397a.267.267 0 1 1-.528.084c-.076-.47-.141-.945-.205-1.416l-.097-.698a.267.267 0 0 1 .226-.303ZM314.26 200.579a.268.268 0 0 1 .029.377c-.682.795-1.272 2.252-1.662 3.839-.387 1.58-.562 3.236-.445 4.401a.267.267 0 1 1-.532.053c-.125-1.246.062-2.967.458-4.582.395-1.608 1.01-3.166 1.775-4.059a.268.268 0 0 1 .377-.029ZM310.355 199.341c.13.071.177.233.107.363-1.433 2.627-2.446 5.689-2.379 8.608a.267.267 0 1 1-.535.012c-.069-3.042.983-6.198 2.444-8.876a.268.268 0 0 1 .363-.107ZM314.941 198.124c.103.106.1.276-.006.378l-.588.574c-.637.624-1.28 1.254-1.954 1.847a.268.268 0 0 1-.353-.402c.662-.583 1.291-1.199 1.926-1.82.198-.194.396-.389.597-.583a.268.268 0 0 1 .378.006Z" fill="#000"/><path fill-rule="evenodd" clip-rule="evenodd" d="M314.87 192.859c.148 0 .267.12.267.268 0 .92-.034 1.843-.069 2.76-.016.424-.032.847-.045 1.267l-.001.038c-.007.228-.01.338.041.493a.267.267 0 1 1-.507.169c-.082-.248-.076-.448-.069-.66l.002-.056c.013-.43.029-.857.045-1.284.034-.911.069-1.817.069-2.727 0-.148.119-.268.267-.268Z" fill="#000"/><path fill-rule="evenodd" clip-rule="evenodd" d="M313.83 197.992a.268.268 0 0 1 .334-.178 47.6 47.6 0 0 0 2.822.75c.88.216 1.73.428 2.616.724a.267.267 0 1 1-.169.507c-.863-.288-1.694-.495-2.574-.711a8.095 8.095 0 0 0-.149-.037c-.835-.205-1.717-.421-2.702-.721a.268.268 0 0 1-.178-.334ZM327.073 191.273a.269.269 0 0 1 .078.37l-.939 1.435c-.595.906-1.188 1.811-1.773 2.723a.267.267 0 1 1-.45-.288c.586-.914 1.182-1.824 1.778-2.732.312-.477.625-.953.936-1.43a.267.267 0 0 1 .37-.078ZM320.956 189.627a.268.268 0 0 1-.116.36c-.743.38-1.491.748-2.238 1.117-1.544.76-3.085 1.519-4.563 2.373a.267.267 0 0 1-.268-.463c1.493-.862 3.062-1.635 4.615-2.4.744-.367 1.484-.731 2.21-1.103a.268.268 0 0 1 .36.116ZM326.612 190.513a.268.268 0 0 1-.088.368c-1.054.649-2.139 1.247-3.217 1.841l-.692.382c-.293.163-.588.332-.886.502-.859.492-1.741.996-2.654 1.392a.267.267 0 1 1-.213-.49c.884-.383 1.728-.866 2.579-1.353a67.6 67.6 0 0 1 .915-.518l.697-.385c1.077-.594 2.149-1.185 3.191-1.827a.268.268 0 0 1 .368.088ZM310.59 208.774c.147 0 .267.12.267.268 0 .804.059 1.608.12 2.422v.006c.06.81.121 1.631.121 2.455a.268.268 0 1 1-.535 0c0-.803-.059-1.606-.119-2.421l-.001-.004c-.06-.81-.121-1.632-.121-2.458 0-.148.12-.268.268-.268Z" fill="#000"/><path fill-rule="evenodd" clip-rule="evenodd" d="M310.018 213.755a.267.267 0 0 1 .324-.194c1.116.279 2.135.508 3.376.787.623.14 1.303.293 2.079.472a.267.267 0 1 1-.12.521c-.77-.177-1.447-.329-2.069-.469-1.245-.281-2.274-.512-3.396-.792a.268.268 0 0 1-.194-.325Z" fill="#000"/><path fill-rule="evenodd" clip-rule="evenodd" d="M311.195 213.43a.267.267 0 0 1 .01.378c-.858.905-1.719 1.81-2.588 2.708l-.221.233c-.309.327-.637.675-1.029.952a.268.268 0 1 1-.308-.437c.343-.243.625-.541.93-.864l.244-.256c.867-.895 1.726-1.799 2.584-2.704a.267.267 0 0 1 .378-.01Z" fill="#000"/><path fill-rule="evenodd" clip-rule="evenodd" d="M306.707 217.322a.267.267 0 0 1 .305-.224 55.137 55.137 0 0 1 2.78.508c.879.176 1.829.366 3.049.57a.267.267 0 1 1-.088.527 89.558 89.558 0 0 1-3.141-.588c-.899-.18-1.72-.343-2.68-.488a.269.269 0 0 1-.225-.305ZM316.841 219.347a.267.267 0 0 1 .325-.193c1.264.321 2.547.407 3.867.474a.267.267 0 0 1-.027.534c-1.32-.067-2.65-.155-3.971-.49a.268.268 0 0 1-.194-.325Z" fill="#000"/><path fill-rule="evenodd" clip-rule="evenodd" d="M311.396 217.749a.268.268 0 0 1 .374.058c.676.93 1.297 1.904 1.912 2.869.285.447.568.891.855 1.329.069.105.131.205.193.304.084.136.167.27.265.413.16.232.327.433.517.575a.268.268 0 1 1-.321.428c-.258-.193-.463-.449-.636-.7-.1-.144-.201-.307-.295-.458a19.84 19.84 0 0 0-.17-.269c-.296-.45-.583-.902-.87-1.352-.61-.958-1.216-1.908-1.883-2.824a.267.267 0 0 1 .059-.373ZM306.919 217.219a.268.268 0 0 1 .377.029 167.656 167.656 0 0 1 3.211 3.904c.311.386.61.757.893 1.105a.268.268 0 0 1-.415.337c-.286-.351-.586-.724-.898-1.111a166.368 166.368 0 0 0-3.197-3.887.266.266 0 0 1 .029-.377Z" fill="#000"/><path fill-rule="evenodd" clip-rule="evenodd" d="M309.96 222.059a.267.267 0 0 1 .272-.262c.855.016 1.685.233 2.481.453l.169.047c.746.206 1.463.405 2.191.465a.267.267 0 1 1-.045.533c-.78-.065-1.544-.277-2.279-.48l-.178-.05c-.8-.221-1.57-.418-2.349-.433a.268.268 0 0 1-.262-.273ZM317.002 210.698a.268.268 0 0 1 .372-.067l.924.639c1.676 1.16 2.918 2.019 4.159 3.053a.267.267 0 0 1-.342.411c-1.221-1.018-2.441-1.862-4.118-3.021l-.928-.643a.268.268 0 0 1-.067-.372Z" fill="#000"/><path fill-rule="evenodd" clip-rule="evenodd" d="M318.456 205.099a.268.268 0 0 1 .236.296 185.47 185.47 0 0 0-.287 2.895c-.146 1.541-.292 3.089-.437 4.107a.267.267 0 0 1-.53-.076c.144-1.009.288-2.528.432-4.055.096-1.024.193-2.051.291-2.93a.267.267 0 0 1 .295-.237Z" fill="#000"/><path fill-rule="evenodd" clip-rule="evenodd" d="M322.979 202.789a.267.267 0 0 1-.047.375c-.424.33-1.314.963-2.255 1.631l-.415.295c-1.093.777-2.169 1.548-2.629 1.928a.268.268 0 0 1-.341-.413c.479-.395 1.576-1.18 2.66-1.951l.415-.295c.944-.67 1.823-1.295 2.237-1.617a.266.266 0 0 1 .375.047Z" fill="#000"/><path fill-rule="evenodd" clip-rule="evenodd" d="M320.974 202.691a.267.267 0 0 1 .368-.085c1.082.68 2.256 1.22 3.438 1.763a78 78 0 0 1 1.44.675c.138.067.289.131.452.201l.258.111c.254.111.521.238.749.389a.267.267 0 1 1-.297.445 4.445 4.445 0 0 0-.667-.344 18.71 18.71 0 0 0-.237-.102c-.17-.073-.342-.146-.491-.219a73.34 73.34 0 0 0-1.398-.654c-1.195-.55-2.418-1.113-3.531-1.812a.266.266 0 0 1-.084-.368ZM326.133 211.018a.267.267 0 0 1-.097.365c-.241.141-.736.44-1.334.802-1.377.834-3.307 2.002-3.986 2.341a.268.268 0 1 1-.239-.478c.659-.329 2.526-1.46 3.897-2.29.617-.373 1.133-.686 1.394-.837a.267.267 0 0 1 .365.097Z" fill="#000"/><path fill-rule="evenodd" clip-rule="evenodd" d="M326.443 204.864a.268.268 0 0 1 .203.319c-.239 1.077-.419 2.155-.6 3.241v.004c-.181 1.083-.363 2.174-.605 3.266a.268.268 0 0 1-.522-.116c.239-1.077.419-2.155.6-3.241v-.004c.181-1.083.363-2.174.605-3.266a.268.268 0 0 1 .319-.203ZM323.245 204.741a.268.268 0 0 1 .207.317l-.117.558c-.145.69-.29 1.383-.447 2.072l-.19.822c-.12.517-.24 1.033-.352 1.551l-.01.046a.646.646 0 0 0-.024.171.268.268 0 1 1-.535 0c0-.119.016-.192.037-.287l.01-.042c.112-.523.234-1.046.355-1.567l.188-.813c.156-.684.299-1.371.444-2.06l.118-.561a.267.267 0 0 1 .316-.207Z" fill="#000"/><path fill-rule="evenodd" clip-rule="evenodd" d="M322.549 210.208a.266.266 0 0 1-.104.363c-.448.25-.922.464-1.382.672l-.427.195c-.144.066-.289.135-.435.204-.467.22-.947.447-1.438.634a.268.268 0 0 1-.19-.5c.469-.179.923-.393 1.386-.611.149-.071.3-.142.452-.212.15-.07.299-.137.447-.204.455-.206.9-.408 1.328-.645a.267.267 0 0 1 .363.104ZM320.841 204.28a.268.268 0 0 1 .359-.12l.001.001c.961.48 1.436.718 2.631 1.196a.267.267 0 1 1-.199.496c-1.215-.486-1.705-.731-2.673-1.215a.266.266 0 0 1-.119-.358Z" fill="#000"/><path fill-rule="evenodd" clip-rule="evenodd" d="M327.616 205.341a.267.267 0 0 1-.242.29 56.997 56.997 0 0 1-4.607.212.267.267 0 1 1 0-.534c1.439 0 3.302-.095 4.558-.21a.268.268 0 0 1 .291.242ZM321.241 210.065a.267.267 0 0 1 .322-.198l.817.196a99.42 99.42 0 0 0 2.259.527c.598.135 1.18.267 1.772.326a.267.267 0 0 1-.053.532c-.628-.063-1.246-.202-1.844-.337-.109-.025-.217-.05-.324-.073-.65-.144-1.297-.3-1.941-.456l-.81-.195a.267.267 0 0 1-.198-.322ZM326.045 208.555a.267.267 0 0 1-.317.205c-1.114-.24-2.221-.48-3.328-.724a.267.267 0 1 1 .116-.522c1.105.244 2.211.484 3.324.723a.267.267 0 0 1 .205.318Zm-1.626-4.554a.267.267 0 0 1-.145.349c-.798.329-1.478.593-1.989.782a.267.267 0 1 1-.186-.501 60.66 60.66 0 0 0 1.971-.775.268.268 0 0 1 .349.145ZM323.378 212.865a.267.267 0 0 1-.354.133l-3.198-1.454a.268.268 0 0 1 .222-.487l3.198 1.454c.134.061.194.22.132.354ZM319.896 221.987a.268.268 0 0 1-.306.222l-3.476-.564a.267.267 0 1 1 .086-.528l3.475.564a.266.266 0 0 1 .221.306Zm-6.834-1.412a.268.268 0 0 1-.299.231l-3.618-.464a.268.268 0 0 1 .068-.53l3.618.464c.146.018.25.152.231.299ZM329.172 195.633a.266.266 0 0 1-.326.191 32.154 32.154 0 0 1-1.879-.558l-.208-.067c-.481-.156-.938-.305-1.433-.441a.267.267 0 0 1 .143-.516c.507.14.975.292 1.456.448l.207.067c.556.18 1.143.365 1.849.55a.266.266 0 0 1 .191.326ZM313.479 216.394a.267.267 0 0 1-.316.207 94.649 94.649 0 0 1-2.053-.454c-.562-.129-1.117-.256-1.728-.386a.267.267 0 1 1 .111-.523c.615.131 1.175.259 1.736.387l.129.03c.606.138 1.219.278 1.914.423.145.03.237.172.207.316Zm.869-4.592a.267.267 0 0 1-.318.204l-3.135-.678a.267.267 0 1 1 .113-.522l3.135.678a.268.268 0 0 1 .205.318ZM312.481 205.979a.267.267 0 0 1-.316.207l-4.403-.923a.267.267 0 0 1 .109-.523l4.403.923c.145.03.237.172.207.316Zm.415-2.646a.266.266 0 0 1-.318.203l-3.618-.793a.268.268 0 0 1 .115-.523l3.617.794a.267.267 0 0 1 .204.319ZM319.811 196.867a.267.267 0 0 1-.316.208l-5.072-1.053a.267.267 0 1 1 .108-.523l5.073 1.052c.144.03.237.172.207.316Zm-2.564 4.027a.268.268 0 0 1-.344.157l-3.36-1.26a.268.268 0 0 1 .188-.501l3.36 1.26a.267.267 0 0 1 .156.344ZM322.714 193.091a.267.267 0 0 1-.33.182c-.768-.219-1.36-.395-1.846-.543l-3.105-.914a.268.268 0 0 1 .14-.516c.877.219 1.414.388 2.161.621.287.09.605.189.984.305l1.815.534a.267.267 0 0 1 .181.331ZM140.802 209.761a.267.267 0 0 1 .328-.188c2.75.753 5.554 1.688 8.457 2.665l.535.18c2.74.923 5.571 1.877 8.541 2.751a.267.267 0 1 1-.15.513c-2.981-.877-5.822-1.834-8.559-2.756l-.537-.181c-2.905-.978-5.695-1.908-8.428-2.656a.267.267 0 0 1-.187-.328Z" fill="#000"/><path d="m156.385 235.047-18.13 7.629-15.996-5.037v-20.303l16.814 4.428 17.312-7.086v20.369Z" fill="#fff"/><path fill-rule="evenodd" clip-rule="evenodd" d="M122.258 216.026c.148 0 .268.12.268.268v21.777a.268.268 0 0 1-.535 0v-21.777c0-.148.12-.268.267-.268ZM156.385 214.036c.148 0 .267.12.267.268v20.978a.266.266 0 0 1-.267.267.266.266 0 0 1-.267-.267v-20.978c0-.148.119-.268.267-.268Zm-17.279 6.057c.148 0 .267.12.267.267v22.698a.267.267 0 1 1-.534 0V220.36c0-.147.119-.267.267-.267Z" fill="#000"/><path fill-rule="evenodd" clip-rule="evenodd" d="M121.569 238a.268.268 0 0 1 .329-.187c3.025.827 6.257 1.661 9.637 2.533 2.748.708 5.594 1.442 8.504 2.218a.268.268 0 1 1-.138.517c-2.899-.773-5.742-1.507-8.491-2.216-3.387-.873-6.629-1.709-9.653-2.537a.267.267 0 0 1-.188-.328ZM122.433 217.258a.268.268 0 0 1 .328-.188c3.025.828 6.258 1.662 9.638 2.533 2.748.709 5.593 1.443 8.503 2.219a.267.267 0 1 1-.137.516c-2.899-.773-5.743-1.506-8.492-2.215-3.386-.873-6.629-1.709-9.653-2.537a.266.266 0 0 1-.187-.328Z" fill="#000"/><path fill-rule="evenodd" clip-rule="evenodd" d="M158.796 234.521a.269.269 0 0 1-.158.344c-3.908 1.448-17.64 7.008-21.489 8.619a.266.266 0 0 1-.349-.144.266.266 0 0 1 .143-.349c3.85-1.611 17.59-7.175 21.509-8.628a.269.269 0 0 1 .344.158ZM157.347 214.211a.268.268 0 0 1-.158.344c-2.649.982-8.491 3.509-13.182 5.538-2.227.963-4.195 1.815-5.438 2.335a.267.267 0 1 1-.207-.493c1.23-.515 3.185-1.361 5.404-2.32 4.698-2.032 10.575-4.575 13.238-5.562a.267.267 0 0 1 .343.158ZM142.43 209.363a.269.269 0 0 1-.158.344c-3.335 1.236-12.764 5.195-17.85 7.331l-2.18.915a.268.268 0 0 1-.206-.494l2.174-.912c5.082-2.134 14.529-6.101 17.876-7.342a.269.269 0 0 1 .344.158ZM149.222 211.965a.267.267 0 0 1-.146.349c-2.59 1.059-6.536 2.793-10.175 4.391-2.782 1.222-5.383 2.365-7.061 3.067a.267.267 0 1 1-.207-.493c1.653-.692 4.247-1.831 7.027-3.052 3.655-1.605 7.631-3.352 10.214-4.408a.266.266 0 0 1 .348.146Z" fill="#000"/><path fill-rule="evenodd" clip-rule="evenodd" d="M146.35 218.63a.317.317 0 0 1 .177.361c-.938 3.625-2.105 7.695-3.259 11.72l-.038.134-.04.137-3.117 11.201a.224.224 0 0 1-.314.15.32.32 0 0 1-.177-.362c.877-3.387 1.991-7.275 3.119-11.208l3.335-11.984a.223.223 0 0 1 .314-.149Zm-3.843 1.733a.318.318 0 0 1 .163.367l-3.142 10.331a.225.225 0 0 1-.316.142.32.32 0 0 1-.174-.361c.515-1.989 1.303-4.577 1.96-6.665.329-1.045.626-1.965.84-2.625l.254-.776.069-.209.024-.073.242.121-.242-.121a.225.225 0 0 1 .322-.131ZM155.05 214.426a.319.319 0 0 1 .181.361l-.001.002-3.055 12.312c-.956 3.935-1.902 7.824-2.848 11.475a.224.224 0 0 1-.312.155.317.317 0 0 1-.181-.36v-.003l2.847-11.468.034-.143.035-.142c.98-4.033 1.972-8.113 2.988-12.033a.224.224 0 0 1 .312-.156Zm-4.318 2.067c.136.058.215.22.178.362-.987 3.812-2.086 7.82-3.173 11.779l-.041.15-.042.151-3.015 11.186v.002a.224.224 0 0 1-.314.152.318.318 0 0 1-.178-.362c.914-3.53 1.958-7.337 3.016-11.192l3.255-12.074v-.002a.224.224 0 0 1 .314-.152Zm5.821 8.592a.32.32 0 0 1 .174.366l-3.06 11.067a.224.224 0 0 1-.317.148.319.319 0 0 1-.174-.365l3.061-11.067a.224.224 0 0 1 .316-.149Z" fill="#000"/><path fill-rule="evenodd" clip-rule="evenodd" d="M550.643 235.463c3.765 0 4.762-2.452 1.337-4.581l-31.875-8.86c.673-4.786-8.737-19.63-23.133-11.634-.348.193-4.016 4.284-4.386 5.951-1.629 7.327 4.105 13.664 10.395 15.105 3.589.823 6.431 1.421 11.366-.523l5.085-3.739c6.121.795 14.109 3.344 20.571 5.407 4.952 1.58 9.007 2.874 10.64 2.874Zm-36.44-12.007c-1.43-7.494-10.47-10.927-15.848-7.894-.915 1.601 1.087 5.377 5.779 8.638 3.493 1.586 7.952.916 10.069-.744Z" fill="#fff"/><path fill-rule="evenodd" clip-rule="evenodd" d="M493.847 214.769c.126.076.167.24.091.367-1.354 2.249-1.6 4.302-1.176 6.134.427 1.841 1.536 3.486 2.937 4.895 2.809 2.823 6.73 4.636 8.389 5.122 1.396.408 4.237.638 6.993-.02 2.751-.657 5.361-2.182 6.41-5.233a.268.268 0 0 1 .506.174c-1.131 3.29-3.944 4.899-6.792 5.579-2.844.679-5.779.449-7.268.013-1.728-.506-5.733-2.359-8.617-5.258-1.444-1.451-2.622-3.181-3.079-5.151-.458-1.979-.181-4.173 1.239-6.531a.267.267 0 0 1 .367-.091Z" fill="#000"/><path fill-rule="evenodd" clip-rule="evenodd" d="M497.567 216.198a.267.267 0 0 1-.005.378c-.89.867-1.383 1.778-1.567 2.689-.185.912-.065 1.844.3 2.756.734 1.832 2.453 3.569 4.608 4.831 2.151 1.26 4.703 2.028 7.067 1.954 2.357-.074 4.513-.981 5.928-3.061a.267.267 0 1 1 .442.301c-1.531 2.25-3.864 3.217-6.353 3.295-2.483.077-5.134-.727-7.355-2.028-2.217-1.299-4.041-3.115-4.833-5.093-.398-.993-.537-2.031-.329-3.061.209-1.031.763-2.036 1.719-2.966a.267.267 0 0 1 .378.005Z" fill="#000"/><path fill-rule="evenodd" clip-rule="evenodd" d="M501.956 212.024c-3.288-.072-6.473.884-8.331 3.758a.268.268 0 0 1-.449-.291c1.998-3.091 5.407-4.075 8.791-4.002 3.384.074 6.801 1.202 8.92 2.408a14.616 14.616 0 0 1 6.283 7.127c.526 1.288.811 2.543.872 3.633.06 1.084-.099 2.033-.491 2.686a.267.267 0 1 1-.458-.275c.314-.524.472-1.351.415-2.381-.057-1.024-.326-2.22-.833-3.46a14.077 14.077 0 0 0-6.053-6.865c-2.047-1.166-5.378-2.267-8.666-2.338Z" fill="#000"/><path fill-rule="evenodd" clip-rule="evenodd" d="M502.071 208.978c-3.35.531-6.687 2.486-8.667 7.066a.267.267 0 1 1-.49-.212c2.057-4.76 5.555-6.824 9.073-7.383 3.5-.555 7.011.379 9.14 1.592 3.163 1.802 5.332 3.717 6.709 5.793 1.38 2.079 1.954 4.303 1.954 6.7a.267.267 0 1 1-.534 0c0-2.305-.551-4.423-1.865-6.405-1.318-1.985-3.413-3.849-6.528-5.623-2.036-1.16-5.425-2.063-8.792-1.528ZM519.087 226.886c.117.089.14.257.051.375-1.748 2.293-4.054 4.209-8.519 4.862a.267.267 0 1 1-.078-.529c4.308-.63 6.495-2.459 8.171-4.658a.268.268 0 0 1 .375-.05Z" fill="#000"/><path fill-rule="evenodd" clip-rule="evenodd" d="M498.187 215.616a.268.268 0 0 1 .138.352c-.139.317-.173.755-.083 1.29.089.533.298 1.141.62 1.781.643 1.28 1.725 2.66 3.145 3.782 2.832 2.236 6.987 3.431 11.695.764a.268.268 0 0 1 .263.466c-4.931 2.793-9.32 1.534-12.289-.811-1.48-1.169-2.613-2.61-3.292-3.961-.34-.676-.569-1.335-.67-1.932-.099-.594-.074-1.147.121-1.593a.268.268 0 0 1 .352-.138Z" fill="#000"/><path fill-rule="evenodd" clip-rule="evenodd" d="M500.688 215.13c-1.953.408-3.486 1.557-5.214 3.137a.268.268 0 0 1-.378-.017.268.268 0 0 1 .017-.378c1.74-1.59 3.364-2.827 5.466-3.265 2.103-.439 4.64-.072 8.194 1.433.924.391 2.677 1.486 3.963 3.373 1.294 1.899 2.108 4.591 1.145 8.139a.267.267 0 1 1-.516-.14c.919-3.388.141-5.92-1.071-7.697-1.219-1.79-2.884-2.825-3.729-3.183-3.507-1.484-5.925-1.809-7.877-1.402ZM551.9 231.215a.267.267 0 0 1 .351-.14c.849.365 1.418.894 1.71 1.487.292.595.295 1.238.039 1.8-.515 1.13-2.011 1.825-4.055 1.337a.267.267 0 0 1 .124-.52c1.892.451 3.072-.221 3.445-1.039a1.545 1.545 0 0 0-.033-1.342c-.224-.456-.683-.906-1.441-1.232a.267.267 0 0 1-.14-.351Z" fill="#000"/><path fill-rule="evenodd" clip-rule="evenodd" d="M519.601 222.456a.266.266 0 0 1 .334-.176c7.417 2.292 14.438 4.138 21.147 5.902 4.129 1.086 8.139 2.14 12.05 3.248a.267.267 0 0 1-.146.515c-3.89-1.103-7.893-2.155-12.019-3.24-6.719-1.767-13.767-3.621-21.19-5.914a.268.268 0 0 1-.176-.335ZM518.622 226.998a.268.268 0 0 1 .335-.174c8.943 2.829 24.06 6.589 31.349 8.329a.268.268 0 0 1 .198.322.268.268 0 0 1-.323.198c-7.288-1.74-22.421-5.504-31.385-8.339a.267.267 0 0 1-.174-.336ZM498.835 219.186a.266.266 0 0 1-.023.377l-2.715 2.403a.268.268 0 1 1-.354-.4l2.715-2.403a.266.266 0 0 1 .377.023ZM500.84 222.095a.266.266 0 0 1-.023.377l-2.715 2.403a.268.268 0 0 1-.355-.4l2.716-2.403a.266.266 0 0 1 .377.023ZM503.247 223.879a.268.268 0 0 1 .035.376l-2.413 2.911a.268.268 0 1 1-.412-.341l2.413-2.911a.268.268 0 0 1 .377-.035ZM505.979 225.085c.124.08.16.245.081.369l-1.906 2.983a.268.268 0 0 1-.451-.288l1.906-2.983a.269.269 0 0 1 .37-.081ZM509.493 225.175a.268.268 0 0 1 .153.346l-1.379 3.563a.268.268 0 0 1-.499-.193l1.379-3.563a.267.267 0 0 1 .346-.153ZM512.666 224.128a.267.267 0 0 1 .21.314l-.689 3.487a.267.267 0 0 1-.525-.104l.69-3.486a.268.268 0 0 1 .314-.211Z" fill="#000"/><path d="M410.019 48.176a.97.97 0 0 0-.42-.726c-.244-.173-.562-.26-.954-.26-.275 0-.512.042-.709.125a1.052 1.052 0 0 0-.452.338.823.823 0 0 0-.057.883.945.945 0 0 0 .289.285c.121.076.255.14.402.192.147.052.296.096.445.132l.684.17c.275.065.54.152.794.26.256.11.485.248.687.414.204.166.365.367.484.602.119.234.178.51.178.826 0 .427-.109.803-.327 1.128-.219.323-.534.576-.947.759-.411.18-.908.27-1.492.27-.568 0-1.06-.088-1.478-.263a2.204 2.204 0 0 1-.976-.77c-.232-.336-.358-.747-.377-1.231h1.3c.019.254.097.465.235.633.137.17.316.295.537.378.223.083.473.125.748.125.287 0 .539-.043.755-.129a1.23 1.23 0 0 0 .513-.363.877.877 0 0 0 .188-.548.696.696 0 0 0-.167-.47 1.223 1.223 0 0 0-.459-.313 4.437 4.437 0 0 0-.684-.228l-.83-.214c-.6-.154-1.075-.388-1.424-.701-.346-.316-.52-.735-.52-1.257 0-.43.117-.806.349-1.129.235-.323.554-.573.958-.751.404-.18.86-.27 1.371-.27.517 0 .971.09 1.36.27.392.178.699.426.922.744.223.316.338.679.346 1.09h-1.272ZM414.932 53.57c-.548 0-1.022-.113-1.421-.341a2.32 2.32 0 0 1-.915-.976c-.213-.422-.32-.92-.32-1.492 0-.562.107-1.056.32-1.48.216-.428.518-.76.905-.998.387-.24.841-.36 1.363-.36.337 0 .656.055.955.164.301.107.567.273.797.499.233.225.416.513.549.862.132.346.199.76.199 1.239v.395h-4.483v-.869h3.247a1.376 1.376 0 0 0-.16-.659 1.158 1.158 0 0 0-.438-.459 1.23 1.23 0 0 0-.648-.167c-.263 0-.495.064-.694.192a1.333 1.333 0 0 0-.467.498 1.444 1.444 0 0 0-.167.673v.759c0 .318.058.59.175.819.116.225.279.398.487.52.209.118.454.178.734.178.187 0 .357-.026.509-.079.152-.054.284-.134.395-.238a.99.99 0 0 0 .253-.388l1.204.135a1.874 1.874 0 0 1-.435.833 2.116 2.116 0 0 1-.812.548c-.33.129-.707.193-1.132.193ZM418.454 53.464v-5.47h1.25v.912h.057a1.367 1.367 0 0 1 1.35-.99c.071 0 .15.004.238.011.09.005.165.013.224.025v1.186a1.347 1.347 0 0 0-.259-.05 2.414 2.414 0 0 0-.339-.025c-.235 0-.446.051-.634.153-.185.1-.331.239-.437.417a1.173 1.173 0 0 0-.161.616v3.215h-1.289ZM427.481 47.995l-1.947 5.469h-1.425l-1.947-5.47h1.374l1.257 4.063h.057l1.261-4.062h1.37ZM428.373 53.464v-5.47h1.289v5.47h-1.289Zm.648-6.245a.752.752 0 0 1-.527-.203.654.654 0 0 1-.22-.495c0-.195.073-.36.22-.495a.745.745 0 0 1 .527-.207c.207 0 .382.07.527.207.147.135.221.3.221.495a.655.655 0 0 1-.221.495.743.743 0 0 1-.527.203ZM433.373 53.57c-.546 0-1.015-.12-1.406-.359-.39-.24-.69-.57-.901-.993-.209-.425-.313-.914-.313-1.467 0-.556.106-1.046.32-1.47.214-.428.515-.76.904-.998.392-.24.855-.36 1.389-.36.444 0 .837.082 1.179.246.344.162.618.39.822.688.204.294.321.638.349 1.032h-1.232a1.176 1.176 0 0 0-.356-.659c-.185-.178-.433-.267-.744-.267a1.16 1.16 0 0 0-.694.214c-.2.14-.355.342-.467.605-.109.264-.164.58-.164.947 0 .373.055.694.164.962a1.4 1.4 0 0 0 .459.616c.2.142.434.213.702.213.19 0 .36-.035.509-.107.152-.073.279-.179.381-.316.102-.138.172-.305.21-.502h1.232a2.15 2.15 0 0 1-.342 1.029c-.197.296-.465.529-.804.697-.34.167-.739.25-1.197.25ZM439.196 53.57c-.549 0-1.022-.113-1.421-.341a2.32 2.32 0 0 1-.915-.976c-.214-.422-.321-.92-.321-1.492 0-.562.107-1.056.321-1.48.216-.428.517-.76.904-.998.387-.24.842-.36 1.364-.36.337 0 .655.055.954.164.302.107.568.273.798.499.232.225.415.513.548.862.133.346.2.76.2 1.239v.395h-4.483v-.869h3.247a1.387 1.387 0 0 0-.16-.659 1.172 1.172 0 0 0-.438-.459 1.23 1.23 0 0 0-.648-.167c-.264 0-.495.064-.695.192a1.33 1.33 0 0 0-.466.498 1.432 1.432 0 0 0-.167.673v.759c0 .318.058.59.174.819.116.225.279.398.488.52.209.118.453.178.733.178.188 0 .358-.026.51-.079.152-.054.283-.134.395-.238a1 1 0 0 0 .253-.388l1.203.135a1.882 1.882 0 0 1-.434.833 2.123 2.123 0 0 1-.812.548c-.33.129-.707.193-1.132.193ZM445.262 53.464v-7.292h2.735c.56 0 1.03.097 1.409.292.383.194.671.467.866.819.197.349.295.756.295 1.221 0 .468-.099.873-.299 1.218a1.976 1.976 0 0 1-.872.794c-.385.185-.857.278-1.417.278h-1.948v-1.097h1.77c.327 0 .595-.045.804-.136a.954.954 0 0 0 .463-.402 1.3 1.3 0 0 0 .153-.655c0-.259-.051-.48-.153-.662a.972.972 0 0 0-.466-.42c-.209-.098-.478-.146-.808-.146h-1.211v6.188h-1.321Zm3.767-3.304 1.805 3.304h-1.474l-1.773-3.304h1.442ZM454.069 53.57c-.548 0-1.022-.113-1.421-.341a2.32 2.32 0 0 1-.915-.976c-.213-.422-.32-.92-.32-1.492 0-.562.107-1.056.32-1.48.216-.428.518-.76.905-.998.387-.24.841-.36 1.363-.36.337 0 .656.055.955.164.301.107.567.273.797.499.233.225.416.513.549.862.132.346.199.76.199 1.239v.395h-4.483v-.869h3.247a1.376 1.376 0 0 0-.16-.659 1.158 1.158 0 0 0-.438-.459 1.23 1.23 0 0 0-.648-.167c-.263 0-.495.064-.694.192a1.333 1.333 0 0 0-.467.498 1.444 1.444 0 0 0-.167.673v.759c0 .318.058.59.175.819.116.225.279.398.487.52.209.118.454.178.734.178.187 0 .357-.026.509-.079.152-.054.284-.134.395-.238a.99.99 0 0 0 .253-.388l1.204.135a1.874 1.874 0 0 1-.435.833 2.116 2.116 0 0 1-.812.548c-.33.129-.707.193-1.132.193ZM458.88 46.172v7.292h-1.289v-7.292h1.289ZM460.206 53.464v-5.47h1.289v5.47h-1.289Zm.648-6.245a.752.752 0 0 1-.527-.203.655.655 0 0 1-.221-.495c0-.195.074-.36.221-.495a.745.745 0 0 1 .527-.207c.206 0 .382.07.527.207.147.135.22.3.22.495a.654.654 0 0 1-.22.495.745.745 0 0 1-.527.203ZM464.394 53.574c-.347 0-.659-.061-.937-.185a1.533 1.533 0 0 1-.655-.555c-.159-.245-.238-.546-.238-.905 0-.308.057-.564.171-.765.114-.202.269-.363.466-.485.197-.12.419-.212.666-.274a5.41 5.41 0 0 1 .773-.139c.32-.033.58-.062.779-.088.2-.029.345-.072.435-.129.092-.059.139-.15.139-.274v-.021c0-.268-.08-.476-.239-.623-.159-.148-.388-.221-.687-.221-.316 0-.566.069-.751.206-.183.138-.307.3-.371.488l-1.203-.17c.095-.333.251-.61.47-.834a2.04 2.04 0 0 1 .801-.506c.316-.113.665-.17 1.047-.17.263 0 .525.03.787.092.261.062.499.164.715.306.216.14.39.332.52.574.133.242.199.544.199.908v3.66h-1.239v-.751H466a1.595 1.595 0 0 1-.331.427c-.141.13-.317.236-.531.317a2.137 2.137 0 0 1-.744.117Zm.335-.947c.258 0 .483-.05.673-.153.189-.104.335-.242.437-.413.105-.17.157-.357.157-.559v-.644a.604.604 0 0 1-.206.092 2.925 2.925 0 0 1-.321.075c-.119.021-.236.04-.352.057l-.303.043a2.25 2.25 0 0 0-.516.128.86.86 0 0 0-.36.249.609.609 0 0 0-.132.406c0 .237.087.416.26.538.174.12.394.181.663.181ZM468.635 53.464v-7.292h1.288v2.727h.054a2.35 2.35 0 0 1 .281-.424c.121-.151.285-.28.491-.388.207-.109.47-.163.791-.163.422 0 .803.108 1.143.324.342.213.612.53.812.95.201.418.302.93.302 1.538 0 .601-.098 1.111-.295 1.532-.197.42-.465.74-.805.96-.339.222-.724.332-1.153.332-.314 0-.574-.052-.78-.157a1.586 1.586 0 0 1-.499-.377 2.469 2.469 0 0 1-.288-.424h-.075v.862h-1.267Zm1.264-2.735c0 .354.049.664.149.93.102.266.248.473.438.623.192.147.425.22.698.22.285 0 .523-.075.716-.227.192-.155.337-.365.434-.63.1-.269.149-.574.149-.916 0-.34-.048-.64-.145-.904a1.367 1.367 0 0 0-.435-.62c-.192-.15-.432-.224-.719-.224-.275 0-.509.072-.702.217a1.33 1.33 0 0 0-.437.61 2.623 2.623 0 0 0-.146.921ZM474.893 53.464v-5.47h1.289v5.47h-1.289Zm.648-6.245a.752.752 0 0 1-.527-.203.655.655 0 0 1-.221-.495c0-.195.074-.36.221-.495a.745.745 0 0 1 .527-.207c.207 0 .382.07.527.207.147.135.221.3.221.495a.655.655 0 0 1-.221.495.743.743 0 0 1-.527.203ZM478.796 46.172v7.292h-1.289v-7.292h1.289ZM480.122 53.464v-5.47h1.289v5.47h-1.289Zm.648-6.245a.752.752 0 0 1-.527-.203.655.655 0 0 1-.221-.495c0-.195.074-.36.221-.495a.745.745 0 0 1 .527-.207c.206 0 .382.07.527.207.147.135.221.3.221.495a.655.655 0 0 1-.221.495.745.745 0 0 1-.527.203ZM485.467 47.995v.997h-3.144v-.997h3.144Zm-2.368-1.31h1.289v5.134c0 .173.026.306.079.399.054.09.125.152.213.185s.185.05.292.05c.081 0 .155-.006.221-.018.069-.012.121-.023.157-.032l.217 1.008c-.069.023-.168.05-.296.078-.125.028-.28.045-.463.05-.322.01-.613-.04-.872-.146a1.356 1.356 0 0 1-.616-.506c-.149-.228-.223-.513-.221-.855v-5.347ZM487.346 55.515c-.175 0-.338-.014-.488-.043a1.806 1.806 0 0 1-.352-.093l.299-1.004c.188.055.355.081.502.079a.614.614 0 0 0 .388-.14c.114-.087.21-.234.289-.44l.11-.296-1.983-5.583h1.367l1.26 4.13h.057l1.264-4.13h1.371l-2.19 6.131c-.102.29-.237.538-.405.744a1.65 1.65 0 0 1-.62.477 2.063 2.063 0 0 1-.869.168ZM406.056 56.915h1.617l2.165 5.284h.085l2.165-5.284h1.617v7.292h-1.268v-5.01h-.068l-2.015 4.988h-.947l-2.015-4.999h-.068v5.02h-1.268v-7.291ZM416.66 64.317c-.347 0-.659-.062-.937-.185a1.533 1.533 0 0 1-.655-.556c-.159-.244-.238-.545-.238-.904 0-.308.057-.564.171-.765.114-.202.269-.364.466-.485a2.35 2.35 0 0 1 .666-.274 5.41 5.41 0 0 1 .773-.139c.32-.033.58-.063.779-.089.2-.028.344-.071.435-.128.092-.06.139-.15.139-.274v-.022c0-.268-.08-.475-.239-.623-.159-.147-.388-.22-.687-.22-.316 0-.566.069-.751.206-.183.138-.307.3-.371.488l-1.203-.17c.095-.333.251-.611.47-.834a2.04 2.04 0 0 1 .801-.506c.316-.114.665-.17 1.047-.17.263 0 .525.03.787.092.261.062.499.164.715.306.216.14.39.331.52.573.133.243.199.545.199.908v3.66h-1.239v-.75h-.042a1.596 1.596 0 0 1-.331.427c-.141.13-.317.236-.531.316a2.134 2.134 0 0 1-.744.118Zm.335-.947c.258 0 .483-.051.672-.153a1.13 1.13 0 0 0 .438-.413c.105-.171.157-.357.157-.56V61.6a.601.601 0 0 1-.206.093 2.925 2.925 0 0 1-.321.075c-.119.021-.236.04-.352.057l-.303.042a2.25 2.25 0 0 0-.516.129.86.86 0 0 0-.36.249.608.608 0 0 0-.132.406c0 .237.087.416.26.537.174.121.394.182.663.182ZM422.132 61.002v3.205h-1.288v-5.47h1.231v.93h.065c.125-.306.326-.55.601-.73.278-.18.621-.27 1.029-.27.378 0 .707.08.987.241.282.162.5.396.655.702.156.306.234.678.231 1.114v3.483h-1.289v-3.283c0-.366-.095-.652-.285-.858-.187-.207-.447-.31-.779-.31-.226 0-.426.05-.602.15-.173.097-.31.238-.41.423-.097.185-.146.41-.146.673ZM428.527 64.317c-.346 0-.658-.062-.936-.185a1.522 1.522 0 0 1-.655-.556c-.159-.244-.239-.545-.239-.904 0-.308.057-.564.171-.765.114-.202.269-.364.466-.485a2.35 2.35 0 0 1 .666-.274c.25-.064.507-.11.773-.139.32-.033.58-.063.78-.089.199-.028.344-.071.434-.128.093-.06.139-.15.139-.274v-.022c0-.268-.08-.475-.239-.623-.159-.147-.388-.22-.687-.22-.315 0-.566.069-.751.206-.183.138-.306.3-.37.488l-1.204-.17c.095-.333.252-.611.47-.834.219-.226.486-.394.801-.506.316-.114.665-.17 1.047-.17.264 0 .526.03.787.092s.5.164.716.306c.216.14.389.331.519.573.133.243.2.545.2.908v3.66h-1.239v-.75h-.043a1.576 1.576 0 0 1-.331.427c-.14.13-.317.236-.531.316a2.134 2.134 0 0 1-.744.118Zm.335-.947a1.4 1.4 0 0 0 .673-.153 1.13 1.13 0 0 0 .438-.413c.104-.171.157-.357.157-.56V61.6a.618.618 0 0 1-.207.093 2.959 2.959 0 0 1-.32.075c-.119.021-.237.04-.353.057l-.303.042a2.25 2.25 0 0 0-.516.129.85.85 0 0 0-.359.249.608.608 0 0 0-.132.406c0 .237.086.416.26.537.173.121.394.182.662.182ZM435.089 66.371c-.462 0-.86-.062-1.192-.188-.333-.124-.6-.29-.802-.499a1.741 1.741 0 0 1-.42-.694l1.161-.281c.052.106.128.212.228.317.1.106.234.194.402.263.171.071.386.107.645.107.365 0 .668-.09.908-.267.239-.176.359-.465.359-.869v-1.036h-.064c-.066.133-.164.27-.292.41-.126.14-.293.257-.502.352-.206.095-.466.142-.78.142-.42 0-.801-.098-1.142-.295-.34-.2-.611-.496-.812-.89-.2-.397-.299-.893-.299-1.489 0-.6.099-1.107.299-1.52.201-.415.473-.73.815-.944a2.096 2.096 0 0 1 1.143-.324c.32 0 .584.055.79.164.209.107.376.236.499.388.123.15.217.291.281.424h.071v-.904h1.272v5.558c0 .467-.112.854-.335 1.16a2.008 2.008 0 0 1-.915.688 3.584 3.584 0 0 1-1.318.227Zm.011-3.254c.273 0 .506-.066.698-.2.192-.132.338-.323.438-.573.1-.249.149-.548.149-.897 0-.344-.049-.645-.149-.904a1.29 1.29 0 0 0-.434-.602 1.124 1.124 0 0 0-.702-.217c-.287 0-.527.075-.719.224-.192.15-.337.355-.435.616a2.503 2.503 0 0 0-.146.883c0 .335.049.628.146.88.1.249.246.444.438.584.195.137.434.206.716.206ZM441.399 64.314c-.549 0-1.022-.114-1.421-.342a2.32 2.32 0 0 1-.915-.976c-.214-.422-.32-.92-.32-1.492 0-.562.106-1.056.32-1.481.216-.427.517-.76.904-.997.387-.24.842-.36 1.364-.36.337 0 .655.055.954.164.302.107.568.273.798.499.233.225.415.512.548.861.133.347.2.76.2 1.24v.395h-4.483v-.87h3.247a1.387 1.387 0 0 0-.16-.658 1.173 1.173 0 0 0-.438-.46 1.23 1.23 0 0 0-.648-.167c-.264 0-.495.065-.694.193-.2.126-.355.292-.467.498a1.432 1.432 0 0 0-.167.673v.759c0 .318.058.59.174.819.117.225.279.398.488.52.209.118.453.177.734.177.187 0 .357-.026.509-.078.152-.055.283-.134.395-.239a.99.99 0 0 0 .253-.388l1.203.136a1.882 1.882 0 0 1-.434.833 2.116 2.116 0 0 1-.812.548c-.33.128-.707.193-1.132.193ZM444.921 64.207v-5.47h1.232v.93h.064c.114-.313.303-.558.566-.733.264-.179.578-.268.944-.268.37 0 .682.09.936.271.257.178.437.421.541.73h.057c.121-.304.326-.546.613-.726.289-.183.632-.275 1.029-.275.503 0 .914.16 1.232.478.318.318.477.782.477 1.392v3.67h-1.293v-3.47c0-.34-.09-.588-.27-.745a.967.967 0 0 0-.662-.239c-.311 0-.555.098-.73.292-.174.193-.26.443-.26.752v3.41h-1.264v-3.524c0-.283-.086-.508-.257-.677-.168-.168-.389-.253-.662-.253a.937.937 0 0 0-.506.143.998.998 0 0 0-.363.395c-.09.169-.135.366-.135.591v3.326h-1.289ZM456.341 64.314c-.549 0-1.022-.114-1.421-.342a2.32 2.32 0 0 1-.915-.976c-.214-.422-.32-.92-.32-1.492 0-.562.106-1.056.32-1.481.216-.427.517-.76.904-.997.387-.24.842-.36 1.364-.36.337 0 .655.055.954.164.302.107.568.273.798.499.233.225.415.512.548.861.133.347.2.76.2 1.24v.395h-4.483v-.87h3.247a1.387 1.387 0 0 0-.16-.658 1.173 1.173 0 0 0-.438-.46 1.23 1.23 0 0 0-.648-.167c-.264 0-.495.065-.694.193-.2.126-.355.292-.467.498a1.432 1.432 0 0 0-.167.673v.759c0 .318.058.59.174.819.117.225.279.398.488.52.209.118.453.177.734.177.187 0 .357-.026.509-.078.152-.055.283-.134.395-.239a1 1 0 0 0 .253-.388l1.203.136a1.882 1.882 0 0 1-.434.833 2.116 2.116 0 0 1-.812.548c-.33.128-.707.193-1.132.193ZM461.152 61.002v3.205h-1.289v-5.47h1.232v.93h.064a1.56 1.56 0 0 1 .602-.73c.278-.18.621-.27 1.029-.27.377 0 .706.08.986.241.283.162.501.396.655.702.157.306.234.678.232 1.114v3.483h-1.289v-3.283c0-.366-.095-.652-.285-.858-.188-.207-.448-.31-.78-.31a1.2 1.2 0 0 0-.602.15 1.04 1.04 0 0 0-.409.423c-.097.185-.146.41-.146.673ZM468.704 58.738v.997h-3.144v-.997h3.144Zm-2.368-1.31h1.289v5.134c0 .173.026.306.078.399.055.09.126.151.214.185.088.033.185.05.292.05.081 0 .154-.006.221-.018.069-.012.121-.023.156-.032l.218 1.007a2.416 2.416 0 0 1-.759.128 2.1 2.1 0 0 1-.872-.146 1.357 1.357 0 0 1-.616-.505c-.15-.228-.223-.513-.221-.855v-5.348Z" fill="#000"/><path fill-rule="evenodd" clip-rule="evenodd" d="m396.954 62.44-5.301-3.372a5.267 5.267 0 0 1-3.504 1.328 5.268 5.268 0 0 1-3.505-1.328l-5.301 3.373a11.435 11.435 0 0 0 8.805 4.125c3.539 0 6.704-1.605 8.806-4.126Zm.848-1.157-5.206-3.313a5.29 5.29 0 0 0-3.731-8.104V43.67c5.995.37 10.742 5.349 10.742 11.437 0 2.274-.662 4.394-1.805 6.176Zm-10.37-17.613c-5.995.37-10.743 5.349-10.743 11.437 0 2.274.663 4.394 1.806 6.176l5.206-3.313a5.29 5.29 0 0 1 3.731-8.104V43.67Z" fill="url(#d)"/><path fill-rule="evenodd" clip-rule="evenodd" d="M391.317 52.855a.717.717 0 0 1-.035 1.013l-3.778 3.526a.716.716 0 0 1-.977 0l-1.511-1.41a.715.715 0 1 1 .977-1.048l1.022.954 3.289-3.07a.717.717 0 0 1 1.013.035Z" fill="#AE82FC"/><path fill-rule="evenodd" clip-rule="evenodd" d="M295.066 157.707a4.544 4.544 0 0 1 2.304 3.992l-.069 7.998a4.54 4.54 0 0 1-2.272 3.894l-7.165 4.135a4.546 4.546 0 0 1-4.509.019l-6.963-3.941a4.544 4.544 0 0 1-2.304-3.992l.069-7.998a4.54 4.54 0 0 1 2.272-3.894l7.165-4.135a4.546 4.546 0 0 1 4.509-.019l6.963 3.941Zm-2.534 6.211a2.67 2.67 0 0 1-3.225 1.916l-6.706-1.813a4.205 4.205 0 0 0-3.242.43 4.27 4.27 0 0 0-1.989 2.618 4.322 4.322 0 0 0 .429 3.28 4.255 4.255 0 0 0 2.601 2.015 4.206 4.206 0 0 0 3.241-.429 4.277 4.277 0 0 0 1.99-2.618l.234-.937a.224.224 0 0 0-.159-.27l-1.126-.305a.224.224 0 0 0-.276.162l-.229.916a2.67 2.67 0 0 1-3.269 1.905c-1.417-.383-2.26-1.856-1.88-3.286a2.671 2.671 0 0 1 3.225-1.917l6.706 1.814a4.205 4.205 0 0 0 3.242-.43 4.274 4.274 0 0 0 1.989-2.618 4.322 4.322 0 0 0-.429-3.28 4.255 4.255 0 0 0-2.601-2.015 4.206 4.206 0 0 0-3.241.429 4.277 4.277 0 0 0-1.99 2.618l-.221.741a.223.223 0 0 0 .156.28l1.126.305a.224.224 0 0 0 .273-.152l.222-.74a2.67 2.67 0 0 1 3.269-1.905c1.417.383 2.26 1.856 1.88 3.286Z" fill="url(#e)"/><path fill-rule="evenodd" clip-rule="evenodd" d="M295.066 157.707a4.544 4.544 0 0 1 2.304 3.992l-.069 7.998a4.54 4.54 0 0 1-2.272 3.894l-7.165 4.135a4.546 4.546 0 0 1-4.509.019l-6.963-3.941a4.544 4.544 0 0 1-2.304-3.992l.069-7.998a4.54 4.54 0 0 1 2.272-3.894l7.165-4.135a4.546 4.546 0 0 1 4.509-.019l6.963 3.941Zm-2.534 6.211a2.67 2.67 0 0 1-3.225 1.916l-6.706-1.813a4.205 4.205 0 0 0-3.242.43 4.27 4.27 0 0 0-1.989 2.618 4.322 4.322 0 0 0 .429 3.28 4.255 4.255 0 0 0 2.601 2.015 4.206 4.206 0 0 0 3.241-.429 4.277 4.277 0 0 0 1.99-2.618l.234-.937a.224.224 0 0 0-.159-.27l-1.126-.305a.224.224 0 0 0-.276.162l-.229.916a2.67 2.67 0 0 1-3.269 1.905c-1.417-.383-2.26-1.856-1.88-3.286a2.671 2.671 0 0 1 3.225-1.917l6.706 1.814a4.205 4.205 0 0 0 3.242-.43 4.274 4.274 0 0 0 1.989-2.618 4.322 4.322 0 0 0-.429-3.28 4.255 4.255 0 0 0-2.601-2.015 4.206 4.206 0 0 0-3.241.429 4.277 4.277 0 0 0-1.99 2.618l-.221.741a.223.223 0 0 0 .156.28l1.126.305a.224.224 0 0 0 .273-.152l.222-.74a2.67 2.67 0 0 1 3.269-1.905c1.417.383 2.26 1.856 1.88 3.286Z" fill="url(#f)"/><path d="M309.885 159.447c-.225-1.62-1.471-2.56-3.088-2.56-1.906 0-3.341 1.388-3.341 3.745 0 2.354 1.418 3.746 3.341 3.746 1.734 0 2.885-1.122 3.088-2.514l-1.332-.007c-.168.855-.866 1.335-1.738 1.335-1.183 0-2.031-.886-2.031-2.56 0-1.645.841-2.56 2.034-2.56.887 0 1.581.502 1.735 1.375h1.332ZM313.424 164.385c1.602 0 2.621-1.129 2.621-2.82 0-1.695-1.019-2.827-2.621-2.827-1.603 0-2.621 1.132-2.621 2.827 0 1.691 1.018 2.82 2.621 2.82Zm.007-1.032c-.887 0-1.321-.791-1.321-1.791 0-1.001.434-1.802 1.321-1.802.873 0 1.307.801 1.307 1.802 0 1-.434 1.791-1.307 1.791ZM318.429 161.074c0-.791.477-1.246 1.157-1.246.666 0 1.065.438 1.065 1.167v3.283h1.289v-3.482c.004-1.31-.744-2.058-1.873-2.058-.819 0-1.382.392-1.631 1.001h-.064v-.93h-1.233v5.469h1.29v-3.204ZM325.983 158.809h-1.08v-1.31h-1.289v1.31h-.776v.997h.776v3.041c-.007 1.029.741 1.535 1.71 1.506.367-.011.619-.082.758-.128l-.217-1.008a1.59 1.59 0 0 1-.377.05c-.325 0-.585-.114-.585-.634v-2.827h1.08v-.997ZM327.061 164.278h1.289v-5.469h-1.289v5.469Zm.648-6.245c.41 0 .744-.313.744-.698 0-.388-.334-.701-.744-.701-.413 0-.748.313-.748.701 0 .385.335.698.748.698ZM330.965 161.074c0-.791.477-1.246 1.158-1.246.666 0 1.065.438 1.065 1.167v3.283h1.289v-3.482c.003-1.31-.745-2.058-1.874-2.058-.819 0-1.381.392-1.631 1.001h-.064v-.93h-1.232v5.469h1.289v-3.204ZM339.274 161.978c0 .833-.595 1.246-1.164 1.246-.62 0-1.033-.438-1.033-1.132v-3.283h-1.29v3.483c0 1.313.748 2.058 1.824 2.058.819 0 1.396-.431 1.645-1.044h.057v.972h1.25v-5.469h-1.289v3.169ZM344.275 164.385c1.603 0 2.622-1.129 2.622-2.82 0-1.695-1.019-2.827-2.622-2.827-1.602 0-2.621 1.132-2.621 2.827 0 1.691 1.019 2.82 2.621 2.82Zm.007-1.032c-.886 0-1.321-.791-1.321-1.791 0-1.001.435-1.802 1.321-1.802.873 0 1.308.801 1.308 1.802 0 1-.435 1.791-1.308 1.791ZM351.478 161.978c0 .833-.595 1.246-1.165 1.246-.62 0-1.033-.438-1.033-1.132v-3.283h-1.289v3.483c0 1.313.748 2.058 1.823 2.058.82 0 1.397-.431 1.646-1.044h.057v.972h1.25v-5.469h-1.289v3.169ZM358.416 160.255c-.178-.926-.919-1.517-2.201-1.517-1.317 0-2.215.648-2.211 1.659-.004.798.488 1.325 1.538 1.542l.933.196c.502.11.738.313.738.623 0 .374-.406.655-1.019.655-.591 0-.976-.256-1.086-.748l-1.258.121c.161 1.005 1.005 1.599 2.348 1.599 1.367 0 2.332-.708 2.336-1.745-.004-.779-.506-1.256-1.539-1.481l-.933-.199c-.555-.125-.776-.317-.773-.634-.003-.37.406-.627.944-.627.595 0 .908.324 1.008.684l1.175-.128ZM306.113 175.021c2.222 0 3.54-1.374 3.54-3.653 0-2.272-1.318-3.639-3.49-3.639h-2.522v7.292h2.472Zm-1.15-1.143v-5.006h1.125c1.482 0 2.254.826 2.254 2.496 0 1.677-.772 2.51-2.293 2.51h-1.086ZM313.273 175.128c1.275 0 2.151-.623 2.379-1.574l-1.203-.135c-.175.463-.602.705-1.158.705-.833 0-1.385-.548-1.396-1.485h3.811v-.395c0-1.919-1.154-2.763-2.5-2.763-1.567 0-2.59 1.15-2.59 2.838 0 1.716 1.008 2.809 2.657 2.809Zm-1.374-3.358c.039-.698.555-1.285 1.324-1.285.741 0 1.24.541 1.247 1.285h-2.571ZM318.086 167.729h-1.289v7.292h1.289v-7.292ZM319.412 175.021h1.289v-5.469h-1.289v5.469Zm.648-6.245c.409 0 .744-.313.744-.698 0-.388-.335-.701-.744-.701-.413 0-.748.313-.748.701 0 .385.335.698.748.698ZM326.913 169.552h-1.371l-1.261 4.063h-.057l-1.257-4.063h-1.375l1.948 5.469h1.425l1.948-5.469ZM330.041 175.128c1.275 0 2.151-.623 2.379-1.574l-1.204-.135c-.174.463-.602.705-1.157.705-.834 0-1.386-.548-1.396-1.485h3.81v-.395c0-1.919-1.154-2.763-2.5-2.763-1.567 0-2.589 1.15-2.589 2.838 0 1.716 1.008 2.809 2.657 2.809Zm-1.375-3.358c.039-.698.556-1.285 1.325-1.285.741 0 1.239.541 1.247 1.285h-2.572ZM333.564 175.021h1.289v-3.215c0-.694.524-1.186 1.233-1.186.217 0 .488.039.598.075v-1.186a3.16 3.16 0 0 0-.463-.035c-.627 0-1.15.356-1.35.99h-.057v-.912h-1.25v5.469ZM338.508 177.072c1.005 0 1.585-.516 1.895-1.389l2.198-6.124-1.379-.007-1.264 4.13h-.057l-1.261-4.13h-1.367l1.983 5.583-.11.296c-.239.623-.616.665-1.179.502l-.299 1.004c.174.071.488.135.84.135Z" fill="#000"/><path fill-rule="evenodd" clip-rule="evenodd" d="M121.649 187.165c0 1.436-.278 2.832-.765 4.118a.346.346 0 0 1-.57.118l-3.572-3.528a.48.48 0 0 1-.077-.563c.387-.74.581-1.587.581-2.472.051-2.884-2.328-5.263-5.264-5.263-.932 0-1.786.234-2.528.632a.473.473 0 0 1-.558-.071l-3.18-3.137a.43.43 0 0 1 .139-.711 11.46 11.46 0 0 1 4.153-.761c6.428 0 11.641 5.212 11.641 11.638Zm-18.379-9.471a.523.523 0 0 1 .669.064l3.613 3.613c.16.159.174.412.049.599a5.218 5.218 0 0 0-.883 2.918 5.313 5.313 0 0 0 5.315 5.313 5.215 5.215 0 0 0 2.918-.882.475.475 0 0 1 .6.049l3.912 3.91c.182.182.21.469.058.676-2.148 2.934-5.573 4.849-9.513 4.849-6.428 0-11.64-5.211-11.64-11.638a11.5 11.5 0 0 1 4.902-9.471Zm8.763 10.483a3.52 3.52 0 0 0 3.543-3.542 3.52 3.52 0 0 0-3.543-3.542 3.52 3.52 0 0 0-3.543 3.542 3.52 3.52 0 0 0 3.543 3.542Z" fill="url(#g)"/><path d="M134.164 180.902c-.225-1.62-1.471-2.56-3.088-2.56-1.905 0-3.341 1.388-3.341 3.745 0 2.354 1.418 3.746 3.341 3.746 1.734 0 2.885-1.121 3.088-2.514l-1.332-.007c-.168.855-.866 1.335-1.738 1.335-1.183 0-2.03-.886-2.03-2.56 0-1.645.84-2.56 2.033-2.56.887 0 1.582.502 1.735 1.375h1.332ZM137.703 185.84c1.603 0 2.621-1.128 2.621-2.82 0-1.695-1.018-2.827-2.621-2.827s-2.621 1.132-2.621 2.827c0 1.692 1.018 2.82 2.621 2.82Zm.007-1.032c-.887 0-1.321-.791-1.321-1.791 0-1.001.434-1.802 1.321-1.802.873 0 1.307.801 1.307 1.802 0 1-.434 1.791-1.307 1.791ZM142.708 182.529c0-.791.477-1.246 1.157-1.246.666 0 1.065.438 1.065 1.168v3.282h1.29v-3.482c.003-1.31-.745-2.058-1.874-2.058-.819 0-1.382.392-1.631 1.001h-.064v-.93h-1.232v5.469h1.289v-3.204ZM150.262 180.264h-1.079v-1.31h-1.29v1.31h-.776v.997h.776v3.041c-.007 1.029.741 1.535 1.71 1.506.367-.01.62-.082.759-.128l-.218-1.008a1.59 1.59 0 0 1-.377.05c-.324 0-.584-.114-.584-.634v-2.827h1.079v-.997ZM151.34 185.733h1.289v-5.469h-1.289v5.469Zm.648-6.245c.41 0 .745-.313.745-.698 0-.388-.335-.701-.745-.701-.413 0-.748.313-.748.701 0 .385.335.698.748.698ZM155.244 182.529c0-.791.478-1.246 1.158-1.246.666 0 1.065.438 1.065 1.168v3.282h1.289v-3.482c.004-1.31-.744-2.058-1.873-2.058-.819 0-1.382.392-1.631 1.001h-.065v-.93h-1.232v5.469h1.289v-3.204ZM163.553 183.433c0 .833-.594 1.246-1.164 1.246-.62 0-1.033-.437-1.033-1.132v-3.283h-1.289v3.483c0 1.313.748 2.058 1.823 2.058.819 0 1.396-.431 1.646-1.044h.057v.972h1.25v-5.469h-1.29v3.169ZM168.555 185.84c1.602 0 2.621-1.128 2.621-2.82 0-1.695-1.019-2.827-2.621-2.827-1.603 0-2.622 1.132-2.622 2.827 0 1.692 1.019 2.82 2.622 2.82Zm.007-1.032c-.887 0-1.322-.791-1.322-1.791 0-1.001.435-1.802 1.322-1.802.872 0 1.307.801 1.307 1.802 0 1-.435 1.791-1.307 1.791ZM175.757 183.433c0 .833-.595 1.246-1.165 1.246-.619 0-1.033-.437-1.033-1.132v-3.283h-1.289v3.483c0 1.313.748 2.058 1.824 2.058.819 0 1.396-.431 1.645-1.044h.057v.972h1.25v-5.469h-1.289v3.169ZM182.696 181.71c-.178-.926-.919-1.517-2.201-1.517-1.318 0-2.216.648-2.212 1.659-.004.798.488 1.325 1.538 1.542l.934.196c.502.11.737.313.737.623 0 .374-.406.655-1.019.655-.591 0-.976-.256-1.086-.748l-1.257.122c.16 1.004 1.004 1.598 2.347 1.598 1.367 0 2.333-.708 2.336-1.744-.003-.78-.506-1.257-1.538-1.482l-.934-.199c-.555-.125-.776-.317-.772-.634-.004-.37.406-.626.943-.626.595 0 .909.324 1.008.683l1.176-.128ZM129.242 189.184h-1.321v7.292h1.321v-7.292ZM131.905 193.272c0-.791.477-1.247 1.157-1.247.666 0 1.065.438 1.065 1.168v3.283h1.29v-3.482c.003-1.31-.745-2.058-1.874-2.058-.819 0-1.382.392-1.631 1h-.064v-.929h-1.232v5.469h1.289v-3.204ZM139.459 191.007h-1.079v-1.31h-1.289v1.31h-.777v.997h.777v3.041c-.008 1.029.74 1.534 1.709 1.506.367-.011.62-.082.759-.128l-.218-1.008a1.59 1.59 0 0 1-.377.05c-.324 0-.584-.114-.584-.634v-2.827h1.079v-.997ZM142.9 196.583c1.275 0 2.151-.623 2.379-1.574l-1.203-.135c-.175.463-.602.705-1.158.705-.833 0-1.385-.548-1.396-1.485h3.811v-.395c0-1.919-1.154-2.763-2.5-2.763-1.567 0-2.59 1.15-2.59 2.838 0 1.716 1.008 2.809 2.657 2.809Zm-1.374-3.358c.039-.697.555-1.285 1.324-1.285.741 0 1.24.541 1.247 1.285h-2.571ZM148.803 198.641c1.478 0 2.567-.676 2.567-2.076v-5.558h-1.271v.905h-.071c-.196-.396-.606-.976-1.571-.976-1.264 0-2.258.99-2.258 2.788 0 1.784.994 2.674 2.255 2.674.936 0 1.374-.502 1.574-.905h.064v1.037c0 .804-.534 1.135-1.268 1.135-.776 0-1.118-.366-1.275-.687l-1.161.282c.235.765 1.022 1.381 2.415 1.381Zm.01-3.254c-.851 0-1.3-.663-1.3-1.67 0-.994.442-1.724 1.3-1.724.83 0 1.286.688 1.286 1.724 0 1.043-.463 1.67-1.286 1.67ZM152.692 196.476h1.289v-3.215c0-.694.524-1.186 1.232-1.186.218 0 .488.039.599.075v-1.186a3.16 3.16 0 0 0-.463-.035c-.627 0-1.151.356-1.35.99h-.057v-.912h-1.25v5.469ZM158.135 196.587c.858 0 1.371-.403 1.606-.862h.043v.751h1.239v-3.66c0-1.446-1.179-1.88-2.222-1.88-1.151 0-2.034.513-2.319 1.51l1.204.171c.128-.374.491-.695 1.122-.695.598 0 .926.306.926.844v.021c0 .371-.388.389-1.354.492-1.061.114-2.076.431-2.076 1.663 0 1.075.787 1.645 1.831 1.645Zm.334-.948c-.537 0-.922-.245-.922-.719 0-.495.431-.701 1.008-.783.338-.046 1.015-.132 1.182-.267v.644c0 .609-.491 1.125-1.268 1.125ZM165.051 191.007h-1.079v-1.31h-1.289v1.31h-.777v.997h.777v3.041c-.007 1.029.74 1.534 1.709 1.506.367-.011.62-.082.759-.128l-.217-1.008a1.61 1.61 0 0 1-.378.05c-.324 0-.584-.114-.584-.634v-2.827h1.079v-.997ZM166.129 196.476h1.29v-5.469h-1.29v5.469Zm.648-6.245c.41 0 .745-.313.745-.698 0-.388-.335-.701-.745-.701-.413 0-.747.313-.747.701 0 .385.334.698.747.698ZM171.131 196.583c1.602 0 2.621-1.129 2.621-2.82 0-1.695-1.019-2.827-2.621-2.827-1.603 0-2.622 1.132-2.622 2.827 0 1.691 1.019 2.82 2.622 2.82Zm.007-1.033c-.887 0-1.322-.79-1.322-1.791 0-1 .435-1.801 1.322-1.801.872 0 1.307.801 1.307 1.801 0 1.001-.435 1.791-1.307 1.791ZM176.135 193.272c0-.791.478-1.247 1.158-1.247.666 0 1.065.438 1.065 1.168v3.283h1.289v-3.482c.004-1.31-.744-2.058-1.873-2.058-.82 0-1.382.392-1.632 1h-.064v-.929h-1.232v5.469h1.289v-3.204Z" fill="#000"/><path d="M561.184 55.2a4.646 4.646 0 0 0-5.383 3.769l-2.276 12.899a4.646 4.646 0 0 0 3.77 5.382l6.639 1.17a.2.2 0 0 0 .208-.298l-6.316-10.768c-.265-.42-.262-1.237.045-1.432.071-.045.279-.232.279-.232l.357-.39.059-.064c.331-.364.63-.693 1.576-1.166l.203-.071c1.387-.433 2.158-.402 2.929-.37.772.03 1.543.062 2.932-.371 1.139-.356 2.175-1.055 2.752-1.493a.558.558 0 0 1 .806.135l4.116 6.59a.474.474 0 0 1-.091.623 7.789 7.789 0 0 1-2.537 1.377c-1.387.433-2.178.415-2.97.396-.791-.02-1.583-.038-2.971.396-1.152.36-1.651.827-1.841 1.062-.049.061-.07.213-.032.281.374.676 2.036 3.602 3.363 5.934a1 1 0 0 0 .695.49l2.701.475a4.647 4.647 0 0 0 5.384-3.768l2.275-12.9a4.646 4.646 0 0 0-3.77-5.381L561.184 55.2Z" fill="url(#h)"/><path d="M566.569 65.043c-1.167.304-1.874.282-2.581.26-.707-.022-1.414-.044-2.58.26-.66.191-1.047.524-1.411.948a.196.196 0 0 0-.018.23l2.202 3.61c.064.105.209.129.308.055.346-.26 1.146-.797 2.147-1.058 1.315-.343 2.102-.336 2.931-.328.642.007 1.309.013 2.266-.143a3.988 3.988 0 0 0 1.457-.569.31.31 0 0 0 .085-.436l-2.276-3.522a.376.376 0 0 0-.5-.114 8.583 8.583 0 0 1-2.03.807Z" fill="url(#i)"/><path d="M583.903 71.243h1.322v-3.097h3.03v-1.108h-3.03v-1.98h3.351v-1.107h-4.673v7.292ZM591.743 71.35c1.275 0 2.151-.623 2.379-1.574l-1.204-.135c-.174.463-.602.705-1.157.705-.833 0-1.386-.548-1.396-1.485h3.811v-.395c0-1.92-1.154-2.763-2.501-2.763-1.567 0-2.589 1.15-2.589 2.838 0 1.716 1.008 2.81 2.657 2.81Zm-1.375-3.358c.04-.697.556-1.285 1.325-1.285.741 0 1.24.541 1.247 1.285h-2.572ZM596.84 71.354c.859 0 1.372-.403 1.607-.862h.042v.751h1.24v-3.66c0-1.446-1.179-1.88-2.223-1.88-1.15 0-2.033.513-2.318 1.51l1.204.17c.128-.373.491-.694 1.122-.694.598 0 .926.307.926.844v.022c0 .37-.389.388-1.354.49-1.061.115-2.076.432-2.076 1.664 0 1.075.787 1.645 1.83 1.645Zm.335-.948c-.538 0-.922-.245-.922-.719 0-.495.431-.701 1.008-.783.338-.046 1.015-.132 1.182-.267v.644c0 .61-.491 1.125-1.268 1.125ZM603.757 65.774h-1.079v-1.31h-1.289v1.31h-.777v.997h.777v3.04c-.008 1.03.74 1.535 1.709 1.507.367-.01.62-.082.759-.128l-.218-1.008c-.071.018-.217.05-.377.05-.324 0-.584-.114-.584-.634v-2.827h1.079v-.997ZM608.322 68.943c0 .833-.595 1.246-1.165 1.246-.619 0-1.033-.438-1.033-1.132v-3.283h-1.289v3.482c0 1.314.748 2.058 1.824 2.058.819 0 1.396-.43 1.645-1.043h.057v.972h1.25v-5.469h-1.289v3.17ZM610.937 71.243h1.289v-3.215c0-.694.524-1.186 1.232-1.186.218 0 .488.04.599.075v-1.186a3.102 3.102 0 0 0-.463-.035c-.627 0-1.151.356-1.35.99h-.057v-.912h-1.25v5.47ZM617.11 71.35c1.275 0 2.151-.623 2.379-1.574l-1.204-.135c-.174.463-.602.705-1.157.705-.834 0-1.386-.548-1.396-1.485h3.81v-.395c0-1.92-1.154-2.763-2.5-2.763-1.567 0-2.589 1.15-2.589 2.838 0 1.716 1.008 2.81 2.657 2.81Zm-1.375-3.358c.039-.697.556-1.285 1.325-1.285.741 0 1.239.541 1.247 1.285h-2.572ZM623.178 71.243h1.321v-3.097h3.031v-1.108h-3.031v-1.98h3.352v-1.107h-4.673v7.292ZM630.287 63.951h-1.29v7.292h1.29v-7.292ZM633.187 71.354c.858 0 1.371-.403 1.606-.862h.043v.751h1.239v-3.66c0-1.446-1.179-1.88-2.222-1.88-1.151 0-2.034.513-2.319 1.51l1.204.17c.128-.373.491-.694 1.122-.694.598 0 .926.307.926.844v.022c0 .37-.389.388-1.354.49-1.061.115-2.076.432-2.076 1.664 0 1.075.787 1.645 1.831 1.645Zm.334-.948c-.537 0-.922-.245-.922-.719 0-.495.431-.701 1.008-.783.338-.046 1.015-.132 1.182-.267v.644c0 .61-.491 1.125-1.268 1.125ZM639.75 73.408c1.478 0 2.568-.676 2.568-2.076v-5.558h-1.271v.905h-.071c-.196-.396-.606-.976-1.571-.976-1.264 0-2.258.99-2.258 2.788 0 1.784.994 2.674 2.254 2.674.937 0 1.375-.502 1.575-.905h.064v1.037c0 .804-.535 1.136-1.268 1.136-.777 0-1.119-.367-1.275-.688l-1.161.282c.235.765 1.022 1.381 2.414 1.381Zm.011-3.254c-.851 0-1.3-.663-1.3-1.67 0-.994.442-1.724 1.3-1.724.83 0 1.286.688 1.286 1.724 0 1.043-.463 1.67-1.286 1.67ZM647.963 67.22c-.178-.926-.919-1.517-2.201-1.517-1.318 0-2.215.648-2.211 1.66-.004.797.487 1.324 1.538 1.54l.933.197c.502.11.737.313.737.623 0 .374-.406.655-1.018.655-.591 0-.976-.256-1.086-.748l-1.258.121c.161 1.004 1.005 1.6 2.347 1.6 1.368 0 2.333-.71 2.337-1.746-.004-.78-.506-1.257-1.539-1.48l-.933-.2c-.556-.125-.776-.317-.773-.634-.003-.37.406-.627.944-.627.595 0 .908.324 1.008.684l1.175-.128Z" fill="#000"/><path fill-rule="evenodd" clip-rule="evenodd" d="m478.672 167.705-.036.022c-1.992 1.169-6.168 3.621-10.04 3.932a.674.674 0 0 0-.629.594c-.541 5.681.907 17.127 10.81 21.954a.625.625 0 0 0 .489.028c2.667-.999 6.794-4.108 9.099-10.216l-4.447-1.864a1.055 1.055 0 0 1-.076-.036 5.227 5.227 0 1 1 .662-1.643c.035.01.069.022.103.036l4.325 1.813c.82-2.785 1.269-6.111 1.106-10.044a.707.707 0 0 0-.611-.655c-2.277-.335-6.655-1.815-10.067-3.91a.669.669 0 0 0-.688-.011Zm-.496 8.444a3.446 3.446 0 1 0 2.434 6.447 3.446 3.446 0 0 0-2.434-6.447Z" fill="url(#j)"/><path d="M500.483 173.726a.97.97 0 0 0-.42-.726c-.244-.173-.562-.26-.954-.26-.275 0-.512.042-.709.125a1.046 1.046 0 0 0-.452.338.822.822 0 0 0-.057.883.948.948 0 0 0 .289.285c.121.076.255.14.402.192.147.052.295.096.445.132l.684.171c.275.064.54.15.794.26.256.109.485.246.687.413.204.166.365.366.484.601s.178.511.178.826c0 .428-.109.804-.328 1.129-.218.323-.534.576-.947.758-.41.181-.908.271-1.492.271-.567 0-1.059-.088-1.477-.263a2.201 2.201 0 0 1-.976-.769c-.232-.338-.358-.748-.377-1.232h1.299c.019.254.098.465.235.633.138.169.317.295.538.378.223.083.472.124.748.124.287 0 .539-.042.755-.128.218-.088.389-.209.512-.363a.871.871 0 0 0 .189-.548.695.695 0 0 0-.167-.47 1.226 1.226 0 0 0-.46-.314 4.505 4.505 0 0 0-.683-.228l-.83-.213c-.6-.154-1.075-.388-1.424-.702-.347-.315-.52-.734-.52-1.256 0-.43.116-.806.349-1.129.235-.323.554-.573.958-.751.403-.181.86-.271 1.371-.271.517 0 .971.09 1.36.271.391.178.699.426.922.744.223.315.338.679.345 1.089h-1.271ZM505.396 179.121c-.548 0-1.022-.114-1.421-.342a2.326 2.326 0 0 1-.915-.976c-.213-.422-.32-.92-.32-1.492 0-.562.107-1.056.32-1.481.216-.427.518-.76.905-.997.387-.24.841-.36 1.363-.36.337 0 .655.055.955.164.301.107.567.273.797.499.233.225.416.512.548.861.133.347.2.76.2 1.239v.396h-4.483v-.869h3.247a1.376 1.376 0 0 0-.16-.659 1.159 1.159 0 0 0-.438-.459 1.226 1.226 0 0 0-.648-.167c-.263 0-.495.064-.694.192-.2.126-.355.292-.467.498a1.433 1.433 0 0 0-.167.673v.759c0 .318.058.591.174.819.117.225.279.398.488.519.209.119.454.178.734.178.187 0 .357-.026.509-.078a1.12 1.12 0 0 0 .395-.238.992.992 0 0 0 .253-.389l1.203.136a1.87 1.87 0 0 1-.434.833 2.11 2.11 0 0 1-.812.548c-.33.128-.707.193-1.132.193ZM511.304 179.121c-.546 0-1.015-.12-1.407-.36a2.4 2.4 0 0 1-.9-.994c-.209-.424-.314-.913-.314-1.466 0-.556.107-1.046.321-1.471.213-.427.515-.76.904-.997.392-.24.855-.36 1.389-.36.444 0 .836.082 1.178.246.344.162.619.391.823.687.204.295.32.639.349 1.033h-1.232a1.182 1.182 0 0 0-.356-.659c-.185-.178-.434-.267-.744-.267-.264 0-.495.071-.695.214-.199.14-.355.342-.466.605a2.473 2.473 0 0 0-.164.947c0 .373.055.693.164.962.109.265.262.471.459.616.199.142.433.213.702.213.189 0 .359-.035.509-.107.152-.073.279-.179.381-.317.102-.137.172-.305.21-.502h1.232a2.15 2.15 0 0 1-.342 1.029c-.197.297-.465.53-.805.698-.339.166-.738.25-1.196.25ZM518.191 176.714v-3.169h1.289v5.469h-1.25v-.972h-.057a1.641 1.641 0 0 1-.609.751c-.28.195-.625.292-1.036.292a1.87 1.87 0 0 1-.951-.239 1.652 1.652 0 0 1-.64-.701c-.155-.309-.232-.681-.232-1.118v-3.482h1.289v3.283c0 .346.095.621.285.826.19.204.439.306.748.306.189 0 .373-.047.551-.139.178-.093.324-.23.438-.413.117-.185.175-.417.175-.694ZM520.805 179.014v-5.469h1.25v.911h.057a1.366 1.366 0 0 1 1.349-.99c.072 0 .151.004.239.011.09.005.165.013.224.025v1.186a1.32 1.32 0 0 0-.26-.05 2.332 2.332 0 0 0-.338-.025c-.235 0-.446.051-.634.153a1.12 1.12 0 0 0-.438.417 1.18 1.18 0 0 0-.16.616v3.215h-1.289ZM524.781 179.014v-5.469h1.289v5.469h-1.289Zm.648-6.246a.749.749 0 0 1-.527-.203.652.652 0 0 1-.221-.494c0-.195.074-.36.221-.495a.744.744 0 0 1 .527-.207c.206 0 .382.069.527.207.147.135.22.3.22.495a.652.652 0 0 1-.22.494.742.742 0 0 1-.527.203ZM530.126 173.545v.997h-3.144v-.997h3.144Zm-2.368-1.311h1.289v5.135c0 .173.026.306.078.398a.426.426 0 0 0 .214.186.825.825 0 0 0 .292.049c.081 0 .154-.005.221-.017.069-.012.121-.023.156-.032l.218 1.007a2.407 2.407 0 0 1-.759.128 2.09 2.09 0 0 1-.872-.146 1.353 1.353 0 0 1-.616-.505c-.15-.228-.223-.513-.221-.855v-5.348ZM532.005 181.065c-.176 0-.338-.015-.488-.043a1.768 1.768 0 0 1-.352-.093l.299-1.004c.187.055.355.081.502.079a.622.622 0 0 0 .388-.139c.114-.088.21-.235.288-.442l.111-.295-1.983-5.583h1.367l1.26 4.13h.057l1.264-4.13h1.371l-2.19 6.131c-.102.29-.237.538-.406.744a1.644 1.644 0 0 1-.619.477 2.057 2.057 0 0 1-.869.168ZM539.205 172.829v-1.107h5.818v1.107h-2.254v6.185h-1.311v-6.185h-2.253ZM547.715 179.121c-.548 0-1.022-.114-1.42-.342a2.322 2.322 0 0 1-.916-.976c-.213-.422-.32-.92-.32-1.492 0-.562.107-1.056.32-1.481.216-.427.518-.76.905-.997.387-.24.841-.36 1.364-.36.337 0 .655.055.954.164.301.107.567.273.797.499.233.225.416.512.549.861.133.347.199.76.199 1.239v.396h-4.483v-.869h3.248a1.388 1.388 0 0 0-.161-.659 1.159 1.159 0 0 0-.438-.459 1.226 1.226 0 0 0-.648-.167c-.263 0-.495.064-.694.192a1.326 1.326 0 0 0-.466.498c-.11.204-.165.429-.168.673v.759c0 .318.058.591.175.819.116.225.279.398.488.519.208.119.453.178.733.178.188 0 .357-.026.509-.078a1.12 1.12 0 0 0 .395-.238.992.992 0 0 0 .253-.389l1.204.136a1.872 1.872 0 0 1-.435.833 2.11 2.11 0 0 1-.812.548 3.108 3.108 0 0 1-1.132.193ZM555.56 174.99l-1.175.128a.94.94 0 0 0-.174-.334.862.862 0 0 0-.328-.253 1.196 1.196 0 0 0-.506-.096c-.268 0-.493.058-.676.174-.18.117-.27.267-.267.452a.475.475 0 0 0 .174.389c.121.099.321.181.599.245l.932.2c.518.111.902.288 1.154.53.254.242.382.559.385.951a1.492 1.492 0 0 1-.303.911 1.939 1.939 0 0 1-.823.613 3.109 3.109 0 0 1-1.21.221c-.67 0-1.208-.141-1.617-.421a1.69 1.69 0 0 1-.73-1.178l1.257-.121a.886.886 0 0 0 .363.559c.186.126.427.188.723.188.306 0 .552-.062.737-.188.188-.126.282-.282.282-.467a.487.487 0 0 0-.182-.388c-.119-.102-.304-.18-.555-.235l-.933-.196c-.525-.109-.913-.293-1.165-.551-.251-.262-.376-.592-.374-.99-.002-.337.09-.629.275-.876.187-.249.447-.442.779-.577a3.021 3.021 0 0 1 1.158-.207c.641 0 1.145.137 1.513.41.37.273.599.642.687 1.107ZM559.471 173.545v.997h-3.144v-.997h3.144Zm-2.367-1.311h1.288v5.135c0 .173.027.306.079.398a.424.424 0 0 0 .213.186.828.828 0 0 0 .292.049c.081 0 .155-.005.221-.017.069-.012.121-.023.157-.032l.217 1.007a2.416 2.416 0 0 1-.758.128 2.094 2.094 0 0 1-.873-.146 1.358 1.358 0 0 1-.616-.505c-.149-.228-.223-.513-.22-.855v-5.348ZM560.549 179.014v-5.469h1.289v5.469h-1.289Zm.648-6.246a.75.75 0 0 1-.527-.203.652.652 0 0 1-.22-.494c0-.195.073-.36.22-.495a.745.745 0 0 1 .527-.207c.207 0 .383.069.527.207.147.135.221.3.221.495a.652.652 0 0 1-.221.494.739.739 0 0 1-.527.203ZM564.453 175.809v3.205h-1.289v-5.469h1.232v.929h.064c.126-.306.326-.55.601-.73.278-.18.621-.271 1.029-.271.378 0 .707.081.987.243.282.161.501.395.655.701.157.306.234.678.231 1.114v3.483h-1.289v-3.283c0-.366-.095-.652-.284-.858-.188-.207-.448-.31-.78-.31-.226 0-.426.05-.602.15a1.03 1.03 0 0 0-.409.423c-.098.185-.146.41-.146.673ZM571.652 181.179c-.463 0-.86-.063-1.193-.189a2.128 2.128 0 0 1-.801-.499 1.719 1.719 0 0 1-.42-.694l1.161-.281c.052.107.128.212.228.317.099.106.233.194.402.263.171.071.386.107.644.107.366 0 .669-.089.908-.267.24-.176.36-.465.36-.869v-1.036h-.064a1.849 1.849 0 0 1-.292.409c-.126.14-.293.258-.502.353-.207.095-.467.142-.78.142-.42 0-.801-.098-1.143-.295-.339-.2-.61-.496-.812-.89-.199-.397-.299-.893-.299-1.489 0-.6.1-1.107.299-1.52.202-.415.474-.73.816-.944a2.096 2.096 0 0 1 1.143-.324c.32 0 .584.055.79.164.209.107.375.236.499.388.123.15.217.291.281.424h.071v-.904h1.271v5.558c0 .467-.111.854-.334 1.16a2.015 2.015 0 0 1-.915.688 3.585 3.585 0 0 1-1.318.228Zm.011-3.255c.273 0 .505-.066.698-.199.192-.133.338-.324.438-.573.099-.25.149-.549.149-.898 0-.344-.05-.645-.149-.904a1.3 1.3 0 0 0-.435-.602 1.122 1.122 0 0 0-.701-.217c-.287 0-.527.075-.719.224-.193.15-.338.355-.435.616a2.504 2.504 0 0 0-.146.883c0 .335.049.628.146.88.1.249.246.444.438.584.195.137.433.206.716.206ZM503.036 186.11c0 .786-.147 1.459-.441 2.019a3.127 3.127 0 0 1-1.197 1.282c-.503.297-1.074.445-1.712.445a3.327 3.327 0 0 1-1.717-.445 3.179 3.179 0 0 1-1.196-1.285c-.292-.56-.438-1.232-.438-2.016 0-.785.146-1.457.438-2.015.294-.56.693-.988 1.196-1.285a3.327 3.327 0 0 1 1.717-.445c.638 0 1.209.148 1.712.445.506.297.905.725 1.197 1.285.294.558.441 1.23.441 2.015Zm-1.328 0c0-.553-.087-1.019-.26-1.399-.171-.382-.408-.67-.712-.865a1.888 1.888 0 0 0-1.05-.296c-.397 0-.747.099-1.051.296-.304.195-.542.483-.715.865-.171.38-.257.846-.257 1.399 0 .554.086 1.021.257 1.403.173.38.411.669.715.866a1.91 1.91 0 0 0 1.051.291 1.91 1.91 0 0 0 1.05-.291c.304-.197.541-.486.712-.866.173-.382.26-.849.26-1.403ZM504.228 189.756v-5.469h1.25v.912h.057c.1-.316.27-.559.513-.73a1.41 1.41 0 0 1 .836-.26c.071 0 .151.004.239.011.09.005.165.013.224.025v1.185a1.336 1.336 0 0 0-.26-.049 2.332 2.332 0 0 0-.338-.025c-.235 0-.446.051-.634.153a1.117 1.117 0 0 0-.438.416c-.107.178-.16.384-.16.616v3.215h-1.289ZM510.364 189.863c-.546 0-1.015-.12-1.407-.359a2.4 2.4 0 0 1-.9-.994c-.209-.425-.314-.914-.314-1.467 0-.555.107-1.045.321-1.47.213-.427.515-.76.904-.997.392-.24.855-.36 1.389-.36.444 0 .836.082 1.178.246.344.161.619.39.823.687.204.294.32.639.349 1.033h-1.232a1.182 1.182 0 0 0-.356-.659c-.185-.178-.434-.267-.744-.267-.264 0-.495.071-.695.214-.199.14-.355.341-.466.605a2.47 2.47 0 0 0-.164.947c0 .373.055.693.164.961.109.266.262.471.459.616.199.143.433.214.702.214.189 0 .359-.036.509-.107.152-.073.279-.179.381-.317.102-.137.172-.305.21-.502h1.232a2.15 2.15 0 0 1-.342 1.029c-.197.297-.465.53-.805.698-.339.166-.738.249-1.196.249ZM515.054 186.552v3.204h-1.289v-7.292h1.261v2.753h.064a1.58 1.58 0 0 1 .594-.73c.271-.181.615-.271 1.033-.271.38 0 .711.08.993.239a1.6 1.6 0 0 1 .655.698c.157.306.235.68.235 1.121v3.482h-1.289v-3.282c0-.368-.095-.654-.284-.858-.188-.207-.451-.31-.791-.31-.228 0-.432.05-.612.149a1.052 1.052 0 0 0-.42.424c-.1.185-.15.409-.15.673ZM522.335 189.863c-.548 0-1.021-.114-1.42-.342a2.305 2.305 0 0 1-.915-.975c-.214-.423-.321-.92-.321-1.492 0-.563.107-1.056.321-1.481.216-.427.517-.76.904-.997.387-.24.842-.36 1.364-.36.337 0 .655.055.954.164.301.107.567.273.798.498.232.226.415.513.548.862.133.347.199.76.199 1.239v.395h-4.482v-.868h3.247a1.399 1.399 0 0 0-.16-.659 1.166 1.166 0 0 0-.438-.459 1.232 1.232 0 0 0-.648-.168c-.264 0-.495.064-.695.193a1.319 1.319 0 0 0-.466.498 1.446 1.446 0 0 0-.168.673v.758c0 .318.059.591.175.819.116.226.279.399.488.52.209.119.453.178.733.178.188 0 .357-.026.509-.078.152-.055.284-.134.396-.239a.99.99 0 0 0 .252-.388l1.204.136a1.877 1.877 0 0 1-.435.833 2.117 2.117 0 0 1-.811.548c-.33.128-.708.192-1.133.192ZM530.18 185.733l-1.175.128a.94.94 0 0 0-.174-.334.862.862 0 0 0-.328-.253 1.191 1.191 0 0 0-.505-.096c-.269 0-.494.058-.677.174-.18.116-.269.267-.267.452a.473.473 0 0 0 .175.388c.121.1.32.182.598.246l.933.199c.517.112.902.289 1.153.531.254.242.382.559.385.951a1.492 1.492 0 0 1-.303.911 1.95 1.95 0 0 1-.822.613c-.352.147-.755.22-1.211.22-.669 0-1.208-.14-1.616-.42a1.684 1.684 0 0 1-.73-1.178l1.256-.121a.886.886 0 0 0 .364.559c.185.125.426.188.722.188.307 0 .552-.063.737-.188.188-.126.282-.282.282-.467a.486.486 0 0 0-.182-.388c-.119-.102-.304-.18-.555-.235l-.933-.196c-.525-.109-.913-.293-1.164-.552-.252-.261-.377-.591-.374-.99a1.394 1.394 0 0 1 .274-.875c.187-.25.447-.442.78-.577.334-.138.72-.207 1.157-.207.641 0 1.145.137 1.513.41.37.273.599.642.687 1.107ZM534.092 184.287v.997h-3.144v-.997h3.144Zm-2.368-1.31h1.289v5.134c0 .174.026.307.078.399.055.09.126.152.214.185.087.034.185.05.292.05a1.491 1.491 0 0 0 .377-.05l.217 1.008c-.069.024-.167.05-.295.078-.126.029-.28.046-.463.05a2.094 2.094 0 0 1-.873-.146 1.35 1.35 0 0 1-.615-.505c-.15-.228-.224-.513-.221-.855v-5.348ZM535.17 189.756v-5.469h1.249v.912h.057a1.366 1.366 0 0 1 1.35-.99c.071 0 .15.004.238.011.09.005.165.013.225.025v1.185a1.368 1.368 0 0 0-.26-.049 2.345 2.345 0 0 0-.339-.025 1.3 1.3 0 0 0-.633.153 1.103 1.103 0 0 0-.438.416 1.174 1.174 0 0 0-.161.616v3.215h-1.288ZM540.621 189.867c-.347 0-.659-.062-.937-.185a1.532 1.532 0 0 1-.655-.556c-.159-.244-.238-.546-.238-.904 0-.309.057-.564.171-.766.113-.201.269-.363.466-.484s.419-.212.666-.274c.249-.064.507-.11.772-.139.321-.033.581-.063.78-.089.2-.028.344-.071.435-.128.092-.059.138-.151.138-.274v-.022c0-.268-.079-.476-.238-.623-.159-.147-.388-.221-.687-.221-.316 0-.566.069-.752.207-.182.138-.306.3-.37.488l-1.203-.171c.095-.332.251-.61.47-.833a2.04 2.04 0 0 1 .801-.506 3.058 3.058 0 0 1 1.047-.171c.263 0 .525.031.786.093.262.062.5.164.716.306.216.14.389.331.52.573.133.242.199.545.199.908v3.66h-1.239v-.751h-.042a1.563 1.563 0 0 1-.862.744 2.12 2.12 0 0 1-.744.118Zm.334-.947c.259 0 .483-.051.673-.153.19-.105.336-.242.438-.413a1.05 1.05 0 0 0 .157-.559v-.645a.616.616 0 0 1-.206.093 2.957 2.957 0 0 1-.321.074 7.787 7.787 0 0 1-.352.057l-.303.043a2.265 2.265 0 0 0-.516.128.865.865 0 0 0-.36.25.606.606 0 0 0-.132.406c0 .237.087.416.26.537.173.121.394.182.662.182ZM547.535 184.287v.997h-3.144v-.997h3.144Zm-2.367-1.31h1.289v5.134c0 .174.026.307.078.399a.42.42 0 0 0 .214.185c.087.034.185.05.291.05a1.491 1.491 0 0 0 .378-.05l.217 1.008c-.069.024-.167.05-.295.078a2.33 2.33 0 0 1-.463.05 2.094 2.094 0 0 1-.873-.146 1.358 1.358 0 0 1-.616-.505c-.149-.228-.223-.513-.22-.855v-5.348ZM548.613 189.756v-5.469h1.289v5.469h-1.289Zm.648-6.245a.75.75 0 0 1-.527-.203.652.652 0 0 1-.22-.495c0-.194.073-.359.22-.495a.749.749 0 0 1 .527-.206c.207 0 .383.069.527.206a.647.647 0 0 1 .221.495.65.65 0 0 1-.221.495.739.739 0 0 1-.527.203ZM553.613 189.863c-.534 0-.997-.117-1.388-.352a2.395 2.395 0 0 1-.912-.986c-.213-.423-.32-.917-.32-1.482s.107-1.06.32-1.484c.216-.425.52-.755.912-.99.391-.235.854-.353 1.388-.353.534 0 .997.118 1.389.353s.694.565.908.99c.216.424.324.919.324 1.484s-.108 1.059-.324 1.482a2.373 2.373 0 0 1-.908.986c-.392.235-.855.352-1.389.352Zm.007-1.032c.29 0 .532-.08.727-.239.194-.161.339-.377.434-.648.097-.27.146-.572.146-.904 0-.335-.049-.638-.146-.908a1.446 1.446 0 0 0-.434-.652 1.104 1.104 0 0 0-.727-.242c-.296 0-.543.081-.74.242a1.46 1.46 0 0 0-.438.652c-.095.27-.143.573-.143.908 0 .332.048.634.143.904.097.271.243.487.438.648.197.159.444.239.74.239ZM558.617 186.552v3.204h-1.289v-5.469h1.232v.93h.064a1.56 1.56 0 0 1 .602-.73c.277-.181.62-.271 1.029-.271.377 0 .706.081.986.242.282.162.501.396.655.702.157.306.234.677.232 1.114v3.482h-1.289v-3.282c0-.366-.095-.652-.285-.858-.188-.207-.448-.31-.78-.31-.226 0-.426.05-.602.149-.173.098-.31.239-.409.424a1.42 1.42 0 0 0-.146.673Z" fill="#000"/><path d="M707.815 152.512c0 .248.2.448.447.448H715.734v-.005a5.89 5.89 0 0 0 .254-11.754.49.49 0 0 1-.44-.384 8.486 8.486 0 0 0-8.297-6.704 8.482 8.482 0 0 0-8.483 8.481c0 .05-.036.092-.084.102a5.184 5.184 0 0 0 1.026 10.264h5.965c.247 0 .448-.2.448-.448v-1.404a.472.472 0 0 0-.39-.456c-.933-.179-1.731-.564-2.277-1.114a3.064 3.064 0 0 1-.872-1.819c-.031-.248.175-.452.425-.451l.997.004c.239.002.43.193.485.426.229.978 1.115 1.623 2.427 1.629.511.002 2.418-.236 2.424-1.554.005-1.054-1.381-1.453-2.692-1.777-.223-.055-.451-.111-.679-.172-1.482-.394-3.051-.844-3.042-2.741.009-1.842 1.56-2.793 3.194-2.986v-1.767c0-.247.2-.447.447-.447h.795c.247 0 .448.2.448.447v1.815c1.178.19 2.765.786 3.034 2.602.037.25-.17.459-.422.458l-1.002-.005c-.23-.001-.415-.179-.484-.398-.26-.83-1.075-1.333-2.268-1.338-.793-.004-1.943.417-1.948 1.378-.004.872.663 1.169 3.153 1.812l.329.084.133.032c.949.229 2.894.698 2.885 2.784-.008 1.646-1.133 2.772-3.013 3.107a.472.472 0 0 0-.395.457v1.394Z" fill="url(#k)"/><path d="M733.547 136.802c-.225-1.62-1.471-2.56-3.088-2.56-1.906 0-3.341 1.389-3.341 3.746 0 2.353 1.418 3.746 3.341 3.746 1.734 0 2.885-1.122 3.088-2.514l-1.332-.007c-.168.854-.866 1.335-1.738 1.335-1.183 0-2.03-.887-2.03-2.56 0-1.645.84-2.56 2.033-2.56.887 0 1.582.502 1.735 1.374h1.332ZM735.989 134.342H734.7v7.292h1.289v-7.292ZM739.701 141.741c1.603 0 2.621-1.129 2.621-2.82 0-1.695-1.018-2.827-2.621-2.827s-2.621 1.132-2.621 2.827c0 1.691 1.018 2.82 2.621 2.82Zm.007-1.033c-.887 0-1.321-.79-1.321-1.791 0-1 .434-1.801 1.321-1.801.873 0 1.307.801 1.307 1.801 0 1.001-.434 1.791-1.307 1.791ZM746.903 139.334c0 .833-.595 1.246-1.164 1.246-.62 0-1.033-.438-1.033-1.132v-3.283h-1.289v3.482c0 1.314.747 2.058 1.823 2.058.819 0 1.396-.431 1.645-1.043h.057v.972h1.251v-5.469h-1.29v3.169ZM751.548 141.73c.941 0 1.364-.559 1.567-.958h.079v.862h1.268v-7.292h-1.293v2.727h-.054c-.195-.395-.598-.975-1.563-.975-1.264 0-2.258.99-2.258 2.813 0 1.801.965 2.823 2.254 2.823Zm.36-1.057c-.851 0-1.3-.748-1.3-1.774 0-1.018.442-1.748 1.3-1.748.83 0 1.286.687 1.286 1.748s-.463 1.774-1.286 1.774ZM764.624 136.802c-.225-1.62-1.471-2.56-3.088-2.56-1.906 0-3.341 1.389-3.341 3.746 0 2.353 1.417 3.746 3.341 3.746 1.734 0 2.885-1.122 3.088-2.514l-1.332-.007c-.168.854-.866 1.335-1.738 1.335-1.183 0-2.031-.887-2.031-2.56 0-1.645.841-2.56 2.034-2.56.887 0 1.581.502 1.735 1.374h1.332ZM768.163 141.741c1.602 0 2.621-1.129 2.621-2.82 0-1.695-1.019-2.827-2.621-2.827-1.603 0-2.621 1.132-2.621 2.827 0 1.691 1.018 2.82 2.621 2.82Zm.007-1.033c-.887 0-1.321-.79-1.321-1.791 0-1 .434-1.801 1.321-1.801.872 0 1.307.801 1.307 1.801 0 1.001-.435 1.791-1.307 1.791ZM776.202 137.61c-.178-.925-.919-1.516-2.201-1.516-1.318 0-2.215.648-2.212 1.659-.003.797.488 1.324 1.539 1.542l.933.195c.502.111.737.314.737.624 0 .373-.406.655-1.018.655-.592 0-.976-.257-1.087-.748l-1.257.121c.16 1.004 1.004 1.599 2.347 1.599 1.368 0 2.333-.709 2.337-1.745-.004-.78-.506-1.257-1.539-1.481l-.933-.2c-.556-.124-.777-.316-.773-.633-.004-.371.406-.627.944-.627.595 0 .908.324 1.008.684l1.175-.129ZM780.114 136.165h-1.079v-1.31h-1.289v1.31h-.777v.997h.777v3.041c-.007 1.029.741 1.534 1.709 1.506.367-.011.62-.082.759-.128l-.217-1.008c-.071.018-.217.05-.378.05-.324 0-.584-.114-.584-.634v-2.827h1.079v-.997ZM727.303 145.085v7.292h1.268v-5.021h.068l2.016 4.999h.947l2.016-4.988h.068v5.01h1.267v-7.292h-1.616l-2.166 5.284h-.085l-2.166-5.284h-1.617ZM737.91 152.487c.858 0 1.371-.402 1.606-.862h.043v.752h1.239v-3.661c0-1.445-1.179-1.88-2.222-1.88-1.151 0-2.034.513-2.319 1.51l1.204.171c.128-.374.491-.694 1.122-.694.598 0 .926.306.926.844v.021c0 .37-.389.388-1.354.491-1.061.114-2.076.431-2.076 1.663 0 1.075.787 1.645 1.831 1.645Zm.334-.947c-.537 0-.922-.246-.922-.719 0-.495.431-.702 1.008-.784.338-.046 1.015-.131 1.182-.267v.645c0 .609-.491 1.125-1.268 1.125ZM743.384 149.172c0-.79.477-1.246 1.157-1.246.666 0 1.065.438 1.065 1.168v3.283h1.289v-3.483c.004-1.31-.744-2.058-1.873-2.058-.819 0-1.382.392-1.631 1.001h-.064v-.929h-1.233v5.469h1.29v-3.205ZM749.78 152.487c.858 0 1.371-.402 1.606-.862h.043v.752h1.239v-3.661c0-1.445-1.178-1.88-2.222-1.88-1.15 0-2.034.513-2.318 1.51l1.203.171c.129-.374.492-.694 1.122-.694.599 0 .926.306.926.844v.021c0 .37-.388.388-1.353.491-1.062.114-2.077.431-2.077 1.663 0 1.075.788 1.645 1.831 1.645Zm.335-.947c-.538 0-.923-.246-.923-.719 0-.495.431-.702 1.008-.784.339-.046 1.015-.131 1.183-.267v.645c0 .609-.492 1.125-1.268 1.125ZM756.344 154.542c1.478 0 2.568-.677 2.568-2.076v-5.558h-1.272v.904h-.071c-.196-.395-.605-.976-1.571-.976-1.264 0-2.258.99-2.258 2.788 0 1.784.994 2.674 2.255 2.674.937 0 1.375-.502 1.574-.904h.064v1.036c0 .805-.534 1.136-1.268 1.136-.776 0-1.118-.367-1.275-.687l-1.161.281c.235.766 1.022 1.382 2.415 1.382Zm.011-3.255c-.852 0-1.3-.662-1.3-1.67 0-.993.441-1.723 1.3-1.723.829 0 1.285.687 1.285 1.723 0 1.044-.463 1.67-1.285 1.67ZM762.655 152.484c1.275 0 2.151-.624 2.379-1.574l-1.204-.136c-.174.463-.602.705-1.157.705-.834 0-1.386-.548-1.396-1.484h3.81v-.396c0-1.919-1.154-2.763-2.5-2.763-1.567 0-2.589 1.151-2.589 2.838 0 1.716 1.008 2.81 2.657 2.81Zm-1.375-3.358c.039-.698.556-1.285 1.325-1.285.741 0 1.239.541 1.247 1.285h-2.572ZM766.178 152.377h1.289v-3.326c0-.673.449-1.129 1.005-1.129.545 0 .919.367.919.93v3.525h1.264v-3.411c0-.616.367-1.044.99-1.044.52 0 .933.307.933.983v3.472h1.293v-3.671c0-1.222-.705-1.87-1.71-1.87-.794 0-1.399.392-1.641 1.001h-.057c-.211-.62-.741-1.001-1.478-1.001-.734 0-1.283.378-1.51 1.001h-.065v-.929h-1.232v5.469ZM777.601 152.484c1.275 0 2.151-.624 2.379-1.574l-1.204-.136c-.174.463-.602.705-1.157.705-.834 0-1.386-.548-1.397-1.484h3.811v-.396c0-1.919-1.154-2.763-2.5-2.763-1.567 0-2.589 1.151-2.589 2.838 0 1.716 1.008 2.81 2.657 2.81Zm-1.375-3.358c.039-.698.556-1.285 1.325-1.285.741 0 1.239.541 1.246 1.285h-2.571ZM782.413 149.172c0-.79.478-1.246 1.158-1.246.666 0 1.065.438 1.065 1.168v3.283h1.289v-3.483c.003-1.31-.744-2.058-1.873-2.058-.82 0-1.382.392-1.632 1.001h-.064v-.929h-1.232v5.469h1.289v-3.205ZM789.967 146.908h-1.079v-1.311h-1.289v1.311h-.777v.997h.777v3.04c-.007 1.029.741 1.535 1.709 1.506.367-.01.62-.081.759-.128l-.217-1.007c-.072.017-.218.05-.378.05-.324 0-.584-.114-.584-.634v-2.827h1.079v-.997Z" fill="#000"/><path d="M758.251 179.561c-1.952 7.531-4.656 17.052-10.958 17.472-10.282.685-10.967-7.064-10.967-15.074.837-7.53 5.675-16.443 11.99-16.443 6.316 0 11.609 2.052 9.935 14.045Z" fill="#fff"/><path fill-rule="evenodd" clip-rule="evenodd" d="M739.489 195.954a.269.269 0 0 1 .314-.211c1.418.277 2.597.536 3.727.783 1.684.369 3.263.715 5.37 1.065a.268.268 0 0 1-.088.528c-2.114-.352-3.719-.703-5.418-1.075a159.02 159.02 0 0 0-3.693-.776.268.268 0 0 1-.212-.314Z" fill="#000"/><path fill-rule="evenodd" clip-rule="evenodd" d="M756.253 167.369c1.685 1.497 2.608 4.327 2.608 6.711 0 2.298-.69 8.148-2.368 13.472-.839 2.663-1.93 5.212-3.32 7.123-1.388 1.91-3.102 3.22-5.188 3.31a.294.294 0 0 1-.066-.005c-2.769-.578-4.136-3.293-4.674-6.552-.54-3.28-.267-7.24.355-10.546.968-5.147 3.301-9.278 5.497-11.838a.267.267 0 0 1 .054-.288c1.428-1.484 2.76-2.229 3.971-2.397 1.221-.17 2.278.252 3.131 1.01Zm-5.107.373c.742-.501 1.428-.767 2.05-.854 1.04-.144 1.944.208 2.702.88 1.535 1.364 2.428 4.024 2.428 6.312 0 2.24-.68 8.037-2.343 13.312-.831 2.637-1.901 5.125-3.242 6.969-1.334 1.835-2.906 2.995-4.745 3.088-2.397-.519-3.695-2.902-4.223-6.108-.527-3.198-.262-7.09.353-10.36 1.199-6.381 4.533-11.145 6.986-13.205a.219.219 0 0 0 .034-.034Z" fill="#000"/><path fill-rule="evenodd" clip-rule="evenodd" d="M748.208 165.547c-1.719 0-3.019.511-4.536 1.559-1.786 1.234-3.322 3.343-4.502 5.918-1.178 2.571-1.99 5.585-2.341 8.604-.351 3.019-.238 6.031.423 8.597.662 2.569 1.866 4.666 3.678 5.902a.267.267 0 0 1-.301.442c-1.956-1.334-3.214-3.568-3.895-6.211-.681-2.644-.792-5.724-.436-8.792.357-3.069 1.183-6.138 2.386-8.765 1.202-2.623 2.79-4.826 4.684-6.135 1.582-1.093 2.985-1.653 4.84-1.653 1.833 0 4.092.548 7.385 1.619a.267.267 0 1 1-.165.508c-3.293-1.07-5.48-1.593-7.22-1.593Z" fill="#000"/><path fill-rule="evenodd" clip-rule="evenodd" d="M752.077 174.472c.898.109 1.837.755 2.691 2.053a.267.267 0 1 1-.447.293c-.807-1.226-1.626-1.733-2.308-1.815-.673-.081-1.286.243-1.714.844-.861 1.208-.923 3.495.981 5.319 2.049 1.963 2.499 4.699 1.441 6.263-.539.797-1.452 1.251-2.653 1.132-1.186-.117-2.646-.789-4.341-2.201a.268.268 0 0 1 .342-.411c1.653 1.377 3.014 1.977 4.051 2.08 1.023.101 1.738-.278 2.158-.9.863-1.275.564-3.726-1.368-5.577-2.077-1.99-2.076-4.571-1.046-6.015.516-.725 1.306-1.174 2.213-1.065Z" fill="#000"/><path fill-rule="evenodd" clip-rule="evenodd" d="M753.501 173.067c.142.04.226.187.186.33-1.397 5.029-3.352 10.894-5.327 16.266a.267.267 0 1 1-.502-.184c1.972-5.364 3.922-11.214 5.314-16.226a.268.268 0 0 1 .329-.186ZM742.921 167.158a.266.266 0 0 1 .328-.186l6.167 1.713a.268.268 0 0 1-.142.515l-6.167-1.713a.267.267 0 0 1-.186-.329Zm3.081-1.706a.266.266 0 0 1 .323-.195c1.349.335 2.083.546 2.799.751l.025.008c.705.202 1.398.401 2.66.715a.268.268 0 0 1 .196.324.265.265 0 0 1-.323.195c-1.272-.316-1.972-.517-2.679-.72l-.026-.007a69.812 69.812 0 0 0-2.779-.747.268.268 0 0 1-.196-.324ZM738.122 174.017a.265.265 0 0 1 .323-.195l6.852 1.713c.143.036.23.181.195.324a.266.266 0 0 1-.324.195l-6.851-1.713a.268.268 0 0 1-.195-.324Zm1.37-2.398a.266.266 0 0 1 .323-.195c1.464.364 2.4.621 3.316.872l.035.009c.903.248 1.792.492 3.158.832a.267.267 0 1 1-.128.519 120.19 120.19 0 0 1-3.169-.834l-.036-.01c-.914-.251-1.845-.506-3.304-.869a.268.268 0 0 1-.195-.324Zm1.37-2.398a.266.266 0 0 1 .323-.195c1.401.348 2.447.611 3.476.869l.036.009.038.009 3.302.826a.267.267 0 1 1-.128.519c-1.303-.324-2.299-.574-3.303-.826l-3.548-.887a.27.27 0 0 1-.196-.324ZM736.75 179.846a.266.266 0 0 1 .318-.204c1.372.305 2.333.473 3.216.628l.314.055c.974.172 1.897.344 3.223.689a.268.268 0 0 1-.133.517 37.385 37.385 0 0 0-3.182-.679l-.313-.055c-.883-.155-1.856-.325-3.239-.632a.269.269 0 0 1-.204-.319Zm.687-2.746a.266.266 0 0 1 .321-.197l3.19.759c.863.199 1.724.397 2.981.71a.267.267 0 0 1-.125.52l-2.977-.709a.246.246 0 0 1-.029-.007l-.031-.007c-.885-.203-1.787-.411-3.134-.746a.268.268 0 0 1-.196-.323Zm-1.028 5.478a.267.267 0 0 1 .325-.193l6.741 1.713a.267.267 0 0 1-.13.518l-6.741-1.713a.268.268 0 0 1-.195-.325ZM736.406 185.676a.267.267 0 0 1 .313-.211l3.358.652c.693.127 1.391.256 2.812.546.145.03.238.17.21.315a.267.267 0 0 1-.313.21l-2.807-.545-.064-.012-.066-.012a135.41 135.41 0 0 1-3.233-.629.269.269 0 0 1-.21-.314Zm.346 2.728a.266.266 0 0 1 .323-.195c1.458.363 2.997.712 4.172.971.587.129 1.083.236 1.433.31l.406.086.145.03-.054.262-.053.262-.146-.03-.408-.087c-.35-.074-.848-.181-1.437-.311a161.69 161.69 0 0 1-4.186-.974.267.267 0 0 1-.195-.324Zm6.687 1.518a.266.266 0 0 1-.315.208l.053-.262.054-.262c.144.03.238.172.208.316ZM737.092 191.253a.267.267 0 0 1 .318-.204c.987.216 1.971.424 2.961.633 1.109.234 2.225.47 3.361.721a.269.269 0 0 1 .205.319.266.266 0 0 1-.318.204 348.486 348.486 0 0 0-3.35-.719c-.985-.208-1.966-.415-2.972-.635a.27.27 0 0 1-.205-.319Zm1.028 2.548a.266.266 0 0 1 .316-.206c1.123.236 2.13.422 3.271.632.951.176 1.995.368 3.276.621a.27.27 0 0 1 .212.315.267.267 0 0 1-.314.21 257.823 257.823 0 0 0-3.259-.618c-1.15-.212-2.171-.4-3.295-.637a.267.267 0 0 1-.207-.317Z" fill="#000"/><path d="m430.246 78.439-11.713 4.183V103.5l18.621 3.577 10.451-4.209V81.785l-17.359-3.346Z" fill="#fff"/><path fill-rule="evenodd" clip-rule="evenodd" d="M450.155 80.85a.268.268 0 0 1-.151.348c-3.821 1.508-12.137 5.176-15.465 6.687a.267.267 0 0 1-.221-.487c3.329-1.51 11.655-5.184 15.49-6.698a.268.268 0 0 1 .347.15ZM448.348 102.772a.268.268 0 0 1-.153.346c-5.141 1.977-6.351 2.463-11.735 4.626l-1.089.438a.267.267 0 1 1-.199-.496l1.089-.438c5.385-2.164 6.597-2.651 11.742-4.63a.267.267 0 0 1 .345.154Z" fill="#000"/><path fill-rule="evenodd" clip-rule="evenodd" d="M447.449 80.054c.148 0 .267.12.267.267V103.5a.267.267 0 1 1-.534 0V80.321c0-.148.119-.267.267-.267ZM437.38 84.444a.267.267 0 0 1 .264.271c-.032 2.462-.017 12.163-.007 18.565.004 2.247.007 4.087.007 5.066a.267.267 0 1 1-.535 0c0-.976-.003-2.813-.006-5.056-.011-6.403-.026-16.116.006-18.582a.267.267 0 0 1 .271-.264ZM418.533 80.682c.148 0 .267.12.267.267v22.847a.267.267 0 1 1-.534 0V80.949c0-.148.119-.267.267-.267Z" fill="#000"/><path fill-rule="evenodd" clip-rule="evenodd" d="M432.229 77.092a.268.268 0 0 1-.151.347h-.002c-4.309 1.692-11.698 4.593-15.602 6.055a.267.267 0 0 1-.188-.5c3.9-1.461 11.286-4.36 15.596-6.053a.268.268 0 0 1 .347.151Z" fill="#000"/><path fill-rule="evenodd" clip-rule="evenodd" d="M417.645 82.566a.267.267 0 0 1 .317-.207c3.192.678 6.698 1.31 10.191 1.94l.833.15c3.764.68 7.482 1.36 10.731 2.094a.268.268 0 0 1-.118.522c-3.235-.73-6.942-1.41-10.708-2.09l-.835-.15c-3.491-.63-7.005-1.264-10.205-1.943a.267.267 0 0 1-.206-.317ZM416.978 102.558a.266.266 0 0 1 .317-.206c4.742 1.006 9.817 2.171 14.629 3.277 2.194.504 4.334.995 6.363 1.453a.267.267 0 0 1-.118.522c-2.033-.459-4.175-.951-6.37-1.455-4.811-1.105-9.877-2.269-14.615-3.274a.267.267 0 0 1-.206-.317ZM427.681 77.978a.267.267 0 0 1 .306-.222c5.234.838 16.324 2.93 21.139 3.977a.267.267 0 1 1-.113.522c-4.806-1.044-15.886-3.135-21.11-3.97a.268.268 0 0 1-.222-.307ZM433.145 88.244a.267.267 0 0 1 .271.264l.21 14.85a.268.268 0 0 1-.535.007l-.209-14.85a.267.267 0 0 1 .263-.27ZM422.692 86.571c.148 0 .268.12.268.268v13.176a.268.268 0 0 1-.535 0V86.839c0-.148.12-.268.267-.268Z" fill="#000"/><path fill-rule="evenodd" clip-rule="evenodd" d="M434.249 89.395a.267.267 0 0 1-.309.217c-1.328-.234-2.747-.469-4.213-.711-2.445-.405-5.018-.831-7.504-1.31a.267.267 0 1 1 .101-.525c2.481.478 5.038.901 7.478 1.305 1.467.243 2.891.478 4.23.715a.267.267 0 0 1 .217.31ZM434.351 102.675a.268.268 0 0 1-.322.199 455.954 455.954 0 0 0-7.124-1.6c-2.09-.456-3.956-.864-5.506-1.241a.267.267 0 1 1 .126-.52c1.559.38 3.41.784 5.487 1.238 2.16.471 4.565.997 7.14 1.602a.269.269 0 0 1 .199.322Z" fill="#000"/><path fill-rule="evenodd" clip-rule="evenodd" d="M422.606 99.798a.268.268 0 0 1 .156-.345c1.344-.508 2.782-1.057 4.243-1.614 2.114-.807 4.275-1.631 6.267-2.378a.267.267 0 0 1 .188.5c-1.992.747-4.149 1.57-6.262 2.376-1.46.557-2.899 1.106-4.247 1.616a.268.268 0 0 1-.345-.155ZM443.222 83.664a.269.269 0 0 1 .192.326c-.963 3.734-1.933 7.465-2.888 11.133l-.049.19-.05.19-2.691 10.377a.268.268 0 0 1-.326.192.268.268 0 0 1-.192-.326c.867-3.363 1.772-6.84 2.692-10.377l2.986-11.513a.268.268 0 0 1 .326-.192Zm-4.051 1.263a.267.267 0 0 1 .192.326l-1.627 6.314a.267.267 0 1 1-.518-.133l1.628-6.315a.266.266 0 0 1 .325-.192ZM447.693 81.121a.267.267 0 0 1 .192.326l-6.188 24.013a.268.268 0 0 1-.518-.134l6.188-24.012a.268.268 0 0 1 .326-.193Zm0 12.647a.267.267 0 0 1 .192.326l-2.495 9.682a.268.268 0 0 1-.518-.134l2.495-9.682a.268.268 0 0 1 .326-.192ZM433.194 92.198a.267.267 0 0 1-.154.346l-10.524 4.043a.267.267 0 1 1-.191-.5l10.524-4.042a.267.267 0 0 1 .345.153Zm-1.684-3.217a.268.268 0 0 1-.153.346l-8.374 3.217a.267.267 0 0 1-.192-.5l8.374-3.216a.267.267 0 0 1 .345.153Zm-5.472-1.278a.267.267 0 0 1-.154.345l-3.327 1.279a.268.268 0 0 1-.192-.5l3.327-1.278a.268.268 0 0 1 .346.154Z" fill="#000"/></g><defs><linearGradient id="a" x1="922.28" y1="49.877" x2="18.806" y2="320.405" gradientUnits="userSpaceOnUse"><stop offset=".019" stop-color="#F8F8F8" stop-opacity="0"/><stop offset=".257" stop-color="#F8F8F8"/><stop offset=".61" stop-color="#F8F8F8"/><stop offset="1" stop-color="#F8F8F8" stop-opacity="0"/></linearGradient><linearGradient id="b" x1="922.28" y1="49.877" x2="18.806" y2="320.405" gradientUnits="userSpaceOnUse"><stop offset=".019" stop-color="#F8F8F8" stop-opacity="0"/><stop offset=".257" stop-color="#F8F8F8"/><stop offset=".61" stop-color="#F8F8F8"/><stop offset="1" stop-color="#F8F8F8" stop-opacity="0"/></linearGradient><linearGradient id="c" x1="932.174" y1="45.718" x2="20.933" y2="348.55" gradientUnits="userSpaceOnUse"><stop offset=".078" stop-color="#63D5EA" stop-opacity="0"/><stop offset=".334" stop-color="#20C7FF"/><stop offset=".72" stop-color="#20C7FF"/><stop offset=".941" stop-color="#63D5EA" stop-opacity="0"/></linearGradient><linearGradient id="d" x1="380.656" y1="43.67" x2="392.494" y2="66.579" gradientUnits="userSpaceOnUse"><stop stop-color="#BEA1FF"/><stop offset="1" stop-color="#8A36FF"/></linearGradient><linearGradient id="e" x1="277.467" y1="153.177" x2="290.649" y2="178.246" gradientUnits="userSpaceOnUse"><stop stop-color="#62F91F"/><stop offset="1" stop-color="#45BD35"/></linearGradient><linearGradient id="f" x1="277.467" y1="153.177" x2="290.649" y2="178.246" gradientUnits="userSpaceOnUse"><stop stop-color="#62F91F"/><stop offset="1" stop-color="#45BD35"/></linearGradient><linearGradient id="g" x1="90.847" y1="183.046" x2="105.882" y2="206.325" gradientUnits="userSpaceOnUse"><stop stop-color="#73DFE7"/><stop offset="1" stop-color="#0095F7"/></linearGradient><linearGradient id="h" x1="557.786" y1="55.129" x2="572.952" y2="78.612" gradientUnits="userSpaceOnUse"><stop stop-color="#FFC100"/><stop offset="1" stop-color="#E66B35"/></linearGradient><linearGradient id="i" x1="557.786" y1="55.129" x2="572.952" y2="78.612" gradientUnits="userSpaceOnUse"><stop stop-color="#FFC100"/><stop offset="1" stop-color="#E66B35"/></linearGradient><linearGradient id="j" x1="471.532" y1="170.698" x2="486.804" y2="190.61" gradientUnits="userSpaceOnUse"><stop stop-color="#4791FF"/><stop offset="1" stop-color="#2E1CF3"/></linearGradient><linearGradient id="k" x1="698.844" y1="132.675" x2="710.883" y2="158.707" gradientUnits="userSpaceOnUse"><stop stop-color="#00CFDE"/><stop offset="1" stop-color="#05A660"/></linearGradient></defs></svg>