<svg fill="none" xmlns="http://www.w3.org/2000/svg" viewBox="0 0 16 16"><path d="M16 8.184c0-.544-.045-1.09-.141-1.625H8.161v3.08h4.408a3.699 3.699 0 0 1-1.631 2.431v1.999h2.63C15.112 12.676 16 10.618 16 8.184Z" fill="#fff"/><path d="M8.161 16c2.201 0 4.057-.708 5.41-1.931l-2.63-1.999c-.732.488-1.676.764-2.777.764-2.13 0-3.934-1.408-4.582-3.3H.868v2.06C2.253 14.295 5.075 16 8.161 16Z" fill="#fff"/><path d="M3.579 9.534a4.702 4.702 0 0 1 0-3.063V4.41H.869a7.865 7.865 0 0 0 0 7.183l2.71-2.06Z" fill="#fff"/><path d="M8.161 3.166a4.484 4.484 0 0 1 3.13 1.2l2.33-2.284A7.932 7.932 0 0 0 8.162 0C5.075 0 2.253 1.705.868 4.41l2.71 2.06c.646-1.896 2.454-3.304 4.583-3.304Z" fill="#fff"/></svg>